<svg width="1796" height="378" viewBox="0 0 1796 378" fill="none" xmlns="http://www.w3.org/2000/svg">
<rect x="304" y="106" width="200" height="50" rx="25" fill="#3498DB"/>
<path d="M345.6 137L342.849 127.545H345.374L346.801 133.741H346.879L348.509 127.545H350.568L352.197 133.755H352.276L353.707 127.545H356.228L353.481 137H351.279L349.575 131.266H349.501L347.798 137H345.6ZM358.188 137H355.732L358.922 127.545H361.965L365.155 137H362.699L360.478 129.928H360.404L358.188 137ZM357.861 133.279H362.994V135.015H357.861V133.279ZM368.458 127.545V137H366.173V127.545H368.458ZM369.583 129.401V127.545H377.574V129.401H374.707V137H372.454V129.401H369.583ZM381.483 137V127.545H388.075V129.401H383.768V131.34H387.738V133.201H383.768V135.144H388.075V137H381.483ZM391.653 127.545L393.768 134.47H393.846L395.96 127.545H398.518L395.328 137H392.286L389.096 127.545H391.653ZM400.172 137H397.716L400.906 127.545H403.948L407.138 137H404.682L402.462 129.928H402.388L400.172 137ZM399.844 133.279H404.978V135.015H399.844V133.279ZM408.156 137V127.545H410.441V135.144H414.374V137H408.156ZM421.277 127.545H423.558V133.644C423.558 134.349 423.39 134.963 423.055 135.486C422.719 136.006 422.251 136.409 421.651 136.695C421.051 136.978 420.354 137.12 419.56 137.12C418.757 137.12 418.055 136.978 417.455 136.695C416.855 136.409 416.388 136.006 416.056 135.486C415.724 134.963 415.557 134.349 415.557 133.644V127.545H417.843V133.445C417.843 133.772 417.913 134.062 418.055 134.318C418.2 134.573 418.401 134.773 418.66 134.918C418.918 135.063 419.218 135.135 419.56 135.135C419.901 135.135 420.2 135.063 420.455 134.918C420.714 134.773 420.916 134.573 421.06 134.318C421.205 134.062 421.277 133.772 421.277 133.445V127.545ZM427.035 137H424.579L427.769 127.545H430.811L434.001 137H431.545L429.325 129.928H429.251L427.035 137ZM426.707 133.279H431.841V135.015H426.707V133.279ZM433.529 129.401V127.545H441.52V129.401H438.654V137H436.401V129.401H433.529ZM444.922 127.545V137H442.636V127.545H444.922ZM455.28 132.273C455.28 133.313 455.08 134.195 454.68 134.918C454.28 135.641 453.738 136.191 453.055 136.566C452.375 136.942 451.611 137.129 450.765 137.129C449.915 137.129 449.151 136.94 448.471 136.561C447.79 136.183 447.25 135.634 446.85 134.913C446.453 134.19 446.255 133.31 446.255 132.273C446.255 131.232 446.453 130.351 446.85 129.627C447.25 128.904 447.79 128.355 448.471 127.979C449.151 127.604 449.915 127.416 450.765 127.416C451.611 127.416 452.375 127.604 453.055 127.979C453.738 128.355 454.28 128.904 454.68 129.627C455.08 130.351 455.28 131.232 455.28 132.273ZM452.944 132.273C452.944 131.657 452.856 131.137 452.681 130.712C452.508 130.288 452.259 129.966 451.933 129.748C451.61 129.529 451.22 129.42 450.765 129.42C450.313 129.42 449.923 129.529 449.597 129.748C449.271 129.966 449.02 130.288 448.844 130.712C448.672 131.137 448.586 131.657 448.586 132.273C448.586 132.888 448.672 133.408 448.844 133.833C449.02 134.258 449.271 134.579 449.597 134.798C449.923 135.016 450.313 135.126 450.765 135.126C451.22 135.126 451.61 135.016 451.933 134.798C452.259 134.579 452.508 134.258 452.681 133.833C452.856 133.408 452.944 132.888 452.944 132.273ZM464.661 127.545V137H462.722L458.959 131.543H458.899V137H456.614V127.545H458.581L462.301 132.993H462.38V127.545H464.661Z" fill="white"/>
<rect x="627" y="106" width="200" height="50" rx="25" fill="#F39C12"/>
<path d="M675.234 137L672.482 127.545H675.008L676.434 133.741H676.512L678.142 127.545H680.201L681.831 133.755H681.909L683.34 127.545H685.861L683.114 137H680.912L679.208 131.266H679.135L677.431 137H675.234ZM687.822 137H685.366L688.556 127.545H691.598L694.788 137H692.332L690.111 129.928H690.038L687.822 137ZM687.494 133.279H692.627V135.015H687.494V133.279ZM698.091 127.545V137H695.806V127.545H698.091ZM699.216 129.401V127.545H707.207V129.401H704.341V137H702.088V129.401H699.216ZM713.162 137H710.706L713.896 127.545H716.938L720.128 137H717.672L715.451 129.928H715.377L713.162 137ZM712.834 133.279H717.967V135.015H712.834V133.279ZM721.146 137V127.545H725.051C725.759 127.545 726.37 127.684 726.884 127.961C727.401 128.235 727.8 128.618 728.08 129.11C728.36 129.6 728.5 130.169 728.5 130.819C728.5 131.471 728.357 132.042 728.07 132.531C727.787 133.018 727.383 133.395 726.856 133.662C726.33 133.93 725.705 134.064 724.982 134.064H722.572V132.263H724.557C724.902 132.263 725.19 132.203 725.421 132.083C725.654 131.963 725.831 131.796 725.951 131.58C726.072 131.362 726.132 131.108 726.132 130.819C726.132 130.526 726.072 130.274 725.951 130.061C725.831 129.846 725.654 129.68 725.421 129.563C725.187 129.446 724.899 129.387 724.557 129.387H723.431V137H721.146ZM729.626 137V127.545H733.532C734.24 127.545 734.851 127.684 735.364 127.961C735.882 128.235 736.28 128.618 736.56 129.11C736.84 129.6 736.98 130.169 736.98 130.819C736.98 131.471 736.837 132.042 736.551 132.531C736.268 133.018 735.863 133.395 735.337 133.662C734.811 133.93 734.186 134.064 733.462 134.064H731.053V132.263H733.038C733.382 132.263 733.67 132.203 733.901 132.083C734.135 131.963 734.312 131.796 734.432 131.58C734.552 131.362 734.612 131.108 734.612 130.819C734.612 130.526 734.552 130.274 734.432 130.061C734.312 129.846 734.135 129.68 733.901 129.563C733.667 129.446 733.379 129.387 733.038 129.387H731.911V137H729.626ZM738.107 137V127.545H742.012C742.72 127.545 743.331 127.673 743.845 127.929C744.362 128.181 744.761 128.544 745.041 129.018C745.321 129.489 745.461 130.048 745.461 130.694C745.461 131.349 745.318 131.906 745.031 132.365C744.745 132.821 744.339 133.168 743.813 133.408C743.286 133.645 742.663 133.764 741.943 133.764H739.473V131.963H741.518C741.863 131.963 742.151 131.919 742.382 131.83C742.615 131.737 742.792 131.599 742.912 131.414C743.032 131.226 743.092 130.986 743.092 130.694C743.092 130.402 743.032 130.16 742.912 129.969C742.792 129.775 742.615 129.631 742.382 129.535C742.148 129.437 741.86 129.387 741.518 129.387H740.392V137H738.107ZM743.429 132.679L745.784 137H743.291L740.983 132.679H743.429ZM755.638 132.273C755.638 133.313 755.438 134.195 755.038 134.918C754.638 135.641 754.096 136.191 753.413 136.566C752.732 136.942 751.969 137.129 751.123 137.129C750.273 137.129 749.509 136.94 748.828 136.561C748.148 136.183 747.608 135.634 747.208 134.913C746.811 134.19 746.613 133.31 746.613 132.273C746.613 131.232 746.811 130.351 747.208 129.627C747.608 128.904 748.148 128.355 748.828 127.979C749.509 127.604 750.273 127.416 751.123 127.416C751.969 127.416 752.732 127.604 753.413 127.979C754.096 128.355 754.638 128.904 755.038 129.627C755.438 130.351 755.638 131.232 755.638 132.273ZM753.302 132.273C753.302 131.657 753.214 131.137 753.039 130.712C752.866 130.288 752.617 129.966 752.291 129.748C751.968 129.529 751.578 129.42 751.123 129.42C750.67 129.42 750.281 129.529 749.955 129.748C749.629 129.966 749.378 130.288 749.202 130.712C749.03 131.137 748.944 131.657 748.944 132.273C748.944 132.888 749.03 133.408 749.202 133.833C749.378 134.258 749.629 134.579 749.955 134.798C750.281 135.016 750.67 135.126 751.123 135.126C751.578 135.126 751.968 135.016 752.291 134.798C752.617 134.579 752.866 134.258 753.039 133.833C753.214 133.408 753.302 132.888 753.302 132.273ZM758.56 127.545L760.674 134.47H760.753L762.867 127.545H765.425L762.235 137H759.192L756.002 127.545H758.56ZM767.079 137H764.623L767.813 127.545H770.855L774.045 137H771.589L769.368 129.928H769.294L767.079 137ZM766.751 133.279H771.884V135.015H766.751V133.279ZM775.063 137V127.545H777.348V135.144H781.281V137H775.063Z" fill="white"/>
<rect x="950" y="106" width="200" height="50" rx="25" fill="#2ECC71"/>
<path d="M1027.46 129H1023.97V119.545H1027.46C1028.42 119.545 1029.25 119.735 1029.94 120.113C1030.64 120.489 1031.18 121.03 1031.56 121.738C1031.94 122.443 1032.13 123.286 1032.13 124.268C1032.13 125.253 1031.94 126.099 1031.56 126.807C1031.19 127.515 1030.65 128.058 1029.95 128.437C1029.25 128.812 1028.42 129 1027.46 129ZM1026.25 127.052H1027.37C1027.9 127.052 1028.35 126.963 1028.72 126.784C1029.09 126.603 1029.36 126.309 1029.55 125.902C1029.74 125.493 1029.84 124.948 1029.84 124.268C1029.84 123.588 1029.74 123.046 1029.55 122.643C1029.36 122.237 1029.08 121.944 1028.71 121.766C1028.34 121.584 1027.88 121.494 1027.34 121.494H1026.25V127.052ZM1039.18 119.545H1041.46V125.644C1041.46 126.349 1041.3 126.963 1040.96 127.486C1040.62 128.006 1040.16 128.409 1039.56 128.695C1038.96 128.978 1038.26 129.12 1037.47 129.12C1036.66 129.12 1035.96 128.978 1035.36 128.695C1034.76 128.409 1034.29 128.006 1033.96 127.486C1033.63 126.963 1033.46 126.349 1033.46 125.644V119.545H1035.75V125.445C1035.75 125.772 1035.82 126.062 1035.96 126.318C1036.1 126.573 1036.31 126.773 1036.56 126.918C1036.82 127.063 1037.12 127.135 1037.47 127.135C1037.81 127.135 1038.11 127.063 1038.36 126.918C1038.62 126.773 1038.82 126.573 1038.97 126.318C1039.11 126.062 1039.18 125.772 1039.18 125.445V119.545ZM1042.9 129V119.545H1046.8C1047.51 119.545 1048.12 119.673 1048.63 119.929C1049.15 120.181 1049.55 120.544 1049.83 121.018C1050.11 121.489 1050.25 122.048 1050.25 122.694C1050.25 123.349 1050.11 123.906 1049.82 124.365C1049.53 124.821 1049.13 125.168 1048.6 125.408C1048.07 125.645 1047.45 125.764 1046.73 125.764H1044.26V123.963H1046.31C1046.65 123.963 1046.94 123.919 1047.17 123.83C1047.4 123.737 1047.58 123.599 1047.7 123.414C1047.82 123.226 1047.88 122.986 1047.88 122.694C1047.88 122.402 1047.82 122.16 1047.7 121.969C1047.58 121.775 1047.4 121.631 1047.17 121.535C1046.94 121.437 1046.65 121.387 1046.31 121.387H1045.18V129H1042.9ZM1048.22 124.679L1050.57 129H1048.08L1045.77 124.679H1048.22ZM1053.79 119.545V129H1051.5V119.545H1053.79ZM1063.27 119.545V129H1061.33L1057.57 123.543H1057.51V129H1055.22V119.545H1057.19L1060.91 124.993H1060.99V119.545H1063.27ZM1070.91 122.634C1070.86 122.44 1070.78 122.269 1070.68 122.121C1070.58 121.971 1070.45 121.843 1070.31 121.738C1070.16 121.634 1069.99 121.555 1069.8 121.503C1069.61 121.447 1069.4 121.42 1069.17 121.42C1068.71 121.42 1068.31 121.531 1067.98 121.752C1067.65 121.974 1067.39 122.297 1067.21 122.722C1067.03 123.143 1066.94 123.656 1066.94 124.259C1066.94 124.865 1067.02 125.382 1067.2 125.81C1067.37 126.238 1067.63 126.564 1067.96 126.789C1068.29 127.013 1068.7 127.126 1069.17 127.126C1069.59 127.126 1069.94 127.058 1070.23 126.923C1070.52 126.784 1070.75 126.589 1070.9 126.336C1071.05 126.084 1071.12 125.787 1071.12 125.445L1071.55 125.496H1069.25V123.83H1073.32V125.081C1073.32 125.927 1073.14 126.652 1072.78 127.255C1072.43 127.858 1071.94 128.321 1071.31 128.645C1070.68 128.968 1069.96 129.129 1069.15 129.129C1068.25 129.129 1067.46 128.934 1066.77 128.543C1066.09 128.152 1065.56 127.595 1065.18 126.872C1064.8 126.145 1064.6 125.284 1064.6 124.287C1064.6 123.511 1064.72 122.823 1064.95 122.223C1065.18 121.62 1065.5 121.109 1065.92 120.69C1066.33 120.272 1066.81 119.955 1067.36 119.739C1067.9 119.524 1068.49 119.416 1069.12 119.416C1069.67 119.416 1070.18 119.495 1070.65 119.652C1071.13 119.809 1071.54 120.03 1071.91 120.316C1072.27 120.603 1072.57 120.943 1072.8 121.337C1073.03 121.731 1073.17 122.163 1073.22 122.634H1070.91ZM1001.24 135.545H1004.07L1006.47 141.399H1006.58L1008.98 135.545H1011.81V145H1009.58V139.192H1009.5L1007.23 144.94H1005.81L1003.54 139.16H1003.46V145H1001.24V135.545ZM1015.28 145H1012.82L1016.01 135.545H1019.05L1022.24 145H1019.79L1017.57 137.928H1017.49L1015.28 145ZM1014.95 141.279H1020.08V143.015H1014.95V141.279ZM1025.55 135.545V145H1023.26V135.545H1025.55ZM1035.03 135.545V145H1033.09L1029.33 139.543H1029.27V145H1026.98V135.545H1028.95L1032.67 140.993H1032.75V135.545H1035.03ZM1036.16 137.401V135.545H1044.15V137.401H1041.28V145H1039.03V137.401H1036.16ZM1045.26 145V135.545H1051.86V137.401H1047.55V139.34H1051.52V141.201H1047.55V143.144H1051.86V145H1045.26ZM1061.33 135.545V145H1059.39L1055.63 139.543H1055.57V145H1053.29V135.545H1055.25L1058.97 140.993H1059.05V135.545H1061.33ZM1064.81 145H1062.36L1065.55 135.545H1068.59L1071.78 145H1069.33L1067.1 137.928H1067.03L1064.81 145ZM1064.49 141.279H1069.62V143.015H1064.49V141.279ZM1080.85 135.545V145H1078.91L1075.14 139.543H1075.08V145H1072.8V135.545H1074.77L1078.49 140.993H1078.57V135.545H1080.85ZM1090.86 138.971H1088.56C1088.53 138.734 1088.46 138.52 1088.37 138.329C1088.27 138.138 1088.15 137.975 1087.99 137.84C1087.83 137.704 1087.65 137.601 1087.43 137.531C1087.22 137.457 1086.98 137.42 1086.72 137.42C1086.26 137.42 1085.87 137.532 1085.54 137.757C1085.21 137.981 1084.95 138.306 1084.78 138.731C1084.6 139.156 1084.51 139.67 1084.51 140.273C1084.51 140.901 1084.6 141.427 1084.78 141.852C1084.96 142.273 1085.22 142.592 1085.54 142.807C1085.87 143.02 1086.26 143.126 1086.71 143.126C1086.96 143.126 1087.19 143.093 1087.4 143.029C1087.61 142.964 1087.79 142.87 1087.95 142.747C1088.11 142.621 1088.24 142.469 1088.34 142.29C1088.44 142.109 1088.52 141.904 1088.56 141.676L1090.86 141.69C1090.82 142.109 1090.7 142.521 1090.5 142.927C1090.3 143.333 1090.02 143.704 1089.67 144.04C1089.32 144.372 1088.89 144.637 1088.39 144.834C1087.89 145.031 1087.31 145.129 1086.66 145.129C1085.81 145.129 1085.04 144.942 1084.36 144.566C1083.69 144.187 1083.16 143.637 1082.77 142.913C1082.38 142.19 1082.18 141.31 1082.18 140.273C1082.18 139.232 1082.38 138.351 1082.78 137.627C1083.17 136.904 1083.71 136.355 1084.39 135.979C1085.06 135.604 1085.82 135.416 1086.66 135.416C1087.24 135.416 1087.77 135.496 1088.25 135.656C1088.74 135.813 1089.17 136.044 1089.53 136.349C1089.9 136.65 1090.2 137.021 1090.44 137.461C1090.67 137.901 1090.81 138.405 1090.86 138.971ZM1092.17 145V135.545H1098.76V137.401H1094.46V139.34H1098.43V141.201H1094.46V143.144H1098.76V145H1092.17Z" fill="white"/>
<rect x="1273" y="106" width="200" height="50" rx="25" fill="#16A085"/>
<path d="M1324.24 119.545H1327.07L1329.47 125.399H1329.58L1331.98 119.545H1334.81V129H1332.58V123.192H1332.5L1330.23 128.94H1328.81L1326.54 123.16H1326.46V129H1324.24V119.545ZM1338.28 129H1335.82L1339.01 119.545H1342.05L1345.24 129H1342.79L1340.57 121.928H1340.49L1338.28 129ZM1337.95 125.279H1343.08V127.015H1337.95V125.279ZM1348.55 119.545V129H1346.26V119.545H1348.55ZM1358.03 119.545V129H1356.09L1352.33 123.543H1352.27V129H1349.98V119.545H1351.95L1355.67 124.993H1355.75V119.545H1358.03ZM1359.16 121.401V119.545H1367.15V121.401H1364.28V129H1362.03V121.401H1359.16ZM1368.26 129V119.545H1374.86V121.401H1370.55V123.34H1374.52V125.201H1370.55V127.144H1374.86V129H1368.26ZM1384.33 119.545V129H1382.39L1378.63 123.543H1378.57V129H1376.29V119.545H1378.25L1381.97 124.993H1382.05V119.545H1384.33ZM1387.81 129H1385.36L1388.55 119.545H1391.59L1394.78 129H1392.33L1390.1 121.928H1390.03L1387.81 129ZM1387.49 125.279H1392.62V127.015H1387.49V125.279ZM1403.85 119.545V129H1401.91L1398.14 123.543H1398.08V129H1395.8V119.545H1397.77L1401.49 124.993H1401.57V119.545H1403.85ZM1413.86 122.971H1411.56C1411.53 122.734 1411.46 122.52 1411.37 122.329C1411.27 122.138 1411.15 121.975 1410.99 121.84C1410.83 121.704 1410.65 121.601 1410.43 121.531C1410.22 121.457 1409.98 121.42 1409.72 121.42C1409.26 121.42 1408.87 121.532 1408.54 121.757C1408.21 121.981 1407.95 122.306 1407.78 122.731C1407.6 123.156 1407.51 123.67 1407.51 124.273C1407.51 124.901 1407.6 125.427 1407.78 125.852C1407.96 126.273 1408.22 126.592 1408.54 126.807C1408.87 127.02 1409.26 127.126 1409.71 127.126C1409.96 127.126 1410.19 127.093 1410.4 127.029C1410.61 126.964 1410.79 126.87 1410.95 126.747C1411.11 126.621 1411.24 126.469 1411.34 126.29C1411.44 126.109 1411.52 125.904 1411.56 125.676L1413.86 125.69C1413.82 126.109 1413.7 126.521 1413.5 126.927C1413.3 127.333 1413.02 127.704 1412.67 128.04C1412.32 128.372 1411.89 128.637 1411.39 128.834C1410.89 129.031 1410.31 129.129 1409.66 129.129C1408.81 129.129 1408.04 128.942 1407.36 128.566C1406.69 128.187 1406.16 127.637 1405.77 126.913C1405.38 126.19 1405.18 125.31 1405.18 124.273C1405.18 123.232 1405.38 122.351 1405.78 121.627C1406.17 120.904 1406.71 120.355 1407.39 119.979C1408.06 119.604 1408.82 119.416 1409.66 119.416C1410.24 119.416 1410.77 119.496 1411.25 119.656C1411.74 119.813 1412.17 120.044 1412.53 120.349C1412.9 120.65 1413.2 121.021 1413.44 121.461C1413.67 121.901 1413.81 122.405 1413.86 122.971ZM1415.17 129V119.545H1421.76V121.401H1417.46V123.34H1421.43V125.201H1417.46V127.144H1421.76V129H1415.17ZM1343.54 145V135.545H1349.99V137.401H1345.82V139.34H1349.58V141.201H1345.82V145H1343.54ZM1353.43 135.545V145H1351.14V135.545H1353.43ZM1362.91 135.545V145H1360.97L1357.21 139.543H1357.15V145H1354.86V135.545H1356.83L1360.55 140.993H1360.63V135.545H1362.91ZM1366.63 135.545V145H1364.35V135.545H1366.63ZM1373.18 138.38C1373.15 138.041 1373.01 137.778 1372.77 137.591C1372.53 137.4 1372.18 137.304 1371.74 137.304C1371.44 137.304 1371.19 137.343 1371 137.42C1370.8 137.497 1370.65 137.603 1370.55 137.738C1370.46 137.871 1370.41 138.023 1370.4 138.195C1370.4 138.337 1370.42 138.462 1370.49 138.569C1370.55 138.677 1370.64 138.772 1370.76 138.855C1370.89 138.935 1371.03 139.006 1371.21 139.068C1371.38 139.129 1371.57 139.183 1371.79 139.229L1372.6 139.414C1373.07 139.516 1373.48 139.651 1373.84 139.82C1374.2 139.99 1374.5 140.191 1374.74 140.425C1374.99 140.659 1375.17 140.928 1375.3 141.233C1375.43 141.538 1375.49 141.879 1375.49 142.258C1375.49 142.855 1375.34 143.367 1375.04 143.795C1374.74 144.223 1374.31 144.551 1373.75 144.778C1373.2 145.006 1372.52 145.12 1371.74 145.12C1370.95 145.12 1370.26 145.002 1369.67 144.765C1369.08 144.528 1368.62 144.167 1368.3 143.684C1367.97 143.201 1367.8 142.59 1367.79 141.852H1369.98C1370 142.156 1370.08 142.41 1370.23 142.613C1370.37 142.816 1370.57 142.97 1370.82 143.075C1371.08 143.18 1371.37 143.232 1371.71 143.232C1372.02 143.232 1372.28 143.19 1372.49 143.107C1372.71 143.024 1372.88 142.909 1373 142.761C1373.11 142.613 1373.17 142.444 1373.18 142.253C1373.17 142.075 1373.12 141.922 1373.01 141.796C1372.9 141.667 1372.74 141.556 1372.51 141.464C1372.29 141.368 1372.01 141.281 1371.66 141.201L1370.67 140.97C1369.86 140.782 1369.21 140.479 1368.74 140.06C1368.27 139.639 1368.04 139.069 1368.04 138.352C1368.04 137.768 1368.19 137.255 1368.51 136.815C1368.83 136.375 1369.26 136.032 1369.83 135.786C1370.39 135.539 1371.02 135.416 1371.74 135.416C1372.47 135.416 1373.11 135.541 1373.65 135.79C1374.19 136.036 1374.61 136.383 1374.91 136.829C1375.21 137.275 1375.36 137.792 1375.36 138.38H1373.18ZM1376.65 145V135.545H1378.93V139.34H1382.66V135.545H1384.94V145H1382.66V141.201H1378.93V145H1376.65ZM1386.37 145V135.545H1392.97V137.401H1388.66V139.34H1392.63V141.201H1388.66V143.144H1392.97V145H1386.37ZM1397.89 145H1394.4V135.545H1397.89C1398.85 135.545 1399.68 135.735 1400.37 136.113C1401.07 136.489 1401.61 137.03 1401.99 137.738C1402.37 138.443 1402.56 139.286 1402.56 140.268C1402.56 141.253 1402.37 142.099 1401.99 142.807C1401.61 143.515 1401.08 144.058 1400.38 144.437C1399.68 144.812 1398.85 145 1397.89 145ZM1396.68 143.052H1397.8C1398.33 143.052 1398.78 142.963 1399.15 142.784C1399.52 142.603 1399.79 142.309 1399.98 141.902C1400.17 141.493 1400.27 140.948 1400.27 140.268C1400.27 139.588 1400.17 139.046 1399.98 138.643C1399.79 138.237 1399.51 137.944 1399.14 137.766C1398.77 137.584 1398.31 137.494 1397.77 137.494H1396.68V143.052Z" fill="white"/>
<path d="M1154 129.5C1153.17 129.5 1152.5 130.172 1152.5 131C1152.5 131.828 1153.17 132.5 1154 132.5V131V129.5ZM1270.06 132.061C1270.65 131.475 1270.65 130.525 1270.06 129.939L1260.51 120.393C1259.93 119.808 1258.98 119.808 1258.39 120.393C1257.81 120.979 1257.81 121.929 1258.39 122.515L1266.88 131L1258.39 139.485C1257.81 140.071 1257.81 141.021 1258.39 141.607C1258.98 142.192 1259.93 142.192 1260.51 141.607L1270.06 132.061ZM1154 131V132.5H1269V131V129.5H1154V131Z" fill="#2ECC71"/>
<rect x="627" y="328" width="200" height="50" rx="25" fill="#C0392B"/>
<path d="M700.3 352.971H697.992C697.961 352.734 697.898 352.52 697.803 352.329C697.707 352.138 697.581 351.975 697.424 351.84C697.267 351.704 697.081 351.601 696.865 351.531C696.653 351.457 696.418 351.42 696.159 351.42C695.7 351.42 695.305 351.532 694.973 351.757C694.643 351.981 694.389 352.306 694.211 352.731C694.035 353.156 693.948 353.67 693.948 354.273C693.948 354.901 694.037 355.427 694.216 355.852C694.397 356.273 694.651 356.592 694.977 356.807C695.307 357.02 695.696 357.126 696.145 357.126C696.398 357.126 696.627 357.093 696.833 357.029C697.042 356.964 697.225 356.87 697.382 356.747C697.542 356.621 697.673 356.469 697.775 356.29C697.879 356.109 697.952 355.904 697.992 355.676L700.3 355.69C700.26 356.109 700.138 356.521 699.935 356.927C699.735 357.333 699.46 357.704 699.109 358.04C698.758 358.372 698.33 358.637 697.826 358.834C697.324 359.031 696.748 359.129 696.099 359.129C695.243 359.129 694.477 358.942 693.8 358.566C693.126 358.187 692.594 357.637 692.203 356.913C691.812 356.19 691.616 355.31 691.616 354.273C691.616 353.232 691.815 352.351 692.212 351.627C692.609 350.904 693.146 350.355 693.823 349.979C694.5 349.604 695.259 349.416 696.099 349.416C696.671 349.416 697.201 349.496 697.687 349.656C698.173 349.813 698.601 350.044 698.97 350.349C699.34 350.65 699.64 351.021 699.871 351.461C700.102 351.901 700.245 352.405 700.3 352.971ZM703.412 359H700.956L704.146 349.545H707.188L710.378 359H707.922L705.701 351.928H705.627L703.412 359ZM703.084 355.279H708.217V357.015H703.084V355.279ZM719.442 349.545V359H717.503L713.741 353.543H713.681V359H711.396V349.545H713.362L717.083 354.993H717.162V349.545H719.442ZM729.461 352.971H727.153C727.122 352.734 727.059 352.52 726.964 352.329C726.868 352.138 726.742 351.975 726.585 351.84C726.428 351.704 726.242 351.601 726.027 351.531C725.814 351.457 725.579 351.42 725.32 351.42C724.862 351.42 724.466 351.532 724.134 351.757C723.804 351.981 723.551 352.306 723.372 352.731C723.197 353.156 723.109 353.67 723.109 354.273C723.109 354.901 723.198 355.427 723.377 355.852C723.558 356.273 723.812 356.592 724.138 356.807C724.468 357.02 724.857 357.126 725.306 357.126C725.559 357.126 725.788 357.093 725.994 357.029C726.203 356.964 726.387 356.87 726.544 356.747C726.704 356.621 726.834 356.469 726.936 356.29C727.041 356.109 727.113 355.904 727.153 355.676L729.461 355.69C729.421 356.109 729.3 356.521 729.096 356.927C728.896 357.333 728.621 357.704 728.27 358.04C727.919 358.372 727.491 358.637 726.987 358.834C726.485 359.031 725.91 359.129 725.26 359.129C724.405 359.129 723.638 358.942 722.961 358.566C722.287 358.187 721.755 357.637 721.364 356.913C720.973 356.19 720.778 355.31 720.778 354.273C720.778 353.232 720.976 352.351 721.373 351.627C721.77 350.904 722.307 350.355 722.984 349.979C723.661 349.604 724.42 349.416 725.26 349.416C725.833 349.416 726.362 349.496 726.848 349.656C727.335 349.813 727.762 350.044 728.132 350.349C728.501 350.65 728.801 351.021 729.032 351.461C729.263 351.901 729.406 352.405 729.461 352.971ZM730.769 359V349.545H737.361V351.401H733.054V353.34H737.024V355.201H733.054V357.144H737.361V359H730.769ZM738.792 359V349.545H741.077V357.144H745.011V359H738.792ZM746.194 359V349.545H752.786V351.401H748.479V353.34H752.449V355.201H748.479V357.144H752.786V359H746.194ZM757.712 359H754.217V349.545H757.707C758.67 349.545 759.5 349.735 760.195 350.113C760.894 350.489 761.433 351.03 761.811 351.738C762.19 352.443 762.379 353.286 762.379 354.268C762.379 355.253 762.19 356.099 761.811 356.807C761.436 357.515 760.899 358.058 760.2 358.437C759.501 358.812 758.672 359 757.712 359ZM756.502 357.052H757.624C758.153 357.052 758.601 356.963 758.967 356.784C759.337 356.603 759.615 356.309 759.803 355.902C759.994 355.493 760.089 354.948 760.089 354.268C760.089 353.588 759.994 353.046 759.803 352.643C759.612 352.237 759.331 351.944 758.958 351.766C758.589 351.584 758.133 351.494 757.592 351.494H756.502V357.052Z" fill="white"/>
<path d="M508 129.5C507.172 129.5 506.5 130.172 506.5 131C506.5 131.828 507.172 132.5 508 132.5V131V129.5ZM624.061 132.061C624.646 131.475 624.646 130.525 624.061 129.939L614.515 120.393C613.929 119.808 612.979 119.808 612.393 120.393C611.808 120.979 611.808 121.929 612.393 122.515L620.879 131L612.393 139.485C611.808 140.071 611.808 141.021 612.393 141.607C612.979 142.192 613.929 142.192 614.515 141.607L624.061 132.061ZM508 131V132.5H623V131V129.5H508V131Z" fill="#3498DB"/>
<path d="M402.5 102C402.5 102.828 403.172 103.5 404 103.5C404.828 103.5 405.5 102.828 405.5 102H404H402.5ZM1371.94 103.061C1372.53 103.646 1373.47 103.646 1374.06 103.061L1383.61 93.5147C1384.19 92.9289 1384.19 91.9792 1383.61 91.3934C1383.02 90.8076 1382.07 90.8076 1381.49 91.3934L1373 99.8787L1364.51 91.3934C1363.93 90.8076 1362.98 90.8076 1362.39 91.3934C1361.81 91.9792 1361.81 92.9289 1362.39 93.5147L1371.94 103.061ZM404 102H405.5V26H404H402.5V102H404ZM428 2V3.5H1349V2V0.5H428V2ZM1373 26H1371.5V102H1373H1374.5V26H1373ZM1349 2V3.5C1361.43 3.5 1371.5 13.5736 1371.5 26H1373H1374.5C1374.5 11.9167 1363.08 0.5 1349 0.5V2ZM404 26H405.5C405.5 13.5736 415.574 3.5 428 3.5V2V0.5C413.917 0.5 402.5 11.9167 402.5 26H404Z" fill="#3498DB"/>
<path d="M405.5 160C405.5 159.172 404.828 158.5 404 158.5C403.172 158.5 402.5 159.172 402.5 160H404H405.5ZM725.939 325.061C726.525 325.646 727.475 325.646 728.061 325.061L737.607 315.515C738.192 314.929 738.192 313.979 737.607 313.393C737.021 312.808 736.071 312.808 735.485 313.393L727 321.879L718.515 313.393C717.929 312.808 716.979 312.808 716.393 313.393C715.808 313.979 715.808 314.929 716.393 315.515L725.939 325.061ZM404 160H402.5V218H404H405.5V160H404ZM428 242V243.5H703V242V240.5H428V242ZM727 266H725.5V324H727H728.5V266H727ZM703 242V243.5C715.426 243.5 725.5 253.574 725.5 266H727H728.5C728.5 251.917 717.083 240.5 703 240.5V242ZM404 218H402.5C402.5 232.083 413.917 243.5 428 243.5V242V240.5C415.574 240.5 405.5 230.426 405.5 218H404Z" fill="#3498DB"/>
<path d="M728.5 160C728.5 159.172 727.828 158.5 727 158.5C726.172 158.5 725.5 159.172 725.5 160H727H728.5ZM725.939 325.061C726.525 325.646 727.475 325.646 728.061 325.061L737.607 315.515C738.192 314.929 738.192 313.979 737.607 313.393C737.021 312.808 736.071 312.808 735.485 313.393L727 321.879L718.515 313.393C717.929 312.808 716.979 312.808 716.393 313.393C715.808 313.979 715.808 314.929 716.393 315.515L725.939 325.061ZM727 160H725.5V324H727H728.5V160H727Z" fill="#F39C12"/>
<path d="M1051.5 160C1051.5 159.172 1050.83 158.5 1050 158.5C1049.17 158.5 1048.5 159.172 1048.5 160H1050H1051.5ZM725.939 325.061C726.525 325.646 727.475 325.646 728.061 325.061L737.607 315.515C738.192 314.929 738.192 313.979 737.607 313.393C737.021 312.808 736.071 312.808 735.485 313.393L727 321.879L718.515 313.393C717.929 312.808 716.979 312.808 716.393 313.393C715.808 313.979 715.808 314.929 716.393 315.515L725.939 325.061ZM1050 160H1048.5V218H1050H1051.5V160H1050ZM1026 242V240.5H751V242V243.5H1026V242ZM727 266H725.5V324H727H728.5V266H727ZM751 242V240.5C736.917 240.5 725.5 251.917 725.5 266H727H728.5C728.5 253.574 738.574 243.5 751 243.5V242ZM1050 218H1048.5C1048.5 230.426 1038.43 240.5 1026 240.5V242V243.5C1040.08 243.5 1051.5 232.083 1051.5 218H1050Z" fill="#2ECC71"/>
<path d="M831 129.5C830.172 129.5 829.5 130.172 829.5 131C829.5 131.828 830.172 132.5 831 132.5V131V129.5ZM947.061 132.061C947.646 131.475 947.646 130.525 947.061 129.939L937.515 120.393C936.929 119.808 935.979 119.808 935.393 120.393C934.808 120.979 934.808 121.929 935.393 122.515L943.879 131L935.393 139.485C934.808 140.071 934.808 141.021 935.393 141.607C935.979 142.192 936.929 142.192 937.515 141.607L947.061 132.061ZM831 131V132.5H946V131V129.5H831V131Z" fill="#F39C12"/>
<rect y="81" width="200" height="100" rx="20" fill="#F2F2F2"/>
<path d="M46.6584 127.273V136H44.8686L41.3956 130.963H41.3402V136H39.2308V127.273H41.0462L44.4808 132.301H44.5533V127.273H46.6584ZM47.9847 136V127.273H54.07V128.986H50.0941V130.776H53.7589V132.493H50.0941V134.287H54.07V136H47.9847ZM57.4833 136L54.9435 127.273H57.2745L58.5913 132.991H58.6637L60.168 127.273H62.0685L63.5728 133.004H63.6452L64.9663 127.273H67.293L64.7575 136H62.7248L61.1523 130.707H61.0842L59.5117 136H57.4833ZM70.7425 127.273H73.3548L75.5707 132.676H75.6729L77.8888 127.273H80.5011V136H78.4471V130.639H78.3746L76.2781 135.945H74.9656L72.869 130.609H72.7965V136H70.7425V127.273ZM83.7045 136H81.4375L84.3821 127.273H87.1903L90.1349 136H87.8679L85.8182 129.472H85.75L83.7045 136ZM83.402 132.565H88.1406V134.168H83.402V132.565ZM93.1839 127.273V136H91.0746V127.273H93.1839ZM101.936 127.273V136H100.146L96.6729 130.963H96.6175V136H94.5082V127.273H96.3235L99.7582 132.301H99.8306V127.273H101.936ZM102.977 128.986V127.273H110.353V128.986H107.707V136H105.627V128.986H102.977ZM111.383 136V127.273H117.468V128.986H113.493V130.776H117.157V132.493H113.493V134.287H117.468V136H111.383ZM126.217 127.273V136H124.427L120.954 130.963H120.899V136H118.789V127.273H120.605L124.039 132.301H124.112V127.273H126.217ZM129.431 136H127.164L130.109 127.273H132.917L135.862 136H133.594L131.545 129.472H131.477L129.431 136ZM129.129 132.565H133.867V134.168H129.129V132.565ZM144.229 127.273V136H142.439L138.966 130.963H138.911V136H136.801V127.273H138.616L142.051 132.301H142.124V127.273H144.229ZM153.477 130.435H151.346C151.318 130.216 151.26 130.018 151.172 129.842C151.083 129.666 150.967 129.516 150.822 129.391C150.677 129.266 150.505 129.17 150.306 129.105C150.11 129.037 149.893 129.003 149.654 129.003C149.231 129.003 148.866 129.107 148.559 129.314C148.255 129.521 148.021 129.821 147.856 130.213C147.694 130.605 147.613 131.08 147.613 131.636C147.613 132.216 147.696 132.702 147.86 133.094C148.028 133.483 148.262 133.777 148.564 133.976C148.868 134.172 149.227 134.27 149.642 134.27C149.875 134.27 150.086 134.24 150.277 134.18C150.47 134.121 150.639 134.034 150.784 133.92C150.931 133.804 151.052 133.663 151.146 133.499C151.243 133.331 151.309 133.142 151.346 132.932L153.477 132.945C153.44 133.331 153.328 133.712 153.14 134.087C152.956 134.462 152.701 134.804 152.377 135.114C152.054 135.42 151.659 135.665 151.193 135.847C150.73 136.028 150.199 136.119 149.599 136.119C148.809 136.119 148.102 135.946 147.477 135.599C146.855 135.25 146.363 134.741 146.002 134.074C145.642 133.406 145.461 132.594 145.461 131.636C145.461 130.676 145.645 129.862 146.011 129.195C146.377 128.527 146.873 128.02 147.498 127.673C148.123 127.327 148.824 127.153 149.599 127.153C150.127 127.153 150.616 127.227 151.065 127.375C151.514 127.52 151.909 127.733 152.25 128.014C152.591 128.293 152.868 128.635 153.081 129.041C153.294 129.447 153.426 129.912 153.477 130.435ZM154.684 136V127.273H160.769V128.986H156.793V130.776H160.458V132.493H156.793V134.287H160.769V136H154.684Z" fill="black"/>
<path d="M204 129.5C203.172 129.5 202.5 130.172 202.5 131C202.5 131.828 203.172 132.5 204 132.5V131V129.5ZM301.061 132.061C301.646 131.475 301.646 130.525 301.061 129.939L291.515 120.393C290.929 119.808 289.979 119.808 289.393 120.393C288.808 120.979 288.808 121.929 289.393 122.515L297.879 131L289.393 139.485C288.808 140.071 288.808 141.021 289.393 141.607C289.979 142.192 290.929 142.192 291.515 141.607L301.061 132.061ZM204 131V132.5H206.88V131V129.5H204V131ZM210.72 131V132.5H216.48V131V129.5H210.72V131ZM220.32 131V132.5H226.08V131V129.5H220.32V131ZM229.92 131V132.5H235.68V131V129.5H229.92V131ZM239.52 131V132.5H245.28V131V129.5H239.52V131ZM249.12 131V132.5H254.88V131V129.5H249.12V131ZM258.72 131V132.5H264.48V131V129.5H258.72V131ZM268.32 131V132.5H274.08V131V129.5H268.32V131ZM277.92 131V132.5H283.68V131V129.5H277.92V131ZM287.52 131V132.5H293.28V131V129.5H287.52V131ZM297.12 131V132.5H300V131V129.5H297.12V131Z" fill="#CECCCC"/>
</svg>
