<svg width="1473" height="378" viewBox="0 0 1473 378" fill="none" xmlns="http://www.w3.org/2000/svg">
<rect x="304" y="105.5" width="200" height="50" rx="25" fill="#3498DB"/>
<path d="M345.6 136.5L342.849 127.045H345.374L346.801 133.241H346.879L348.509 127.045H350.568L352.197 133.255H352.276L353.707 127.045H356.228L353.481 136.5H351.279L349.575 130.766H349.501L347.798 136.5H345.6ZM358.188 136.5H355.732L358.922 127.045H361.965L365.155 136.5H362.699L360.478 129.428H360.404L358.188 136.5ZM357.861 132.779H362.994V134.515H357.861V132.779ZM368.458 127.045V136.5H366.173V127.045H368.458ZM369.583 128.901V127.045H377.574V128.901H374.707V136.5H372.454V128.901H369.583ZM381.483 136.5V127.045H388.075V128.901H383.768V130.84H387.738V132.701H383.768V134.644H388.075V136.5H381.483ZM391.653 127.045L393.768 133.97H393.846L395.96 127.045H398.518L395.328 136.5H392.286L389.096 127.045H391.653ZM400.172 136.5H397.716L400.906 127.045H403.948L407.138 136.5H404.682L402.462 129.428H402.388L400.172 136.5ZM399.844 132.779H404.978V134.515H399.844V132.779ZM408.156 136.5V127.045H410.441V134.644H414.374V136.5H408.156ZM421.277 127.045H423.558V133.144C423.558 133.849 423.39 134.463 423.055 134.986C422.719 135.506 422.251 135.909 421.651 136.195C421.051 136.478 420.354 136.62 419.56 136.62C418.757 136.62 418.055 136.478 417.455 136.195C416.855 135.909 416.388 135.506 416.056 134.986C415.724 134.463 415.557 133.849 415.557 133.144V127.045H417.843V132.945C417.843 133.272 417.913 133.562 418.055 133.818C418.2 134.073 418.401 134.273 418.66 134.418C418.918 134.563 419.218 134.635 419.56 134.635C419.901 134.635 420.2 134.563 420.455 134.418C420.714 134.273 420.916 134.073 421.06 133.818C421.205 133.562 421.277 133.272 421.277 132.945V127.045ZM427.035 136.5H424.579L427.769 127.045H430.811L434.001 136.5H431.545L429.325 129.428H429.251L427.035 136.5ZM426.707 132.779H431.841V134.515H426.707V132.779ZM433.529 128.901V127.045H441.52V128.901H438.654V136.5H436.401V128.901H433.529ZM444.922 127.045V136.5H442.636V127.045H444.922ZM455.28 131.773C455.28 132.813 455.08 133.695 454.68 134.418C454.28 135.141 453.738 135.691 453.055 136.066C452.375 136.442 451.611 136.629 450.765 136.629C449.915 136.629 449.151 136.44 448.471 136.061C447.79 135.683 447.25 135.134 446.85 134.413C446.453 133.69 446.255 132.81 446.255 131.773C446.255 130.732 446.453 129.851 446.85 129.127C447.25 128.404 447.79 127.855 448.471 127.479C449.151 127.104 449.915 126.916 450.765 126.916C451.611 126.916 452.375 127.104 453.055 127.479C453.738 127.855 454.28 128.404 454.68 129.127C455.08 129.851 455.28 130.732 455.28 131.773ZM452.944 131.773C452.944 131.157 452.856 130.637 452.681 130.212C452.508 129.788 452.259 129.466 451.933 129.248C451.61 129.029 451.22 128.92 450.765 128.92C450.313 128.92 449.923 129.029 449.597 129.248C449.271 129.466 449.02 129.788 448.844 130.212C448.672 130.637 448.586 131.157 448.586 131.773C448.586 132.388 448.672 132.908 448.844 133.333C449.02 133.758 449.271 134.079 449.597 134.298C449.923 134.516 450.313 134.626 450.765 134.626C451.22 134.626 451.61 134.516 451.933 134.298C452.259 134.079 452.508 133.758 452.681 133.333C452.856 132.908 452.944 132.388 452.944 131.773ZM464.661 127.045V136.5H462.722L458.959 131.043H458.899V136.5H456.614V127.045H458.581L462.301 132.493H462.38V127.045H464.661Z" fill="white"/>
<rect x="627" y="105.5" width="200" height="50" rx="25" fill="#F39C12"/>
<path d="M675.234 136.5L672.482 127.045H675.008L676.434 133.241H676.512L678.142 127.045H680.201L681.831 133.255H681.909L683.34 127.045H685.861L683.114 136.5H680.912L679.208 130.766H679.135L677.431 136.5H675.234ZM687.822 136.5H685.366L688.556 127.045H691.598L694.788 136.5H692.332L690.111 129.428H690.038L687.822 136.5ZM687.494 132.779H692.627V134.515H687.494V132.779ZM698.091 127.045V136.5H695.806V127.045H698.091ZM699.216 128.901V127.045H707.207V128.901H704.341V136.5H702.088V128.901H699.216ZM713.162 136.5H710.706L713.896 127.045H716.938L720.128 136.5H717.672L715.451 129.428H715.377L713.162 136.5ZM712.834 132.779H717.967V134.515H712.834V132.779ZM721.146 136.5V127.045H725.051C725.759 127.045 726.37 127.184 726.884 127.461C727.401 127.735 727.8 128.118 728.08 128.61C728.36 129.1 728.5 129.669 728.5 130.319C728.5 130.971 728.357 131.542 728.07 132.031C727.787 132.518 727.383 132.895 726.856 133.162C726.33 133.43 725.705 133.564 724.982 133.564H722.572V131.763H724.557C724.902 131.763 725.19 131.703 725.421 131.583C725.654 131.463 725.831 131.296 725.951 131.08C726.072 130.862 726.132 130.608 726.132 130.319C726.132 130.026 726.072 129.774 725.951 129.561C725.831 129.346 725.654 129.18 725.421 129.063C725.187 128.946 724.899 128.887 724.557 128.887H723.431V136.5H721.146ZM729.626 136.5V127.045H733.532C734.24 127.045 734.851 127.184 735.364 127.461C735.882 127.735 736.28 128.118 736.56 128.61C736.84 129.1 736.98 129.669 736.98 130.319C736.98 130.971 736.837 131.542 736.551 132.031C736.268 132.518 735.863 132.895 735.337 133.162C734.811 133.43 734.186 133.564 733.462 133.564H731.053V131.763H733.038C733.382 131.763 733.67 131.703 733.901 131.583C734.135 131.463 734.312 131.296 734.432 131.08C734.552 130.862 734.612 130.608 734.612 130.319C734.612 130.026 734.552 129.774 734.432 129.561C734.312 129.346 734.135 129.18 733.901 129.063C733.667 128.946 733.379 128.887 733.038 128.887H731.911V136.5H729.626ZM738.107 136.5V127.045H742.012C742.72 127.045 743.331 127.173 743.845 127.429C744.362 127.681 744.761 128.044 745.041 128.518C745.321 128.989 745.461 129.548 745.461 130.194C745.461 130.849 745.318 131.406 745.031 131.865C744.745 132.321 744.339 132.668 743.813 132.908C743.286 133.145 742.663 133.264 741.943 133.264H739.473V131.463H741.518C741.863 131.463 742.151 131.419 742.382 131.33C742.615 131.237 742.792 131.099 742.912 130.914C743.032 130.726 743.092 130.486 743.092 130.194C743.092 129.902 743.032 129.66 742.912 129.469C742.792 129.275 742.615 129.131 742.382 129.035C742.148 128.937 741.86 128.887 741.518 128.887H740.392V136.5H738.107ZM743.429 132.179L745.784 136.5H743.291L740.983 132.179H743.429ZM755.638 131.773C755.638 132.813 755.438 133.695 755.038 134.418C754.638 135.141 754.096 135.691 753.413 136.066C752.732 136.442 751.969 136.629 751.123 136.629C750.273 136.629 749.509 136.44 748.828 136.061C748.148 135.683 747.608 135.134 747.208 134.413C746.811 133.69 746.613 132.81 746.613 131.773C746.613 130.732 746.811 129.851 747.208 129.127C747.608 128.404 748.148 127.855 748.828 127.479C749.509 127.104 750.273 126.916 751.123 126.916C751.969 126.916 752.732 127.104 753.413 127.479C754.096 127.855 754.638 128.404 755.038 129.127C755.438 129.851 755.638 130.732 755.638 131.773ZM753.302 131.773C753.302 131.157 753.214 130.637 753.039 130.212C752.866 129.788 752.617 129.466 752.291 129.248C751.968 129.029 751.578 128.92 751.123 128.92C750.67 128.92 750.281 129.029 749.955 129.248C749.629 129.466 749.378 129.788 749.202 130.212C749.03 130.637 748.944 131.157 748.944 131.773C748.944 132.388 749.03 132.908 749.202 133.333C749.378 133.758 749.629 134.079 749.955 134.298C750.281 134.516 750.67 134.626 751.123 134.626C751.578 134.626 751.968 134.516 752.291 134.298C752.617 134.079 752.866 133.758 753.039 133.333C753.214 132.908 753.302 132.388 753.302 131.773ZM758.56 127.045L760.674 133.97H760.753L762.867 127.045H765.425L762.235 136.5H759.192L756.002 127.045H758.56ZM767.079 136.5H764.623L767.813 127.045H770.855L774.045 136.5H771.589L769.368 129.428H769.294L767.079 136.5ZM766.751 132.779H771.884V134.515H766.751V132.779ZM775.063 136.5V127.045H777.348V134.644H781.281V136.5H775.063Z" fill="white"/>
<rect x="950" y="105.5" width="200" height="50" rx="25" fill="#2ECC71"/>
<path d="M1027.46 128.5H1023.97V119.045H1027.46C1028.42 119.045 1029.25 119.235 1029.94 119.613C1030.64 119.989 1031.18 120.53 1031.56 121.238C1031.94 121.943 1032.13 122.786 1032.13 123.768C1032.13 124.753 1031.94 125.599 1031.56 126.307C1031.19 127.015 1030.65 127.558 1029.95 127.937C1029.25 128.312 1028.42 128.5 1027.46 128.5ZM1026.25 126.552H1027.37C1027.9 126.552 1028.35 126.463 1028.72 126.284C1029.09 126.103 1029.36 125.809 1029.55 125.402C1029.74 124.993 1029.84 124.448 1029.84 123.768C1029.84 123.088 1029.74 122.546 1029.55 122.143C1029.36 121.737 1029.08 121.444 1028.71 121.266C1028.34 121.084 1027.88 120.994 1027.34 120.994H1026.25V126.552ZM1039.18 119.045H1041.46V125.144C1041.46 125.849 1041.3 126.463 1040.96 126.986C1040.62 127.506 1040.16 127.909 1039.56 128.195C1038.96 128.478 1038.26 128.62 1037.47 128.62C1036.66 128.62 1035.96 128.478 1035.36 128.195C1034.76 127.909 1034.29 127.506 1033.96 126.986C1033.63 126.463 1033.46 125.849 1033.46 125.144V119.045H1035.75V124.945C1035.75 125.272 1035.82 125.562 1035.96 125.818C1036.1 126.073 1036.31 126.273 1036.56 126.418C1036.82 126.563 1037.12 126.635 1037.47 126.635C1037.81 126.635 1038.11 126.563 1038.36 126.418C1038.62 126.273 1038.82 126.073 1038.97 125.818C1039.11 125.562 1039.18 125.272 1039.18 124.945V119.045ZM1042.9 128.5V119.045H1046.8C1047.51 119.045 1048.12 119.173 1048.63 119.429C1049.15 119.681 1049.55 120.044 1049.83 120.518C1050.11 120.989 1050.25 121.548 1050.25 122.194C1050.25 122.849 1050.11 123.406 1049.82 123.865C1049.53 124.321 1049.13 124.668 1048.6 124.908C1048.07 125.145 1047.45 125.264 1046.73 125.264H1044.26V123.463H1046.31C1046.65 123.463 1046.94 123.419 1047.17 123.33C1047.4 123.237 1047.58 123.099 1047.7 122.914C1047.82 122.726 1047.88 122.486 1047.88 122.194C1047.88 121.902 1047.82 121.66 1047.7 121.469C1047.58 121.275 1047.4 121.131 1047.17 121.035C1046.94 120.937 1046.65 120.887 1046.31 120.887H1045.18V128.5H1042.9ZM1048.22 124.179L1050.57 128.5H1048.08L1045.77 124.179H1048.22ZM1053.79 119.045V128.5H1051.5V119.045H1053.79ZM1063.27 119.045V128.5H1061.33L1057.57 123.043H1057.51V128.5H1055.22V119.045H1057.19L1060.91 124.493H1060.99V119.045H1063.27ZM1070.91 122.134C1070.86 121.94 1070.78 121.769 1070.68 121.621C1070.58 121.471 1070.45 121.343 1070.31 121.238C1070.16 121.134 1069.99 121.055 1069.8 121.003C1069.61 120.947 1069.4 120.92 1069.17 120.92C1068.71 120.92 1068.31 121.031 1067.98 121.252C1067.65 121.474 1067.39 121.797 1067.21 122.222C1067.03 122.643 1066.94 123.156 1066.94 123.759C1066.94 124.365 1067.02 124.882 1067.2 125.31C1067.37 125.738 1067.63 126.064 1067.96 126.289C1068.29 126.513 1068.7 126.626 1069.17 126.626C1069.59 126.626 1069.94 126.558 1070.23 126.423C1070.52 126.284 1070.75 126.089 1070.9 125.836C1071.05 125.584 1071.12 125.287 1071.12 124.945L1071.55 124.996H1069.25V123.33H1073.32V124.581C1073.32 125.427 1073.14 126.152 1072.78 126.755C1072.43 127.358 1071.94 127.821 1071.31 128.145C1070.68 128.468 1069.96 128.629 1069.15 128.629C1068.25 128.629 1067.46 128.434 1066.77 128.043C1066.09 127.652 1065.56 127.095 1065.18 126.372C1064.8 125.645 1064.6 124.784 1064.6 123.787C1064.6 123.011 1064.72 122.323 1064.95 121.723C1065.18 121.12 1065.5 120.609 1065.92 120.19C1066.33 119.772 1066.81 119.455 1067.36 119.239C1067.9 119.024 1068.49 118.916 1069.12 118.916C1069.67 118.916 1070.18 118.995 1070.65 119.152C1071.13 119.309 1071.54 119.53 1071.91 119.816C1072.27 120.103 1072.57 120.443 1072.8 120.837C1073.03 121.231 1073.17 121.663 1073.22 122.134H1070.91ZM1001.24 135.045H1004.07L1006.47 140.899H1006.58L1008.98 135.045H1011.81V144.5H1009.58V138.692H1009.5L1007.23 144.44H1005.81L1003.54 138.66H1003.46V144.5H1001.24V135.045ZM1015.28 144.5H1012.82L1016.01 135.045H1019.05L1022.24 144.5H1019.79L1017.57 137.428H1017.49L1015.28 144.5ZM1014.95 140.779H1020.08V142.515H1014.95V140.779ZM1025.55 135.045V144.5H1023.26V135.045H1025.55ZM1035.03 135.045V144.5H1033.09L1029.33 139.043H1029.27V144.5H1026.98V135.045H1028.95L1032.67 140.493H1032.75V135.045H1035.03ZM1036.16 136.901V135.045H1044.15V136.901H1041.28V144.5H1039.03V136.901H1036.16ZM1045.26 144.5V135.045H1051.86V136.901H1047.55V138.84H1051.52V140.701H1047.55V142.644H1051.86V144.5H1045.26ZM1061.33 135.045V144.5H1059.39L1055.63 139.043H1055.57V144.5H1053.29V135.045H1055.25L1058.97 140.493H1059.05V135.045H1061.33ZM1064.81 144.5H1062.36L1065.55 135.045H1068.59L1071.78 144.5H1069.33L1067.1 137.428H1067.03L1064.81 144.5ZM1064.49 140.779H1069.62V142.515H1064.49V140.779ZM1080.85 135.045V144.5H1078.91L1075.14 139.043H1075.08V144.5H1072.8V135.045H1074.77L1078.49 140.493H1078.57V135.045H1080.85ZM1090.86 138.471H1088.56C1088.53 138.234 1088.46 138.02 1088.37 137.829C1088.27 137.638 1088.15 137.475 1087.99 137.34C1087.83 137.204 1087.65 137.101 1087.43 137.031C1087.22 136.957 1086.98 136.92 1086.72 136.92C1086.26 136.92 1085.87 137.032 1085.54 137.257C1085.21 137.481 1084.95 137.806 1084.78 138.231C1084.6 138.656 1084.51 139.17 1084.51 139.773C1084.51 140.401 1084.6 140.927 1084.78 141.352C1084.96 141.773 1085.22 142.092 1085.54 142.307C1085.87 142.52 1086.26 142.626 1086.71 142.626C1086.96 142.626 1087.19 142.593 1087.4 142.529C1087.61 142.464 1087.79 142.37 1087.95 142.247C1088.11 142.121 1088.24 141.969 1088.34 141.79C1088.44 141.609 1088.52 141.404 1088.56 141.176L1090.86 141.19C1090.82 141.609 1090.7 142.021 1090.5 142.427C1090.3 142.833 1090.02 143.204 1089.67 143.54C1089.32 143.872 1088.89 144.137 1088.39 144.334C1087.89 144.531 1087.31 144.629 1086.66 144.629C1085.81 144.629 1085.04 144.442 1084.36 144.066C1083.69 143.687 1083.16 143.137 1082.77 142.413C1082.38 141.69 1082.18 140.81 1082.18 139.773C1082.18 138.732 1082.38 137.851 1082.78 137.127C1083.17 136.404 1083.71 135.855 1084.39 135.479C1085.06 135.104 1085.82 134.916 1086.66 134.916C1087.24 134.916 1087.77 134.996 1088.25 135.156C1088.74 135.313 1089.17 135.544 1089.53 135.849C1089.9 136.15 1090.2 136.521 1090.44 136.961C1090.67 137.401 1090.81 137.905 1090.86 138.471ZM1092.17 144.5V135.045H1098.76V136.901H1094.46V138.84H1098.43V140.701H1094.46V142.644H1098.76V144.5H1092.17Z" fill="white"/>
<rect x="1273" y="105.5" width="200" height="50" rx="25" fill="#16A085"/>
<path d="M1324.24 119.045H1327.07L1329.47 124.899H1329.58L1331.98 119.045H1334.81V128.5H1332.58V122.692H1332.5L1330.23 128.44H1328.81L1326.54 122.66H1326.46V128.5H1324.24V119.045ZM1338.28 128.5H1335.82L1339.01 119.045H1342.05L1345.24 128.5H1342.79L1340.57 121.428H1340.49L1338.28 128.5ZM1337.95 124.779H1343.08V126.515H1337.95V124.779ZM1348.55 119.045V128.5H1346.26V119.045H1348.55ZM1358.03 119.045V128.5H1356.09L1352.33 123.043H1352.27V128.5H1349.98V119.045H1351.95L1355.67 124.493H1355.75V119.045H1358.03ZM1359.16 120.901V119.045H1367.15V120.901H1364.28V128.5H1362.03V120.901H1359.16ZM1368.26 128.5V119.045H1374.86V120.901H1370.55V122.84H1374.52V124.701H1370.55V126.644H1374.86V128.5H1368.26ZM1384.33 119.045V128.5H1382.39L1378.63 123.043H1378.57V128.5H1376.29V119.045H1378.25L1381.97 124.493H1382.05V119.045H1384.33ZM1387.81 128.5H1385.36L1388.55 119.045H1391.59L1394.78 128.5H1392.33L1390.1 121.428H1390.03L1387.81 128.5ZM1387.49 124.779H1392.62V126.515H1387.49V124.779ZM1403.85 119.045V128.5H1401.91L1398.14 123.043H1398.08V128.5H1395.8V119.045H1397.77L1401.49 124.493H1401.57V119.045H1403.85ZM1413.86 122.471H1411.56C1411.53 122.234 1411.46 122.02 1411.37 121.829C1411.27 121.638 1411.15 121.475 1410.99 121.34C1410.83 121.204 1410.65 121.101 1410.43 121.031C1410.22 120.957 1409.98 120.92 1409.72 120.92C1409.26 120.92 1408.87 121.032 1408.54 121.257C1408.21 121.481 1407.95 121.806 1407.78 122.231C1407.6 122.656 1407.51 123.17 1407.51 123.773C1407.51 124.401 1407.6 124.927 1407.78 125.352C1407.96 125.773 1408.22 126.092 1408.54 126.307C1408.87 126.52 1409.26 126.626 1409.71 126.626C1409.96 126.626 1410.19 126.593 1410.4 126.529C1410.61 126.464 1410.79 126.37 1410.95 126.247C1411.11 126.121 1411.24 125.969 1411.34 125.79C1411.44 125.609 1411.52 125.404 1411.56 125.176L1413.86 125.19C1413.82 125.609 1413.7 126.021 1413.5 126.427C1413.3 126.833 1413.02 127.204 1412.67 127.54C1412.32 127.872 1411.89 128.137 1411.39 128.334C1410.89 128.531 1410.31 128.629 1409.66 128.629C1408.81 128.629 1408.04 128.442 1407.36 128.066C1406.69 127.687 1406.16 127.137 1405.77 126.413C1405.38 125.69 1405.18 124.81 1405.18 123.773C1405.18 122.732 1405.38 121.851 1405.78 121.127C1406.17 120.404 1406.71 119.855 1407.39 119.479C1408.06 119.104 1408.82 118.916 1409.66 118.916C1410.24 118.916 1410.77 118.996 1411.25 119.156C1411.74 119.313 1412.17 119.544 1412.53 119.849C1412.9 120.15 1413.2 120.521 1413.44 120.961C1413.67 121.401 1413.81 121.905 1413.86 122.471ZM1415.17 128.5V119.045H1421.76V120.901H1417.46V122.84H1421.43V124.701H1417.46V126.644H1421.76V128.5H1415.17ZM1343.54 144.5V135.045H1349.99V136.901H1345.82V138.84H1349.58V140.701H1345.82V144.5H1343.54ZM1353.43 135.045V144.5H1351.14V135.045H1353.43ZM1362.91 135.045V144.5H1360.97L1357.21 139.043H1357.15V144.5H1354.86V135.045H1356.83L1360.55 140.493H1360.63V135.045H1362.91ZM1366.63 135.045V144.5H1364.35V135.045H1366.63ZM1373.18 137.88C1373.15 137.541 1373.01 137.278 1372.77 137.091C1372.53 136.9 1372.18 136.804 1371.74 136.804C1371.44 136.804 1371.19 136.843 1371 136.92C1370.8 136.997 1370.65 137.103 1370.55 137.238C1370.46 137.371 1370.41 137.523 1370.4 137.695C1370.4 137.837 1370.42 137.962 1370.49 138.069C1370.55 138.177 1370.64 138.272 1370.76 138.355C1370.89 138.435 1371.03 138.506 1371.21 138.568C1371.38 138.629 1371.57 138.683 1371.79 138.729L1372.6 138.914C1373.07 139.016 1373.48 139.151 1373.84 139.32C1374.2 139.49 1374.5 139.691 1374.74 139.925C1374.99 140.159 1375.17 140.428 1375.3 140.733C1375.43 141.038 1375.49 141.379 1375.49 141.758C1375.49 142.355 1375.34 142.867 1375.04 143.295C1374.74 143.723 1374.31 144.051 1373.75 144.278C1373.2 144.506 1372.52 144.62 1371.74 144.62C1370.95 144.62 1370.26 144.502 1369.67 144.265C1369.08 144.028 1368.62 143.667 1368.3 143.184C1367.97 142.701 1367.8 142.09 1367.79 141.352H1369.98C1370 141.656 1370.08 141.91 1370.23 142.113C1370.37 142.316 1370.57 142.47 1370.82 142.575C1371.08 142.68 1371.37 142.732 1371.71 142.732C1372.02 142.732 1372.28 142.69 1372.49 142.607C1372.71 142.524 1372.88 142.409 1373 142.261C1373.11 142.113 1373.17 141.944 1373.18 141.753C1373.17 141.575 1373.12 141.422 1373.01 141.296C1372.9 141.167 1372.74 141.056 1372.51 140.964C1372.29 140.868 1372.01 140.781 1371.66 140.701L1370.67 140.47C1369.86 140.282 1369.21 139.979 1368.74 139.56C1368.27 139.139 1368.04 138.569 1368.04 137.852C1368.04 137.268 1368.19 136.755 1368.51 136.315C1368.83 135.875 1369.26 135.532 1369.83 135.286C1370.39 135.039 1371.02 134.916 1371.74 134.916C1372.47 134.916 1373.11 135.041 1373.65 135.29C1374.19 135.536 1374.61 135.883 1374.91 136.329C1375.21 136.775 1375.36 137.292 1375.36 137.88H1373.18ZM1376.65 144.5V135.045H1378.93V138.84H1382.66V135.045H1384.94V144.5H1382.66V140.701H1378.93V144.5H1376.65ZM1386.37 144.5V135.045H1392.97V136.901H1388.66V138.84H1392.63V140.701H1388.66V142.644H1392.97V144.5H1386.37ZM1397.89 144.5H1394.4V135.045H1397.89C1398.85 135.045 1399.68 135.235 1400.37 135.613C1401.07 135.989 1401.61 136.53 1401.99 137.238C1402.37 137.943 1402.56 138.786 1402.56 139.768C1402.56 140.753 1402.37 141.599 1401.99 142.307C1401.61 143.015 1401.08 143.558 1400.38 143.937C1399.68 144.312 1398.85 144.5 1397.89 144.5ZM1396.68 142.552H1397.8C1398.33 142.552 1398.78 142.463 1399.15 142.284C1399.52 142.103 1399.79 141.809 1399.98 141.402C1400.17 140.993 1400.27 140.448 1400.27 139.768C1400.27 139.088 1400.17 138.546 1399.98 138.143C1399.79 137.737 1399.51 137.444 1399.14 137.266C1398.77 137.084 1398.31 136.994 1397.77 136.994H1396.68V142.552Z" fill="white"/>
<path d="M1154 129C1153.17 129 1152.5 129.672 1152.5 130.5C1152.5 131.328 1153.17 132 1154 132V130.5V129ZM1270.06 131.561C1270.65 130.975 1270.65 130.025 1270.06 129.439L1260.51 119.893C1259.93 119.308 1258.98 119.308 1258.39 119.893C1257.81 120.479 1257.81 121.429 1258.39 122.015L1266.88 130.5L1258.39 138.985C1257.81 139.571 1257.81 140.521 1258.39 141.107C1258.98 141.692 1259.93 141.692 1260.51 141.107L1270.06 131.561ZM1154 130.5V132H1269V130.5V129H1154V130.5Z" fill="#2ECC71"/>
<rect x="627" y="327.5" width="200" height="50" rx="25" fill="#C0392B"/>
<path d="M700.3 352.471H697.992C697.961 352.234 697.898 352.02 697.803 351.829C697.707 351.638 697.581 351.475 697.424 351.34C697.267 351.204 697.081 351.101 696.865 351.031C696.653 350.957 696.418 350.92 696.159 350.92C695.7 350.92 695.305 351.032 694.973 351.257C694.643 351.481 694.389 351.806 694.211 352.231C694.035 352.656 693.948 353.17 693.948 353.773C693.948 354.401 694.037 354.927 694.216 355.352C694.397 355.773 694.651 356.092 694.977 356.307C695.307 356.52 695.696 356.626 696.145 356.626C696.398 356.626 696.627 356.593 696.833 356.529C697.042 356.464 697.225 356.37 697.382 356.247C697.542 356.121 697.673 355.969 697.775 355.79C697.879 355.609 697.952 355.404 697.992 355.176L700.3 355.19C700.26 355.609 700.138 356.021 699.935 356.427C699.735 356.833 699.46 357.204 699.109 357.54C698.758 357.872 698.33 358.137 697.826 358.334C697.324 358.531 696.748 358.629 696.099 358.629C695.243 358.629 694.477 358.442 693.8 358.066C693.126 357.687 692.594 357.137 692.203 356.413C691.812 355.69 691.616 354.81 691.616 353.773C691.616 352.732 691.815 351.851 692.212 351.127C692.609 350.404 693.146 349.855 693.823 349.479C694.5 349.104 695.259 348.916 696.099 348.916C696.671 348.916 697.201 348.996 697.687 349.156C698.173 349.313 698.601 349.544 698.97 349.849C699.34 350.15 699.64 350.521 699.871 350.961C700.102 351.401 700.245 351.905 700.3 352.471ZM703.412 358.5H700.956L704.146 349.045H707.188L710.378 358.5H707.922L705.701 351.428H705.627L703.412 358.5ZM703.084 354.779H708.217V356.515H703.084V354.779ZM719.442 349.045V358.5H717.503L713.741 353.043H713.681V358.5H711.396V349.045H713.362L717.083 354.493H717.162V349.045H719.442ZM729.461 352.471H727.153C727.122 352.234 727.059 352.02 726.964 351.829C726.868 351.638 726.742 351.475 726.585 351.34C726.428 351.204 726.242 351.101 726.027 351.031C725.814 350.957 725.579 350.92 725.32 350.92C724.862 350.92 724.466 351.032 724.134 351.257C723.804 351.481 723.551 351.806 723.372 352.231C723.197 352.656 723.109 353.17 723.109 353.773C723.109 354.401 723.198 354.927 723.377 355.352C723.558 355.773 723.812 356.092 724.138 356.307C724.468 356.52 724.857 356.626 725.306 356.626C725.559 356.626 725.788 356.593 725.994 356.529C726.203 356.464 726.387 356.37 726.544 356.247C726.704 356.121 726.834 355.969 726.936 355.79C727.041 355.609 727.113 355.404 727.153 355.176L729.461 355.19C729.421 355.609 729.3 356.021 729.096 356.427C728.896 356.833 728.621 357.204 728.27 357.54C727.919 357.872 727.491 358.137 726.987 358.334C726.485 358.531 725.91 358.629 725.26 358.629C724.405 358.629 723.638 358.442 722.961 358.066C722.287 357.687 721.755 357.137 721.364 356.413C720.973 355.69 720.778 354.81 720.778 353.773C720.778 352.732 720.976 351.851 721.373 351.127C721.77 350.404 722.307 349.855 722.984 349.479C723.661 349.104 724.42 348.916 725.26 348.916C725.833 348.916 726.362 348.996 726.848 349.156C727.335 349.313 727.762 349.544 728.132 349.849C728.501 350.15 728.801 350.521 729.032 350.961C729.263 351.401 729.406 351.905 729.461 352.471ZM730.769 358.5V349.045H737.361V350.901H733.054V352.84H737.024V354.701H733.054V356.644H737.361V358.5H730.769ZM738.792 358.5V349.045H741.077V356.644H745.011V358.5H738.792ZM746.194 358.5V349.045H752.786V350.901H748.479V352.84H752.449V354.701H748.479V356.644H752.786V358.5H746.194ZM757.712 358.5H754.217V349.045H757.707C758.67 349.045 759.5 349.235 760.195 349.613C760.894 349.989 761.433 350.53 761.811 351.238C762.19 351.943 762.379 352.786 762.379 353.768C762.379 354.753 762.19 355.599 761.811 356.307C761.436 357.015 760.899 357.558 760.2 357.937C759.501 358.312 758.672 358.5 757.712 358.5ZM756.502 356.552H757.624C758.153 356.552 758.601 356.463 758.967 356.284C759.337 356.103 759.615 355.809 759.803 355.402C759.994 354.993 760.089 354.448 760.089 353.768C760.089 353.088 759.994 352.546 759.803 352.143C759.612 351.737 759.331 351.444 758.958 351.266C758.589 351.084 758.133 350.994 757.592 350.994H756.502V356.552Z" fill="white"/>
<path d="M508 129C507.172 129 506.5 129.672 506.5 130.5C506.5 131.328 507.172 132 508 132V130.5V129ZM624.061 131.561C624.646 130.975 624.646 130.025 624.061 129.439L614.515 119.893C613.929 119.308 612.979 119.308 612.393 119.893C611.808 120.479 611.808 121.429 612.393 122.015L620.879 130.5L612.393 138.985C611.808 139.571 611.808 140.521 612.393 141.107C612.979 141.692 613.929 141.692 614.515 141.107L624.061 131.561ZM508 130.5V132H623V130.5V129H508V130.5Z" fill="#3498DB"/>
<path d="M402.5 101.5C402.5 102.328 403.172 103 404 103C404.828 103 405.5 102.328 405.5 101.5H404H402.5ZM1371.94 102.561C1372.53 103.146 1373.47 103.146 1374.06 102.561L1383.61 93.0147C1384.19 92.4289 1384.19 91.4792 1383.61 90.8934C1383.02 90.3076 1382.07 90.3076 1381.49 90.8934L1373 99.3787L1364.51 90.8934C1363.93 90.3076 1362.98 90.3076 1362.39 90.8934C1361.81 91.4792 1361.81 92.4289 1362.39 93.0147L1371.94 102.561ZM404 101.5H405.5V25.5H404H402.5V101.5H404ZM428 1.5V3H1349V1.5V0H428V1.5ZM1373 25.5H1371.5V101.5H1373H1374.5V25.5H1373ZM1349 1.5V3C1361.43 3 1371.5 13.0736 1371.5 25.5H1373H1374.5C1374.5 11.4167 1363.08 0 1349 0V1.5ZM404 25.5H405.5C405.5 13.0736 415.574 3 428 3V1.5V0C413.917 0 402.5 11.4167 402.5 25.5H404Z" fill="#3498DB"/>
<path d="M405.5 159.5C405.5 158.672 404.828 158 404 158C403.172 158 402.5 158.672 402.5 159.5H404H405.5ZM725.939 324.561C726.525 325.146 727.475 325.146 728.061 324.561L737.607 315.015C738.192 314.429 738.192 313.479 737.607 312.893C737.021 312.308 736.071 312.308 735.485 312.893L727 321.379L718.515 312.893C717.929 312.308 716.979 312.308 716.393 312.893C715.808 313.479 715.808 314.429 716.393 315.015L725.939 324.561ZM404 159.5H402.5V217.5H404H405.5V159.5H404ZM428 241.5V243H703V241.5V240H428V241.5ZM727 265.5H725.5V323.5H727H728.5V265.5H727ZM703 241.5V243C715.426 243 725.5 253.074 725.5 265.5H727H728.5C728.5 251.417 717.083 240 703 240V241.5ZM404 217.5H402.5C402.5 231.583 413.917 243 428 243V241.5V240C415.574 240 405.5 229.926 405.5 217.5H404Z" fill="#3498DB"/>
<path d="M728.5 159.5C728.5 158.672 727.828 158 727 158C726.172 158 725.5 158.672 725.5 159.5H727H728.5ZM725.939 324.561C726.525 325.146 727.475 325.146 728.061 324.561L737.607 315.015C738.192 314.429 738.192 313.479 737.607 312.893C737.021 312.308 736.071 312.308 735.485 312.893L727 321.379L718.515 312.893C717.929 312.308 716.979 312.308 716.393 312.893C715.808 313.479 715.808 314.429 716.393 315.015L725.939 324.561ZM727 159.5H725.5V323.5H727H728.5V159.5H727Z" fill="#F39C12"/>
<path d="M1051.5 159.5C1051.5 158.672 1050.83 158 1050 158C1049.17 158 1048.5 158.672 1048.5 159.5H1050H1051.5ZM725.939 324.561C726.525 325.146 727.475 325.146 728.061 324.561L737.607 315.015C738.192 314.429 738.192 313.479 737.607 312.893C737.021 312.308 736.071 312.308 735.485 312.893L727 321.379L718.515 312.893C717.929 312.308 716.979 312.308 716.393 312.893C715.808 313.479 715.808 314.429 716.393 315.015L725.939 324.561ZM1050 159.5H1048.5V217.5H1050H1051.5V159.5H1050ZM1026 241.5V240H751V241.5V243H1026V241.5ZM727 265.5H725.5V323.5H727H728.5V265.5H727ZM751 241.5V240C736.917 240 725.5 251.417 725.5 265.5H727H728.5C728.5 253.074 738.574 243 751 243V241.5ZM1050 217.5H1048.5C1048.5 229.926 1038.43 240 1026 240V241.5V243C1040.08 243 1051.5 231.583 1051.5 217.5H1050Z" fill="#2ECC71"/>
<path d="M831 129C830.172 129 829.5 129.672 829.5 130.5C829.5 131.328 830.172 132 831 132V130.5V129ZM947.061 131.561C947.646 130.975 947.646 130.025 947.061 129.439L937.515 119.893C936.929 119.308 935.979 119.308 935.393 119.893C934.808 120.479 934.808 121.429 935.393 122.015L943.879 130.5L935.393 138.985C934.808 139.571 934.808 140.521 935.393 141.107C935.979 141.692 936.929 141.692 937.515 141.107L947.061 131.561ZM831 130.5V132H946V130.5V129H831V130.5Z" fill="#F39C12"/>
<rect y="80.5" width="200" height="100" rx="20" fill="#F2F2F2"/>
<path d="M46.6584 126.773V135.5H44.8686L41.3956 130.463H41.3402V135.5H39.2308V126.773H41.0462L44.4808 131.801H44.5533V126.773H46.6584ZM47.9847 135.5V126.773H54.07V128.486H50.0941V130.276H53.7589V131.993H50.0941V133.787H54.07V135.5H47.9847ZM57.4833 135.5L54.9435 126.773H57.2745L58.5913 132.491H58.6637L60.168 126.773H62.0685L63.5728 132.504H63.6452L64.9663 126.773H67.293L64.7575 135.5H62.7248L61.1523 130.207H61.0842L59.5117 135.5H57.4833ZM70.7425 126.773H73.3548L75.5707 132.176H75.6729L77.8888 126.773H80.5011V135.5H78.4471V130.139H78.3746L76.2781 135.445H74.9656L72.869 130.109H72.7965V135.5H70.7425V126.773ZM83.7045 135.5H81.4375L84.3821 126.773H87.1903L90.1349 135.5H87.8679L85.8182 128.972H85.75L83.7045 135.5ZM83.402 132.065H88.1406V133.668H83.402V132.065ZM93.1839 126.773V135.5H91.0746V126.773H93.1839ZM101.936 126.773V135.5H100.146L96.6729 130.463H96.6175V135.5H94.5082V126.773H96.3235L99.7582 131.801H99.8306V126.773H101.936ZM102.977 128.486V126.773H110.353V128.486H107.707V135.5H105.627V128.486H102.977ZM111.383 135.5V126.773H117.468V128.486H113.493V130.276H117.157V131.993H113.493V133.787H117.468V135.5H111.383ZM126.217 126.773V135.5H124.427L120.954 130.463H120.899V135.5H118.789V126.773H120.605L124.039 131.801H124.112V126.773H126.217ZM129.431 135.5H127.164L130.109 126.773H132.917L135.862 135.5H133.594L131.545 128.972H131.477L129.431 135.5ZM129.129 132.065H133.867V133.668H129.129V132.065ZM144.229 126.773V135.5H142.439L138.966 130.463H138.911V135.5H136.801V126.773H138.616L142.051 131.801H142.124V126.773H144.229ZM153.477 129.935H151.346C151.318 129.716 151.26 129.518 151.172 129.342C151.083 129.166 150.967 129.016 150.822 128.891C150.677 128.766 150.505 128.67 150.306 128.605C150.11 128.537 149.893 128.503 149.654 128.503C149.231 128.503 148.866 128.607 148.559 128.814C148.255 129.021 148.021 129.321 147.856 129.713C147.694 130.105 147.613 130.58 147.613 131.136C147.613 131.716 147.696 132.202 147.86 132.594C148.028 132.983 148.262 133.277 148.564 133.476C148.868 133.672 149.227 133.77 149.642 133.77C149.875 133.77 150.086 133.74 150.277 133.68C150.47 133.621 150.639 133.534 150.784 133.42C150.931 133.304 151.052 133.163 151.146 132.999C151.243 132.831 151.309 132.642 151.346 132.432L153.477 132.445C153.44 132.831 153.328 133.212 153.14 133.587C152.956 133.962 152.701 134.304 152.377 134.614C152.054 134.92 151.659 135.165 151.193 135.347C150.73 135.528 150.199 135.619 149.599 135.619C148.809 135.619 148.102 135.446 147.477 135.099C146.855 134.75 146.363 134.241 146.002 133.574C145.642 132.906 145.461 132.094 145.461 131.136C145.461 130.176 145.645 129.362 146.011 128.695C146.377 128.027 146.873 127.52 147.498 127.173C148.123 126.827 148.824 126.653 149.599 126.653C150.127 126.653 150.616 126.727 151.065 126.875C151.514 127.02 151.909 127.233 152.25 127.514C152.591 127.793 152.868 128.135 153.081 128.541C153.294 128.947 153.426 129.412 153.477 129.935ZM154.684 135.5V126.773H160.769V128.486H156.793V130.276H160.458V131.993H156.793V133.787H160.769V135.5H154.684Z" fill="black"/>
<path d="M204 129C203.172 129 202.5 129.672 202.5 130.5C202.5 131.328 203.172 132 204 132V130.5V129ZM301.061 131.561C301.646 130.975 301.646 130.025 301.061 129.439L291.515 119.893C290.929 119.308 289.979 119.308 289.393 119.893C288.808 120.479 288.808 121.429 289.393 122.015L297.879 130.5L289.393 138.985C288.808 139.571 288.808 140.521 289.393 141.107C289.979 141.692 290.929 141.692 291.515 141.107L301.061 131.561ZM204 130.5V132H206.88V130.5V129H204V130.5ZM210.72 130.5V132H216.48V130.5V129H210.72V130.5ZM220.32 130.5V132H226.08V130.5V129H220.32V130.5ZM229.92 130.5V132H235.68V130.5V129H229.92V130.5ZM239.52 130.5V132H245.28V130.5V129H239.52V130.5ZM249.12 130.5V132H254.88V130.5V129H249.12V130.5ZM258.72 130.5V132H264.48V130.5V129H258.72V130.5ZM268.32 130.5V132H274.08V130.5V129H268.32V130.5ZM277.92 130.5V132H283.68V130.5V129H277.92V130.5ZM287.52 130.5V132H293.28V130.5V129H287.52V130.5ZM297.12 130.5V132H300V130.5V129H297.12V130.5Z" fill="#CECCCC"/>
</svg>
