<svg width="1473" height="240" viewBox="0 0 1473 240" fill="none" xmlns="http://www.w3.org/2000/svg">
<rect x="304" y="25" width="200" height="50" rx="25" fill="#2980B9"/>
<path d="M352.234 56L349.482 46.5455H352.008L353.434 52.7408H353.512L355.142 46.5455H357.201L358.831 52.7546H358.909L360.34 46.5455H362.861L360.114 56H357.912L356.208 50.2663H356.135L354.431 56H352.234ZM364.822 56H362.366L365.556 46.5455H368.598L371.788 56H369.332L367.111 48.9276H367.038L364.822 56ZM364.494 52.2791H369.627V54.0149H364.494V52.2791ZM375.091 46.5455V56H372.806V46.5455H375.091ZM376.216 48.4013V46.5455H384.207V48.4013H381.341V56H379.088V48.4013H376.216ZM390.162 56H387.706L390.896 46.5455H393.938L397.128 56H394.672L392.451 48.9276H392.377L390.162 56ZM389.834 52.2791H394.967V54.0149H389.834V52.2791ZM398.146 56V46.5455H402.051C402.759 46.5455 403.37 46.6839 403.884 46.9609C404.401 47.2348 404.8 47.618 405.08 48.1104C405.36 48.5998 405.5 49.1692 405.5 49.8185C405.5 50.471 405.357 51.0419 405.07 51.5312C404.787 52.0175 404.383 52.3945 403.856 52.6623C403.33 52.93 402.705 53.0639 401.982 53.0639H399.572V51.2635H401.557C401.902 51.2635 402.19 51.2035 402.421 51.0835C402.654 50.9634 402.831 50.7957 402.951 50.5803C403.072 50.3617 403.132 50.1078 403.132 49.8185C403.132 49.5262 403.072 49.2738 402.951 49.0614C402.831 48.846 402.654 48.6798 402.421 48.5629C402.187 48.4459 401.899 48.3874 401.557 48.3874H400.431V56H398.146ZM406.626 56V46.5455H410.532C411.24 46.5455 411.851 46.6839 412.364 46.9609C412.882 47.2348 413.28 47.618 413.56 48.1104C413.84 48.5998 413.98 49.1692 413.98 49.8185C413.98 50.471 413.837 51.0419 413.551 51.5312C413.268 52.0175 412.863 52.3945 412.337 52.6623C411.811 52.93 411.186 53.0639 410.462 53.0639H408.053V51.2635H410.038C410.382 51.2635 410.67 51.2035 410.901 51.0835C411.135 50.9634 411.312 50.7957 411.432 50.5803C411.552 50.3617 411.612 50.1078 411.612 49.8185C411.612 49.5262 411.552 49.2738 411.432 49.0614C411.312 48.846 411.135 48.6798 410.901 48.5629C410.667 48.4459 410.379 48.3874 410.038 48.3874H408.911V56H406.626ZM415.107 56V46.5455H419.012C419.72 46.5455 420.331 46.6732 420.845 46.9286C421.362 47.181 421.761 47.5442 422.041 48.0181C422.321 48.489 422.461 49.0476 422.461 49.6939C422.461 50.3494 422.318 50.9065 422.031 51.3651C421.745 51.8205 421.339 52.1683 420.813 52.4084C420.286 52.6454 419.663 52.7638 418.943 52.7638H416.473V50.9634H418.518C418.863 50.9634 419.151 50.9188 419.382 50.8295C419.615 50.7372 419.792 50.5987 419.912 50.4141C420.032 50.2263 420.092 49.9863 420.092 49.6939C420.092 49.4015 420.032 49.1599 419.912 48.9691C419.792 48.7752 419.615 48.6306 419.382 48.5352C419.148 48.4367 418.86 48.3874 418.518 48.3874H417.392V56H415.107ZM420.429 51.679L422.784 56H420.291L417.983 51.679H420.429ZM432.638 51.2727C432.638 52.313 432.438 53.1947 432.038 53.918C431.638 54.6412 431.096 55.1906 430.413 55.5661C429.732 55.9415 428.969 56.1293 428.123 56.1293C427.273 56.1293 426.509 55.94 425.828 55.5614C425.148 55.1829 424.608 54.6335 424.208 53.9134C423.811 53.1901 423.613 52.3099 423.613 51.2727C423.613 50.2325 423.811 49.3507 424.208 48.6275C424.608 47.9042 425.148 47.3549 425.828 46.9794C426.509 46.6039 427.273 46.4162 428.123 46.4162C428.969 46.4162 429.732 46.6039 430.413 46.9794C431.096 47.3549 431.638 47.9042 432.038 48.6275C432.438 49.3507 432.638 50.2325 432.638 51.2727ZM430.302 51.2727C430.302 50.6572 430.214 50.1371 430.039 49.7124C429.866 49.2876 429.617 48.966 429.291 48.7475C428.968 48.529 428.578 48.4197 428.123 48.4197C427.67 48.4197 427.281 48.529 426.955 48.7475C426.629 48.966 426.378 49.2876 426.202 49.7124C426.03 50.1371 425.944 50.6572 425.944 51.2727C425.944 51.8883 426.03 52.4084 426.202 52.8331C426.378 53.2578 426.629 53.5794 426.955 53.7979C427.281 54.0165 427.67 54.1257 428.123 54.1257C428.578 54.1257 428.968 54.0165 429.291 53.7979C429.617 53.5794 429.866 53.2578 430.039 52.8331C430.214 52.4084 430.302 51.8883 430.302 51.2727ZM435.56 46.5455L437.674 53.4702H437.753L439.867 46.5455H442.425L439.235 56H436.192L433.002 46.5455H435.56ZM444.079 56H441.623L444.813 46.5455H447.855L451.045 56H448.589L446.368 48.9276H446.294L444.079 56ZM443.751 52.2791H448.884V54.0149H443.751V52.2791ZM452.063 56V46.5455H454.348V54.1442H458.281V56H452.063Z" fill="white"/>
<rect x="950" y="25" width="200" height="50" rx="25" fill="#F39C12"/>
<path d="M1005.4 56L1002.65 46.5455H1005.17L1006.6 52.7408H1006.68L1008.31 46.5455H1010.37L1012 52.7546H1012.08L1013.51 46.5455H1016.03L1013.28 56H1011.08L1009.38 50.2663H1009.3L1007.6 56H1005.4ZM1017.99 56H1015.53L1018.72 46.5455H1021.76L1024.95 56H1022.5L1020.28 48.9276H1020.2L1017.99 56ZM1017.66 52.2791H1022.79V54.0149H1017.66V52.2791ZM1028.26 46.5455V56H1025.97V46.5455H1028.26ZM1029.38 48.4013V46.5455H1037.37V48.4013H1034.51V56H1032.25V48.4013H1029.38ZM1043.33 56H1040.87L1044.06 46.5455H1047.1L1050.29 56H1047.84L1045.62 48.9276H1045.54L1043.33 56ZM1043 52.2791H1048.13V54.0149H1043V52.2791ZM1051.31 56V46.5455H1055.22C1055.93 46.5455 1056.54 46.6732 1057.05 46.9286C1057.57 47.181 1057.97 47.5442 1058.25 48.0181C1058.53 48.489 1058.67 49.0476 1058.67 49.6939C1058.67 50.3494 1058.52 50.9065 1058.24 51.3651C1057.95 51.8205 1057.54 52.1683 1057.02 52.4084C1056.49 52.6454 1055.87 52.7638 1055.15 52.7638H1052.68V50.9634H1054.72C1055.07 50.9634 1055.36 50.9188 1055.59 50.8295C1055.82 50.7372 1056 50.5987 1056.12 50.4141C1056.24 50.2263 1056.3 49.9863 1056.3 49.6939C1056.3 49.4015 1056.24 49.1599 1056.12 48.9691C1056 48.7752 1055.82 48.6306 1055.59 48.5352C1055.35 48.4367 1055.07 48.3874 1054.72 48.3874H1053.6V56H1051.31ZM1056.64 51.679L1058.99 56H1056.5L1054.19 51.679H1056.64ZM1059.92 56V46.5455H1063.83C1064.53 46.5455 1065.14 46.6732 1065.66 46.9286C1066.17 47.181 1066.57 47.5442 1066.85 48.0181C1067.13 48.489 1067.27 49.0476 1067.27 49.6939C1067.27 50.3494 1067.13 50.9065 1066.84 51.3651C1066.56 51.8205 1066.15 52.1683 1065.63 52.4084C1065.1 52.6454 1064.48 52.7638 1063.76 52.7638H1061.29V50.9634H1063.33C1063.68 50.9634 1063.96 50.9188 1064.19 50.8295C1064.43 50.7372 1064.61 50.5987 1064.73 50.4141C1064.85 50.2263 1064.91 49.9863 1064.91 49.6939C1064.91 49.4015 1064.85 49.1599 1064.73 48.9691C1064.61 48.7752 1064.43 48.6306 1064.19 48.5352C1063.96 48.4367 1063.67 48.3874 1063.33 48.3874H1062.2V56H1059.92ZM1065.24 51.679L1067.6 56H1065.1L1062.8 51.679H1065.24ZM1070.81 46.5455V56H1068.53V46.5455H1070.81ZM1074.39 46.5455L1076.51 53.4702H1076.59L1078.7 46.5455H1081.26L1078.07 56H1075.03L1071.84 46.5455H1074.39ZM1082.91 56H1080.46L1083.65 46.5455H1086.69L1089.88 56H1087.42L1085.2 48.9276H1085.13L1082.91 56ZM1082.58 52.2791H1087.72V54.0149H1082.58V52.2791ZM1090.9 56V46.5455H1093.18V54.1442H1097.11V56H1090.9Z" fill="white"/>
<rect x="627" y="25" width="200" height="50" rx="25" fill="#2ECC71"/>
<path d="M695.966 56H693.51L696.7 46.5455H699.742L702.932 56H700.476L698.256 48.9276H698.182L695.966 56ZM695.638 52.2791H700.771V54.0149H695.638V52.2791ZM708.768 49.38C708.738 49.0414 708.601 48.7783 708.358 48.5906C708.117 48.3997 707.774 48.3043 707.328 48.3043C707.033 48.3043 706.786 48.3428 706.589 48.4197C706.392 48.4967 706.245 48.6029 706.146 48.7383C706.048 48.8706 705.997 49.023 705.994 49.1953C705.988 49.3369 706.015 49.4615 706.077 49.5692C706.142 49.677 706.234 49.7724 706.354 49.8555C706.477 49.9355 706.625 50.0063 706.797 50.0678C706.969 50.1294 707.163 50.1832 707.379 50.2294L708.191 50.4141C708.659 50.5156 709.072 50.651 709.429 50.8203C709.789 50.9896 710.09 51.1912 710.333 51.4251C710.58 51.659 710.766 51.9283 710.892 52.233C711.018 52.5376 711.083 52.8793 711.086 53.2578C711.083 53.8549 710.932 54.3673 710.633 54.7951C710.335 55.2229 709.906 55.5507 709.345 55.7784C708.788 56.0062 708.116 56.12 707.328 56.12C706.537 56.12 705.848 56.0015 705.26 55.7646C704.672 55.5276 704.215 55.1675 703.889 54.6843C703.563 54.2011 703.395 53.5902 703.386 52.8516H705.574C705.592 53.1562 705.674 53.4102 705.818 53.6133C705.963 53.8164 706.162 53.9703 706.414 54.0749C706.669 54.1796 706.965 54.2319 707.3 54.2319C707.608 54.2319 707.87 54.1903 708.085 54.1072C708.304 54.0241 708.471 53.9087 708.588 53.761C708.705 53.6133 708.765 53.444 708.768 53.2532C708.765 53.0747 708.71 52.9223 708.602 52.7962C708.494 52.6669 708.328 52.5561 708.104 52.4638C707.882 52.3684 707.599 52.2807 707.254 52.2006L706.266 51.9698C705.448 51.7821 704.803 51.4789 704.332 51.0604C703.861 50.6387 703.627 50.0694 703.63 49.3523C703.627 48.7675 703.784 48.2551 704.101 47.815C704.418 47.3749 704.857 47.0317 705.417 46.7855C705.977 46.5393 706.616 46.4162 707.333 46.4162C708.065 46.4162 708.701 46.5408 709.239 46.7901C709.781 47.0363 710.201 47.3826 710.5 47.8288C710.798 48.2751 710.95 48.7921 710.957 49.38H708.768ZM717.35 49.38C717.32 49.0414 717.183 48.7783 716.94 48.5906C716.699 48.3997 716.356 48.3043 715.91 48.3043C715.615 48.3043 715.368 48.3428 715.171 48.4197C714.974 48.4967 714.827 48.6029 714.728 48.7383C714.63 48.8706 714.579 49.023 714.576 49.1953C714.57 49.3369 714.597 49.4615 714.659 49.5692C714.724 49.677 714.816 49.7724 714.936 49.8555C715.059 49.9355 715.207 50.0063 715.379 50.0678C715.552 50.1294 715.745 50.1832 715.961 50.2294L716.773 50.4141C717.241 50.5156 717.654 50.651 718.011 50.8203C718.371 50.9896 718.672 51.1912 718.915 51.4251C719.162 51.659 719.348 51.9283 719.474 52.233C719.6 52.5376 719.665 52.8793 719.668 53.2578C719.665 53.8549 719.514 54.3673 719.215 54.7951C718.917 55.2229 718.488 55.5507 717.927 55.7784C717.37 56.0062 716.698 56.12 715.91 56.12C715.119 56.12 714.43 56.0015 713.842 55.7646C713.254 55.5276 712.797 55.1675 712.471 54.6843C712.145 54.2011 711.977 53.5902 711.968 52.8516H714.156C714.174 53.1562 714.256 53.4102 714.4 53.6133C714.545 53.8164 714.744 53.9703 714.996 54.0749C715.251 54.1796 715.547 54.2319 715.882 54.2319C716.19 54.2319 716.452 54.1903 716.667 54.1072C716.886 54.0241 717.053 53.9087 717.17 53.761C717.287 53.6133 717.347 53.444 717.35 53.2532C717.347 53.0747 717.292 52.9223 717.184 52.7962C717.076 52.6669 716.91 52.5561 716.686 52.4638C716.464 52.3684 716.181 52.2807 715.836 52.2006L714.848 51.9698C714.03 51.7821 713.385 51.4789 712.914 51.0604C712.443 50.6387 712.209 50.0694 712.212 49.3523C712.209 48.7675 712.366 48.2551 712.683 47.815C713 47.3749 713.439 47.0317 713.999 46.7855C714.559 46.5393 715.198 46.4162 715.915 46.4162C716.647 46.4162 717.283 46.5408 717.821 46.7901C718.363 47.0363 718.783 47.3826 719.082 47.8288C719.38 48.2751 719.532 48.7921 719.539 49.38H717.35ZM723.107 46.5455V56H720.822V46.5455H723.107ZM730.746 49.6339C730.694 49.44 730.617 49.2692 730.515 49.1214C730.414 48.9706 730.289 48.8429 730.142 48.7383C729.994 48.6336 729.825 48.5552 729.634 48.5028C729.443 48.4474 729.234 48.4197 729.006 48.4197C728.547 48.4197 728.15 48.5305 727.815 48.7521C727.482 48.9737 727.225 49.2969 727.044 49.7216C726.862 50.1432 726.771 50.6557 726.771 51.2589C726.771 51.8652 726.859 52.3822 727.035 52.81C727.21 53.2378 727.464 53.564 727.796 53.7887C728.129 54.0134 728.532 54.1257 729.006 54.1257C729.424 54.1257 729.778 54.058 730.068 53.9226C730.36 53.7841 730.582 53.5887 730.732 53.3363C730.883 53.0839 730.959 52.7869 730.959 52.4453L731.383 52.4961H729.084V50.8295H733.161V52.0806C733.161 52.927 732.981 53.6518 732.621 54.255C732.264 54.8582 731.771 55.3214 731.143 55.6445C730.519 55.9677 729.8 56.1293 728.987 56.1293C728.086 56.1293 727.293 55.9338 726.61 55.543C725.927 55.1521 725.394 54.5951 725.013 53.8718C724.631 53.1455 724.44 52.2837 724.44 51.2866C724.44 50.511 724.556 49.8232 724.786 49.223C725.017 48.6198 725.339 48.1089 725.751 47.6903C726.167 47.2718 726.647 46.9548 727.192 46.7393C727.739 46.5239 728.329 46.4162 728.96 46.4162C729.508 46.4162 730.017 46.4947 730.488 46.6516C730.962 46.8086 731.38 47.0302 731.743 47.3164C732.11 47.6026 732.407 47.9427 732.634 48.3366C732.862 48.7306 733.004 49.163 733.059 49.6339H730.746ZM742.554 46.5455V56H740.615L736.853 50.5433H736.793V56H734.508V46.5455H736.474L740.195 51.9929H740.274V46.5455H742.554ZM743.991 56V46.5455H750.583V48.4013H746.276V50.3402H750.246V52.2006H746.276V54.1442H750.583V56H743.991ZM755.509 56H752.014V46.5455H755.504C756.468 46.5455 757.297 46.7347 757.993 47.1133C758.691 47.4888 759.23 48.0304 759.608 48.7383C759.987 49.4431 760.176 50.2863 760.176 51.2681C760.176 52.253 759.987 53.0993 759.608 53.8072C759.233 54.515 758.696 55.0582 757.997 55.4368C757.299 55.8123 756.469 56 755.509 56ZM754.3 54.0518H755.421C755.951 54.0518 756.398 53.9626 756.765 53.7841C757.134 53.6025 757.413 53.3086 757.6 52.9023C757.791 52.493 757.887 51.9483 757.887 51.2681C757.887 50.5879 757.791 50.0463 757.6 49.6431C757.41 49.2369 757.128 48.9445 756.756 48.766C756.386 48.5844 755.931 48.4936 755.389 48.4936H754.3V54.0518Z" fill="white"/>
<path d="M831 48.5C830.172 48.5 829.5 49.1716 829.5 50C829.5 50.8284 830.172 51.5 831 51.5V50V48.5ZM947.061 51.0607C947.646 50.4749 947.646 49.5251 947.061 48.9393L937.515 39.3934C936.929 38.8076 935.979 38.8076 935.393 39.3934C934.808 39.9792 934.808 40.9289 935.393 41.5147L943.879 50L935.393 58.4853C934.808 59.0711 934.808 60.0208 935.393 60.6066C935.979 61.1924 936.929 61.1924 937.515 60.6066L947.061 51.0607ZM831 50V51.5H946V50V48.5H831V50Z" fill="#2ECC71"/>
<rect x="1273" y="25" width="200" height="50" rx="25" fill="#27AE60"/>
<path d="M1343.54 55V45.5455H1349.99V47.4013H1345.82V49.3402H1349.58V51.2006H1345.82V55H1343.54ZM1353.43 45.5455V55H1351.14V45.5455H1353.43ZM1362.91 45.5455V55H1360.97L1357.21 49.5433H1357.15V55H1354.86V45.5455H1356.83L1360.55 50.9929H1360.63V45.5455H1362.91ZM1366.63 45.5455V55H1364.35V45.5455H1366.63ZM1373.18 48.38C1373.15 48.0414 1373.01 47.7783 1372.77 47.5906C1372.53 47.3997 1372.18 47.3043 1371.74 47.3043C1371.44 47.3043 1371.19 47.3428 1371 47.4197C1370.8 47.4967 1370.65 47.6029 1370.55 47.7383C1370.46 47.8706 1370.41 48.023 1370.4 48.1953C1370.4 48.3369 1370.42 48.4615 1370.49 48.5692C1370.55 48.677 1370.64 48.7724 1370.76 48.8555C1370.89 48.9355 1371.03 49.0063 1371.21 49.0678C1371.38 49.1294 1371.57 49.1832 1371.79 49.2294L1372.6 49.4141C1373.07 49.5156 1373.48 49.651 1373.84 49.8203C1374.2 49.9896 1374.5 50.1912 1374.74 50.4251C1374.99 50.659 1375.17 50.9283 1375.3 51.233C1375.43 51.5376 1375.49 51.8793 1375.49 52.2578C1375.49 52.8549 1375.34 53.3673 1375.04 53.7951C1374.74 54.2229 1374.31 54.5507 1373.75 54.7784C1373.2 55.0062 1372.52 55.12 1371.74 55.12C1370.95 55.12 1370.26 55.0015 1369.67 54.7646C1369.08 54.5276 1368.62 54.1675 1368.3 53.6843C1367.97 53.2011 1367.8 52.5902 1367.79 51.8516H1369.98C1370 52.1562 1370.08 52.4102 1370.23 52.6133C1370.37 52.8164 1370.57 52.9703 1370.82 53.0749C1371.08 53.1796 1371.37 53.2319 1371.71 53.2319C1372.02 53.2319 1372.28 53.1903 1372.49 53.1072C1372.71 53.0241 1372.88 52.9087 1373 52.761C1373.11 52.6133 1373.17 52.444 1373.18 52.2532C1373.17 52.0747 1373.12 51.9223 1373.01 51.7962C1372.9 51.6669 1372.74 51.5561 1372.51 51.4638C1372.29 51.3684 1372.01 51.2807 1371.66 51.2006L1370.67 50.9698C1369.86 50.7821 1369.21 50.4789 1368.74 50.0604C1368.27 49.6387 1368.04 49.0694 1368.04 48.3523C1368.04 47.7675 1368.19 47.2551 1368.51 46.815C1368.83 46.3749 1369.26 46.0317 1369.83 45.7855C1370.39 45.5393 1371.02 45.4162 1371.74 45.4162C1372.47 45.4162 1373.11 45.5408 1373.65 45.7901C1374.19 46.0363 1374.61 46.3826 1374.91 46.8288C1375.21 47.2751 1375.36 47.7921 1375.36 48.38H1373.18ZM1376.65 55V45.5455H1378.93V49.3402H1382.66V45.5455H1384.94V55H1382.66V51.2006H1378.93V55H1376.65ZM1386.37 55V45.5455H1392.97V47.4013H1388.66V49.3402H1392.63V51.2006H1388.66V53.1442H1392.97V55H1386.37ZM1397.89 55H1394.4V45.5455H1397.89C1398.85 45.5455 1399.68 45.7347 1400.37 46.1133C1401.07 46.4888 1401.61 47.0304 1401.99 47.7383C1402.37 48.4431 1402.56 49.2863 1402.56 50.2681C1402.56 51.253 1402.37 52.0993 1401.99 52.8072C1401.61 53.515 1401.08 54.0582 1400.38 54.4368C1399.68 54.8123 1398.85 55 1397.89 55ZM1396.68 53.0518H1397.8C1398.33 53.0518 1398.78 52.9626 1399.15 52.7841C1399.52 52.6025 1399.79 52.3086 1399.98 51.9023C1400.17 51.493 1400.27 50.9483 1400.27 50.2681C1400.27 49.5879 1400.17 49.0463 1399.98 48.6431C1399.79 48.2369 1399.51 47.9445 1399.14 47.766C1398.77 47.5844 1398.31 47.4936 1397.77 47.4936H1396.68V53.0518Z" fill="white"/>
<rect x="627" y="190" width="200" height="50" rx="25" fill="#C0392B"/>
<path d="M703.766 211.545V221H701.481V211.545H703.766ZM713.247 211.545V221H711.308L707.546 215.543H707.486V221H705.2V211.545H707.167L710.888 216.993H710.966V211.545H713.247ZM716.83 211.545L718.945 218.47H719.023L721.138 211.545H723.695L720.505 221H717.463L714.273 211.545H716.83ZM725.349 221H722.893L726.083 211.545H729.125L732.315 221H729.859L727.639 213.928H727.565L725.349 221ZM725.021 217.279H730.155V219.015H725.021V217.279ZM733.333 221V211.545H735.618V219.144H739.552V221H733.333ZM743.02 211.545V221H740.735V211.545H743.02ZM747.949 221H744.454V211.545H747.944C748.908 211.545 749.737 211.735 750.433 212.113C751.131 212.489 751.67 213.03 752.048 213.738C752.427 214.443 752.616 215.286 752.616 216.268C752.616 217.253 752.427 218.099 752.048 218.807C751.673 219.515 751.136 220.058 750.437 220.437C749.739 220.812 748.909 221 747.949 221ZM746.739 219.052H747.861C748.391 219.052 748.838 218.963 749.205 218.784C749.574 218.603 749.853 218.309 750.04 217.902C750.231 217.493 750.326 216.948 750.326 216.268C750.326 215.588 750.231 215.046 750.04 214.643C749.849 214.237 749.568 213.944 749.195 213.766C748.826 213.584 748.371 213.494 747.829 213.494H746.739V219.052Z" fill="white"/>
<path d="M508 48.5C507.172 48.5 506.5 49.1716 506.5 50C506.5 50.8284 507.172 51.5 508 51.5V50V48.5ZM624.061 51.0607C624.646 50.4749 624.646 49.5251 624.061 48.9393L614.515 39.3934C613.929 38.8076 612.979 38.8076 612.393 39.3934C611.808 39.9792 611.808 40.9289 612.393 41.5147L620.879 50L612.393 58.4853C611.808 59.0711 611.808 60.0208 612.393 60.6066C612.979 61.1924 613.929 61.1924 614.515 60.6066L624.061 51.0607ZM508 50V51.5H623V50V48.5H508V50Z" fill="#2980B9"/>
<path d="M405.5 79C405.5 78.1716 404.828 77.5 404 77.5C403.172 77.5 402.5 78.1716 402.5 79H404H405.5ZM624.061 216.061C624.646 215.475 624.646 214.525 624.061 213.939L614.515 204.393C613.929 203.808 612.979 203.808 612.393 204.393C611.808 204.979 611.808 205.929 612.393 206.515L620.879 215L612.393 223.485C611.808 224.071 611.808 225.021 612.393 225.607C612.979 226.192 613.929 226.192 614.515 225.607L624.061 216.061ZM404 79H402.5V191H404H405.5V79H404ZM428 215V216.5H623V215V213.5H428V215ZM404 191H402.5C402.5 205.083 413.917 216.5 428 216.5V215V213.5C415.574 213.5 405.5 203.426 405.5 191H404Z" fill="#2980B9"/>
<path d="M1154 48.5C1153.17 48.5 1152.5 49.1716 1152.5 50C1152.5 50.8284 1153.17 51.5 1154 51.5V50V48.5ZM1270.06 51.0607C1270.65 50.4749 1270.65 49.5251 1270.06 48.9393L1260.51 39.3934C1259.93 38.8076 1258.98 38.8076 1258.39 39.3934C1257.81 39.9792 1257.81 40.9289 1258.39 41.5147L1266.88 50L1258.39 58.4853C1257.81 59.0711 1257.81 60.0208 1258.39 60.6066C1258.98 61.1924 1259.93 61.1924 1260.51 60.6066L1270.06 51.0607ZM1154 50V51.5H1269V50V48.5H1154V50Z" fill="#F39C12"/>
<rect width="200" height="100" rx="20" fill="#F2F2F2"/>
<path d="M58.881 46.2727V55H57.0913L53.6183 49.9631H53.5629V55H51.4535V46.2727H53.2688L56.7035 51.3011H56.7759V46.2727H58.881ZM60.2074 55V46.2727H66.2926V47.9858H62.3168V49.7756H65.9815V51.4929H62.3168V53.2869H66.2926V55H60.2074ZM69.706 55L67.1662 46.2727H69.4972L70.8139 51.9915H70.8864L72.3906 46.2727H74.2912L75.7955 52.0043H75.8679L77.1889 46.2727H79.5156L76.9801 55H74.9474L73.375 49.7074H73.3068L71.7344 55H69.706ZM82.9652 55V46.2727H86.5703C87.2237 46.2727 87.7876 46.4006 88.2621 46.6562C88.7393 46.9091 89.1072 47.2628 89.3658 47.7173C89.6243 48.169 89.7536 48.6946 89.7536 49.294C89.7536 49.8963 89.6214 50.4233 89.3572 50.875C89.0959 51.3239 88.7223 51.6719 88.2365 51.919C87.7507 52.1662 87.174 52.2898 86.5064 52.2898H84.282V50.6278H86.1143C86.4325 50.6278 86.6982 50.5724 86.9112 50.4616C87.1271 50.3509 87.2905 50.196 87.4013 49.9972C87.5121 49.7955 87.5675 49.5611 87.5675 49.294C87.5675 49.0241 87.5121 48.7912 87.4013 48.5952C87.2905 48.3963 87.1271 48.2429 86.9112 48.1349C86.6953 48.027 86.4297 47.973 86.1143 47.973H85.0746V55H82.9652ZM96.0732 46.2727H98.1783V51.902C98.1783 52.5526 98.0234 53.1193 97.7138 53.6023C97.4041 54.0824 96.9723 54.4545 96.4183 54.7188C95.8643 54.9801 95.2209 55.1108 94.4879 55.1108C93.7464 55.1108 93.0987 54.9801 92.5447 54.7188C91.9908 54.4545 91.5604 54.0824 91.2536 53.6023C90.9467 53.1193 90.7933 52.5526 90.7933 51.902V46.2727H92.9027V51.7188C92.9027 52.0199 92.968 52.2884 93.0987 52.5241C93.2322 52.7599 93.4183 52.9446 93.657 53.0781C93.8956 53.2116 94.1726 53.2784 94.4879 53.2784C94.8033 53.2784 95.0788 53.2116 95.3146 53.0781C95.5533 52.9446 95.7393 52.7599 95.8729 52.5241C96.0064 52.2884 96.0732 52.0199 96.0732 51.7188V46.2727ZM99.5004 55V46.2727H103.105C103.759 46.2727 104.323 46.3906 104.797 46.6264C105.275 46.8594 105.642 47.1946 105.901 47.6321C106.159 48.0668 106.289 48.5824 106.289 49.179C106.289 49.7841 106.157 50.2983 105.892 50.7216C105.628 51.142 105.253 51.4631 104.767 51.6847C104.282 51.9034 103.706 52.0128 103.042 52.0128H100.762V50.3509H102.65C102.968 50.3509 103.233 50.3097 103.446 50.2273C103.662 50.142 103.826 50.0142 103.936 49.8438C104.047 49.6705 104.103 49.4489 104.103 49.179C104.103 48.9091 104.047 48.6861 103.936 48.5099C103.826 48.331 103.662 48.1974 103.446 48.1094C103.23 48.0185 102.965 47.973 102.65 47.973H101.61V55H99.5004ZM104.414 51.0114L106.587 55H104.286L102.155 51.0114H104.414ZM115.368 49.4347H113.237C113.208 49.2159 113.15 49.0185 113.062 48.8423C112.974 48.6662 112.858 48.5156 112.713 48.3906C112.568 48.2656 112.396 48.1705 112.197 48.1051C112.001 48.0369 111.784 48.0028 111.545 48.0028C111.122 48.0028 110.757 48.1065 110.45 48.3139C110.146 48.5213 109.912 48.821 109.747 49.2131C109.585 49.6051 109.504 50.0795 109.504 50.6364C109.504 51.2159 109.586 51.7017 109.751 52.0938C109.919 52.483 110.153 52.777 110.454 52.9759C110.758 53.1719 111.118 53.2699 111.532 53.2699C111.765 53.2699 111.977 53.2401 112.167 53.1804C112.36 53.1207 112.529 53.0341 112.674 52.9205C112.822 52.804 112.943 52.6634 113.037 52.4986C113.133 52.331 113.2 52.142 113.237 51.9318L115.368 51.9446C115.331 52.331 115.218 52.7116 115.031 53.0866C114.846 53.4616 114.592 53.804 114.268 54.1136C113.944 54.4205 113.549 54.6648 113.083 54.8466C112.62 55.0284 112.089 55.1193 111.49 55.1193C110.7 55.1193 109.993 54.946 109.368 54.5994C108.745 54.25 108.254 53.7415 107.893 53.0739C107.532 52.4062 107.352 51.5937 107.352 50.6364C107.352 49.6761 107.535 48.8622 107.902 48.1946C108.268 47.527 108.764 47.0199 109.389 46.6733C110.014 46.3267 110.714 46.1534 111.49 46.1534C112.018 46.1534 112.507 46.2273 112.956 46.375C113.404 46.5199 113.799 46.733 114.14 47.0142C114.481 47.2926 114.758 47.6349 114.971 48.0412C115.184 48.4474 115.316 48.9119 115.368 49.4347ZM116.575 55V46.2727H118.684V49.7756H122.123V46.2727H124.228V55H122.123V51.4929H118.684V55H116.575ZM127.439 55H125.172L128.116 46.2727H130.925L133.869 55H131.602L129.553 48.4716H129.484L127.439 55ZM127.136 51.5653H131.875V53.1676H127.136V51.5653ZM139.257 48.8892C139.228 48.5767 139.102 48.3338 138.877 48.1605C138.656 47.9844 138.339 47.8963 137.927 47.8963C137.654 47.8963 137.427 47.9318 137.245 48.0028C137.064 48.0739 136.927 48.1719 136.836 48.2969C136.745 48.419 136.699 48.5597 136.696 48.7188C136.69 48.8494 136.716 48.9645 136.772 49.0639C136.832 49.1634 136.917 49.2514 137.028 49.3281C137.142 49.402 137.278 49.4673 137.437 49.5241C137.596 49.581 137.775 49.6307 137.974 49.6733L138.724 49.8438C139.156 49.9375 139.537 50.0625 139.866 50.2188C140.199 50.375 140.477 50.5611 140.701 50.777C140.929 50.9929 141.1 51.2415 141.217 51.5227C141.333 51.804 141.393 52.1193 141.396 52.4688C141.393 53.0199 141.254 53.4929 140.978 53.8878C140.703 54.2827 140.306 54.5852 139.789 54.7955C139.275 55.0057 138.654 55.1108 137.927 55.1108C137.197 55.1108 136.561 55.0014 136.018 54.7827C135.475 54.5639 135.054 54.2315 134.752 53.7855C134.451 53.3395 134.297 52.7756 134.288 52.0938H136.308C136.325 52.375 136.4 52.6094 136.534 52.7969C136.667 52.9844 136.85 53.1264 137.083 53.223C137.319 53.3196 137.592 53.3679 137.902 53.3679C138.186 53.3679 138.427 53.3295 138.626 53.2528C138.828 53.1761 138.983 53.0696 139.091 52.9332C139.199 52.7969 139.254 52.6406 139.257 52.4645C139.254 52.2997 139.203 52.1591 139.103 52.0426C139.004 51.9233 138.85 51.821 138.643 51.7358C138.439 51.6477 138.177 51.5668 137.859 51.4929L136.947 51.2798C136.191 51.1065 135.596 50.8267 135.162 50.4403C134.727 50.0511 134.511 49.5256 134.514 48.8636C134.511 48.3239 134.656 47.8509 134.949 47.4446C135.241 47.0384 135.646 46.7216 136.163 46.4943C136.68 46.267 137.27 46.1534 137.931 46.1534C138.608 46.1534 139.194 46.2685 139.691 46.4986C140.191 46.7259 140.579 47.0455 140.855 47.4574C141.13 47.8693 141.271 48.3466 141.277 48.8892H139.257ZM142.461 55V46.2727H148.547V47.9858H144.571V49.7756H148.235V51.4929H144.571V53.2869H148.547V55H142.461Z" fill="black"/>
<path d="M204 48.5C203.172 48.5 202.5 49.1716 202.5 50C202.5 50.8284 203.172 51.5 204 51.5V50V48.5ZM301.061 51.0607C301.646 50.4749 301.646 49.5251 301.061 48.9393L291.515 39.3934C290.929 38.8076 289.979 38.8076 289.393 39.3934C288.808 39.9792 288.808 40.9289 289.393 41.5147L297.879 50L289.393 58.4853C288.808 59.0711 288.808 60.0208 289.393 60.6066C289.979 61.1924 290.929 61.1924 291.515 60.6066L301.061 51.0607ZM204 50V51.5H206.88V50V48.5H204V50ZM210.72 50V51.5H216.48V50V48.5H210.72V50ZM220.32 50V51.5H226.08V50V48.5H220.32V50ZM229.92 50V51.5H235.68V50V48.5H229.92V50ZM239.52 50V51.5H245.28V50V48.5H239.52V50ZM249.12 50V51.5H254.88V50V48.5H249.12V50ZM258.72 50V51.5H264.48V50V48.5H258.72V50ZM268.32 50V51.5H274.08V50V48.5H268.32V50ZM277.92 50V51.5H283.68V50V48.5H277.92V50ZM287.52 50V51.5H293.28V50V48.5H287.52V50ZM297.12 50V51.5H300V50V48.5H297.12V50Z" fill="#CECCCC"/>
</svg>
