<svg width="733" height="690" viewBox="0 0 733 690" fill="none" xmlns="http://www.w3.org/2000/svg">
<mask id="mask0_74_1547" style="mask-type:alpha" maskUnits="userSpaceOnUse" x="0" y="0" width="733" height="690">
<rect width="733" height="690" fill="#D9D9D9"/>
</mask>
<g mask="url(#mask0_74_1547)">
<g clip-path="url(#clip0_74_1547)">
<rect width="1128" height="1114" fill="white"/>
<path d="M731.5 19.5H1.5V688.5H731.5V19.5Z" stroke="black" stroke-width="2"/>
<path d="M151.5 306.5H36.5C28.2157 306.5 21.5 313.216 21.5 321.5V331.5C21.5 339.784 28.2157 346.5 36.5 346.5H151.5C159.784 346.5 166.5 339.784 166.5 331.5V321.5C166.5 313.216 159.784 306.5 151.5 306.5Z" fill="#FFF4C3" stroke="black"/>
<path d="M151.5 306.5H36.5C28.2157 306.5 21.5 313.216 21.5 321.5V331.5C21.5 339.784 28.2157 346.5 36.5 346.5H151.5C159.784 346.5 166.5 339.784 166.5 331.5V321.5C166.5 313.216 159.784 306.5 151.5 306.5Z" stroke="black"/>
<path d="M62.9775 315.273V324H61.9206V316.381H61.8695L59.7388 317.795V316.722L61.9206 315.273H62.9775ZM65.7218 324.068C65.5115 324.068 65.3311 323.993 65.1806 323.842C65.03 323.692 64.9547 323.511 64.9547 323.301C64.9547 323.091 65.03 322.911 65.1806 322.76C65.3311 322.609 65.5115 322.534 65.7218 322.534C65.932 322.534 66.1124 322.609 66.263 322.76C66.4135 322.911 66.4888 323.091 66.4888 323.301C66.4888 323.44 66.4533 323.568 66.3823 323.685C66.3141 323.801 66.2218 323.895 66.1053 323.966C65.9917 324.034 65.8638 324.068 65.7218 324.068ZM68.0719 322.21V321.341L71.9071 315.273H72.5378V316.619H72.1117L69.214 321.205V321.273H74.3787V322.21H68.0719ZM72.1799 324V321.946V321.541V315.273H73.1855V324H72.1799ZM84.4473 319.168V320.105H78.4473V319.168H84.4473ZM89.237 324H88.1291L91.3336 315.273H92.4245L95.6291 324H94.5211L91.9132 316.653H91.845L89.237 324ZM89.6461 320.591H94.112V321.528H89.6461V320.591ZM99.5112 324.136C98.8975 324.136 98.3691 323.991 97.926 323.702C97.4828 323.412 97.1419 323.013 96.9032 322.504C96.6646 321.996 96.5453 321.415 96.5453 320.761C96.5453 320.097 96.6674 319.51 96.9118 319.001C97.1589 318.49 97.5027 318.091 97.943 317.804C98.3862 317.514 98.9032 317.369 99.4941 317.369C99.9544 317.369 100.369 317.455 100.738 317.625C101.108 317.795 101.41 318.034 101.646 318.341C101.882 318.648 102.028 319.006 102.085 319.415H101.079C101.003 319.116 100.832 318.852 100.568 318.622C100.307 318.389 99.9544 318.273 99.5112 318.273C99.1191 318.273 98.7754 318.375 98.4799 318.58C98.1873 318.781 97.9586 319.067 97.7939 319.436C97.6319 319.803 97.551 320.233 97.551 320.727C97.551 321.233 97.6305 321.673 97.7896 322.048C97.9515 322.423 98.1788 322.714 98.4714 322.922C98.7669 323.129 99.1135 323.233 99.5112 323.233C99.7725 323.233 100.01 323.188 100.223 323.097C100.436 323.006 100.616 322.875 100.764 322.705C100.912 322.534 101.017 322.33 101.079 322.091H102.085C102.028 322.477 101.888 322.825 101.663 323.135C101.442 323.442 101.148 323.686 100.781 323.868C100.417 324.047 99.9941 324.136 99.5112 324.136ZM106.214 324.136C105.601 324.136 105.072 323.991 104.629 323.702C104.186 323.412 103.845 323.013 103.606 322.504C103.368 321.996 103.248 321.415 103.248 320.761C103.248 320.097 103.371 319.51 103.615 319.001C103.862 318.49 104.206 318.091 104.646 317.804C105.089 317.514 105.606 317.369 106.197 317.369C106.657 317.369 107.072 317.455 107.442 317.625C107.811 317.795 108.113 318.034 108.349 318.341C108.585 318.648 108.731 319.006 108.788 319.415H107.782C107.706 319.116 107.535 318.852 107.271 318.622C107.01 318.389 106.657 318.273 106.214 318.273C105.822 318.273 105.479 318.375 105.183 318.58C104.89 318.781 104.662 319.067 104.497 319.436C104.335 319.803 104.254 320.233 104.254 320.727C104.254 321.233 104.334 321.673 104.493 322.048C104.655 322.423 104.882 322.714 105.175 322.922C105.47 323.129 105.817 323.233 106.214 323.233C106.476 323.233 106.713 323.188 106.926 323.097C107.139 323.006 107.319 322.875 107.467 322.705C107.615 322.534 107.72 322.33 107.782 322.091H108.788C108.731 322.477 108.591 322.825 108.366 323.135C108.145 323.442 107.851 323.686 107.484 323.868C107.121 324.047 106.697 324.136 106.214 324.136ZM113.003 324.136C112.372 324.136 111.828 323.997 111.371 323.719C110.916 323.438 110.565 323.045 110.318 322.543C110.074 322.037 109.952 321.449 109.952 320.778C109.952 320.108 110.074 319.517 110.318 319.006C110.565 318.491 110.909 318.091 111.349 317.804C111.792 317.514 112.309 317.369 112.9 317.369C113.241 317.369 113.578 317.426 113.91 317.54C114.243 317.653 114.545 317.838 114.818 318.094C115.091 318.347 115.308 318.682 115.47 319.099C115.632 319.517 115.713 320.031 115.713 320.642V321.068H110.667V320.199H114.69C114.69 319.83 114.616 319.5 114.469 319.21C114.324 318.92 114.116 318.692 113.846 318.524C113.579 318.357 113.264 318.273 112.9 318.273C112.5 318.273 112.153 318.372 111.861 318.571C111.571 318.767 111.348 319.023 111.192 319.338C111.035 319.653 110.957 319.991 110.957 320.352V320.932C110.957 321.426 111.042 321.845 111.213 322.189C111.386 322.53 111.626 322.79 111.933 322.969C112.24 323.145 112.596 323.233 113.003 323.233C113.267 323.233 113.506 323.196 113.719 323.122C113.934 323.045 114.121 322.932 114.277 322.781C114.433 322.628 114.554 322.437 114.639 322.21L115.611 322.483C115.508 322.812 115.336 323.102 115.095 323.352C114.854 323.599 114.555 323.793 114.2 323.932C113.845 324.068 113.446 324.136 113.003 324.136ZM117.243 326.455V317.455H118.214V318.494H118.334C118.407 318.381 118.51 318.236 118.64 318.06C118.774 317.881 118.964 317.722 119.211 317.582C119.461 317.44 119.8 317.369 120.226 317.369C120.777 317.369 121.263 317.507 121.683 317.783C122.104 318.058 122.432 318.449 122.667 318.955C122.903 319.46 123.021 320.057 123.021 320.744C123.021 321.438 122.903 322.038 122.667 322.547C122.432 323.053 122.105 323.445 121.687 323.723C121.27 323.999 120.788 324.136 120.243 324.136C119.822 324.136 119.486 324.067 119.233 323.928C118.98 323.786 118.785 323.625 118.649 323.446C118.513 323.264 118.407 323.114 118.334 322.994H118.248V326.455H117.243ZM118.231 320.727C118.231 321.222 118.304 321.658 118.449 322.036C118.594 322.411 118.805 322.705 119.084 322.918C119.362 323.128 119.703 323.233 120.106 323.233C120.527 323.233 120.878 323.122 121.159 322.901C121.443 322.676 121.656 322.375 121.798 321.997C121.943 321.616 122.015 321.193 122.015 320.727C122.015 320.267 121.944 319.852 121.802 319.483C121.663 319.111 121.452 318.817 121.167 318.601C120.886 318.382 120.532 318.273 120.106 318.273C119.697 318.273 119.354 318.376 119.075 318.584C118.797 318.788 118.586 319.075 118.444 319.445C118.302 319.811 118.231 320.239 118.231 320.727ZM127.402 317.455V318.307H124.01V317.455H127.402ZM124.998 315.886H126.004V322.125C126.004 322.409 126.045 322.622 126.128 322.764C126.213 322.903 126.321 322.997 126.452 323.045C126.585 323.091 126.726 323.114 126.873 323.114C126.984 323.114 127.075 323.108 127.146 323.097C127.217 323.082 127.274 323.071 127.317 323.062L127.521 323.966C127.453 323.991 127.358 324.017 127.236 324.043C127.113 324.071 126.959 324.085 126.771 324.085C126.487 324.085 126.209 324.024 125.936 323.902C125.666 323.78 125.442 323.594 125.263 323.344C125.086 323.094 124.998 322.778 124.998 322.398V315.886Z" fill="black"/>
<path d="M32.2525 338V331.455H33.2241V332.477H33.3093C33.4457 332.128 33.6658 331.857 33.9698 331.663C34.2738 331.467 34.6388 331.369 35.065 331.369C35.4968 331.369 35.8562 331.467 36.1431 331.663C36.4329 331.857 36.6587 332.128 36.8207 332.477H36.8888C37.0565 332.139 37.3079 331.871 37.6431 331.672C37.9783 331.47 38.3803 331.369 38.8491 331.369C39.4343 331.369 39.913 331.553 40.2852 331.919C40.6573 332.283 40.8434 332.849 40.8434 333.619V338H39.8377V333.619C39.8377 333.136 39.7056 332.791 39.4414 332.584C39.1772 332.376 38.8661 332.273 38.5082 332.273C38.0479 332.273 37.6914 332.412 37.4386 332.69C37.1857 332.966 37.0593 333.315 37.0593 333.739V338H36.0366V333.517C36.0366 333.145 35.9158 332.845 35.6744 332.618C35.4329 332.388 35.1218 332.273 34.7411 332.273C34.4798 332.273 34.2354 332.342 34.0082 332.482C33.7837 332.621 33.6019 332.814 33.4627 333.061C33.3263 333.305 33.2582 333.588 33.2582 333.909V338H32.2525ZM44.6083 338.153C44.1935 338.153 43.8171 338.075 43.479 337.919C43.141 337.76 42.8725 337.531 42.6737 337.233C42.4748 336.932 42.3754 336.568 42.3754 336.142C42.3754 335.767 42.4492 335.463 42.5969 335.23C42.7447 334.994 42.9421 334.81 43.1893 334.676C43.4364 334.543 43.7092 334.443 44.0075 334.378C44.3086 334.31 44.6112 334.256 44.9151 334.216C45.3129 334.165 45.6353 334.126 45.8825 334.101C46.1325 334.072 46.3143 334.026 46.4279 333.96C46.5444 333.895 46.6026 333.781 46.6026 333.619V333.585C46.6026 333.165 46.4876 332.838 46.2575 332.605C46.0302 332.372 45.685 332.256 45.2219 332.256C44.7418 332.256 44.3654 332.361 44.0927 332.571C43.82 332.781 43.6282 333.006 43.5174 333.244L42.5629 332.903C42.7333 332.506 42.9606 332.196 43.2447 331.974C43.5316 331.75 43.8441 331.594 44.1822 331.506C44.5231 331.415 44.8583 331.369 45.1879 331.369C45.3981 331.369 45.6396 331.395 45.9123 331.446C46.1879 331.494 46.4535 331.595 46.7092 331.749C46.9677 331.902 47.1822 332.134 47.3526 332.443C47.5231 332.753 47.6083 333.168 47.6083 333.688V338H46.6026V337.114H46.5515C46.4833 337.256 46.3697 337.408 46.2106 337.57C46.0515 337.732 45.8398 337.869 45.5756 337.983C45.3114 338.097 44.989 338.153 44.6083 338.153ZM44.7617 337.25C45.1594 337.25 45.4947 337.172 45.7674 337.016C46.043 336.859 46.2504 336.658 46.3896 336.411C46.5316 336.163 46.6026 335.903 46.6026 335.631V334.71C46.56 334.761 46.4663 334.808 46.3214 334.851C46.1793 334.891 46.0146 334.926 45.8271 334.957C45.6424 334.986 45.462 335.011 45.2859 335.034C45.1126 335.054 44.9719 335.071 44.864 335.085C44.6026 335.119 44.3583 335.175 44.131 335.251C43.9066 335.325 43.7248 335.437 43.5856 335.588C43.4492 335.736 43.381 335.937 43.381 336.193C43.381 336.543 43.5103 336.807 43.7688 336.986C44.0302 337.162 44.3612 337.25 44.7617 337.25ZM49.4439 338V331.455H50.4496V338H49.4439ZM49.9553 330.364C49.7592 330.364 49.5902 330.297 49.4482 330.163C49.3089 330.03 49.2393 329.869 49.2393 329.682C49.2393 329.494 49.3089 329.334 49.4482 329.2C49.5902 329.067 49.7592 329 49.9553 329C50.1513 329 50.3189 329.067 50.4581 329.2C50.6001 329.334 50.6712 329.494 50.6712 329.682C50.6712 329.869 50.6001 330.03 50.4581 330.163C50.3189 330.297 50.1513 330.364 49.9553 330.364ZM53.2972 334.062V338H52.2915V331.455H53.2631V332.477H53.3484C53.5018 332.145 53.7347 331.878 54.0472 331.676C54.3597 331.472 54.7631 331.369 55.2575 331.369C55.7006 331.369 56.0884 331.46 56.4208 331.642C56.7532 331.821 57.0117 332.094 57.1964 332.46C57.381 332.824 57.4734 333.284 57.4734 333.841V338H56.4677V333.909C56.4677 333.395 56.3342 332.994 56.0671 332.707C55.8001 332.418 55.4336 332.273 54.9677 332.273C54.6467 332.273 54.3597 332.342 54.1069 332.482C53.8569 332.621 53.6594 332.824 53.5146 333.091C53.3697 333.358 53.2972 333.682 53.2972 334.062ZM62.1577 331.455V332.307H58.7656V331.455H62.1577ZM59.7543 329.886H60.7599V336.125C60.7599 336.409 60.8011 336.622 60.8835 336.764C60.9688 336.903 61.0767 336.997 61.2074 337.045C61.3409 337.091 61.4815 337.114 61.6293 337.114C61.7401 337.114 61.831 337.108 61.902 337.097C61.973 337.082 62.0298 337.071 62.0724 337.062L62.277 337.966C62.2088 337.991 62.1136 338.017 61.9915 338.043C61.8693 338.071 61.7145 338.085 61.527 338.085C61.2429 338.085 60.9645 338.024 60.6918 337.902C60.4219 337.78 60.1974 337.594 60.0185 337.344C59.8423 337.094 59.7543 336.778 59.7543 336.398V329.886ZM66.3445 338.136C65.7138 338.136 65.1697 337.997 64.7124 337.719C64.2578 337.438 63.907 337.045 63.6598 336.543C63.4155 336.037 63.2933 335.449 63.2933 334.778C63.2933 334.108 63.4155 333.517 63.6598 333.006C63.907 332.491 64.2507 332.091 64.6911 331.804C65.1342 331.514 65.6513 331.369 66.2422 331.369C66.5831 331.369 66.9197 331.426 67.2521 331.54C67.5845 331.653 67.8871 331.838 68.1598 332.094C68.4325 332.347 68.6499 332.682 68.8118 333.099C68.9737 333.517 69.0547 334.031 69.0547 334.642V335.068H64.0092V334.199H68.032C68.032 333.83 67.9581 333.5 67.8104 333.21C67.6655 332.92 67.4581 332.692 67.1882 332.524C66.9212 332.357 66.6058 332.273 66.2422 332.273C65.8416 332.273 65.495 332.372 65.2024 332.571C64.9126 332.767 64.6896 333.023 64.5334 333.338C64.3771 333.653 64.299 333.991 64.299 334.352V334.932C64.299 335.426 64.3842 335.845 64.5547 336.189C64.728 336.53 64.968 336.79 65.2749 336.969C65.5817 337.145 65.9382 337.233 66.3445 337.233C66.6087 337.233 66.8473 337.196 67.0604 337.122C67.2763 337.045 67.4624 336.932 67.6186 336.781C67.7749 336.628 67.8956 336.437 67.9808 336.21L68.9524 336.483C68.8501 336.812 68.6783 337.102 68.4368 337.352C68.1953 337.599 67.897 337.793 67.5419 337.932C67.1868 338.068 66.7876 338.136 66.3445 338.136ZM71.5902 334.062V338H70.5845V331.455H71.5561V332.477H71.6413C71.7947 332.145 72.0277 331.878 72.3402 331.676C72.6527 331.472 73.0561 331.369 73.5504 331.369C73.9936 331.369 74.3814 331.46 74.7138 331.642C75.0462 331.821 75.3047 332.094 75.4893 332.46C75.674 332.824 75.7663 333.284 75.7663 333.841V338H74.7607V333.909C74.7607 333.395 74.6271 332.994 74.3601 332.707C74.093 332.418 73.7266 332.273 73.2607 332.273C72.9396 332.273 72.6527 332.342 72.3999 332.482C72.1499 332.621 71.9524 332.824 71.8075 333.091C71.6626 333.358 71.5902 333.682 71.5902 334.062ZM79.5302 338.153C79.1154 338.153 78.739 338.075 78.4009 337.919C78.0629 337.76 77.7944 337.531 77.5955 337.233C77.3967 336.932 77.2972 336.568 77.2972 336.142C77.2972 335.767 77.3711 335.463 77.5188 335.23C77.6665 334.994 77.864 334.81 78.1112 334.676C78.3583 334.543 78.631 334.443 78.9293 334.378C79.2305 334.31 79.533 334.256 79.837 334.216C80.2347 334.165 80.5572 334.126 80.8043 334.101C81.0543 334.072 81.2362 334.026 81.3498 333.96C81.4663 333.895 81.5245 333.781 81.5245 333.619V333.585C81.5245 333.165 81.4094 332.838 81.1793 332.605C80.9521 332.372 80.6069 332.256 80.1438 332.256C79.6637 332.256 79.2873 332.361 79.0146 332.571C78.7418 332.781 78.5501 333.006 78.4393 333.244L77.4847 332.903C77.6552 332.506 77.8825 332.196 78.1665 331.974C78.4535 331.75 78.766 331.594 79.104 331.506C79.445 331.415 79.7802 331.369 80.1097 331.369C80.32 331.369 80.5614 331.395 80.8342 331.446C81.1097 331.494 81.3754 331.595 81.631 331.749C81.8896 331.902 82.104 332.134 82.2745 332.443C82.445 332.753 82.5302 333.168 82.5302 333.688V338H81.5245V337.114H81.4734C81.4052 337.256 81.2915 337.408 81.1325 337.57C80.9734 337.732 80.7617 337.869 80.4975 337.983C80.2333 338.097 79.9109 338.153 79.5302 338.153ZM79.6836 337.25C80.0813 337.25 80.4165 337.172 80.6893 337.016C80.9648 336.859 81.1722 336.658 81.3114 336.411C81.4535 336.163 81.5245 335.903 81.5245 335.631V334.71C81.4819 334.761 81.3881 334.808 81.2433 334.851C81.1012 334.891 80.9364 334.926 80.7489 334.957C80.5643 334.986 80.3839 335.011 80.2077 335.034C80.0344 335.054 79.8938 335.071 79.7859 335.085C79.5245 335.119 79.2802 335.175 79.0529 335.251C78.8285 335.325 78.6467 335.437 78.5075 335.588C78.3711 335.736 78.3029 335.937 78.3029 336.193C78.3029 336.543 78.4322 336.807 78.6907 336.986C78.9521 337.162 79.283 337.25 79.6836 337.25ZM85.3714 334.062V338H84.3658V331.455H85.3374V332.477H85.4226C85.576 332.145 85.8089 331.878 86.1214 331.676C86.4339 331.472 86.8374 331.369 87.3317 331.369C87.7749 331.369 88.1626 331.46 88.495 331.642C88.8274 331.821 89.0859 332.094 89.2706 332.46C89.4553 332.824 89.5476 333.284 89.5476 333.841V338H88.5419V333.909C88.5419 333.395 88.4084 332.994 88.1413 332.707C87.8743 332.418 87.5078 332.273 87.0419 332.273C86.7209 332.273 86.4339 332.342 86.1811 332.482C85.9311 332.621 85.7337 332.824 85.5888 333.091C85.4439 333.358 85.3714 333.682 85.3714 334.062ZM94.0444 338.136C93.4308 338.136 92.9023 337.991 92.4592 337.702C92.016 337.412 91.6751 337.013 91.4364 336.504C91.1978 335.996 91.0785 335.415 91.0785 334.761C91.0785 334.097 91.2006 333.51 91.445 333.001C91.6921 332.49 92.0359 332.091 92.4762 331.804C92.9194 331.514 93.4364 331.369 94.0273 331.369C94.4876 331.369 94.9023 331.455 95.2717 331.625C95.641 331.795 95.9435 332.034 96.1793 332.341C96.4151 332.648 96.5614 333.006 96.6183 333.415H95.6126C95.5359 333.116 95.3654 332.852 95.1012 332.622C94.8398 332.389 94.4876 332.273 94.0444 332.273C93.6523 332.273 93.3086 332.375 93.0131 332.58C92.7205 332.781 92.4918 333.067 92.3271 333.436C92.1651 333.803 92.0842 334.233 92.0842 334.727C92.0842 335.233 92.1637 335.673 92.3228 336.048C92.4847 336.423 92.712 336.714 93.0046 336.922C93.3001 337.129 93.6467 337.233 94.0444 337.233C94.3058 337.233 94.543 337.188 94.756 337.097C94.9691 337.006 95.1495 336.875 95.2972 336.705C95.445 336.534 95.5501 336.33 95.6126 336.091H96.6183C96.5614 336.477 96.4208 336.825 96.1964 337.135C95.9748 337.442 95.6808 337.686 95.3143 337.868C94.9506 338.047 94.5273 338.136 94.0444 338.136ZM100.833 338.136C100.202 338.136 99.658 337.997 99.2006 337.719C98.7461 337.438 98.3952 337.045 98.1481 336.543C97.9038 336.037 97.7816 335.449 97.7816 334.778C97.7816 334.108 97.9038 333.517 98.1481 333.006C98.3952 332.491 98.739 332.091 99.1793 331.804C99.6225 331.514 100.14 331.369 100.73 331.369C101.071 331.369 101.408 331.426 101.74 331.54C102.073 331.653 102.375 331.838 102.648 332.094C102.921 332.347 103.138 332.682 103.3 333.099C103.462 333.517 103.543 334.031 103.543 334.642V335.068H98.4975V334.199H102.52C102.52 333.83 102.446 333.5 102.299 333.21C102.154 332.92 101.946 332.692 101.676 332.524C101.409 332.357 101.094 332.273 100.73 332.273C100.33 332.273 99.9833 332.372 99.6907 332.571C99.4009 332.767 99.1779 333.023 99.0217 333.338C98.8654 333.653 98.7873 333.991 98.7873 334.352V334.932C98.7873 335.426 98.8725 335.845 99.043 336.189C99.2163 336.53 99.4563 336.79 99.7631 336.969C100.07 337.145 100.426 337.233 100.833 337.233C101.097 337.233 101.336 337.196 101.549 337.122C101.765 337.045 101.951 336.932 102.107 336.781C102.263 336.628 102.384 336.437 102.469 336.21L103.441 336.483C103.338 336.812 103.167 337.102 102.925 337.352C102.684 337.599 102.385 337.793 102.03 337.932C101.675 338.068 101.276 338.136 100.833 338.136ZM111.107 338.136C110.493 338.136 109.965 337.991 109.522 337.702C109.078 337.412 108.738 337.013 108.499 336.504C108.26 335.996 108.141 335.415 108.141 334.761C108.141 334.097 108.263 333.51 108.507 333.001C108.755 332.49 109.098 332.091 109.539 331.804C109.982 331.514 110.499 331.369 111.09 331.369C111.55 331.369 111.965 331.455 112.334 331.625C112.703 331.795 113.006 332.034 113.242 332.341C113.478 332.648 113.624 333.006 113.681 333.415H112.675C112.598 333.116 112.428 332.852 112.164 332.622C111.902 332.389 111.55 332.273 111.107 332.273C110.715 332.273 110.371 332.375 110.076 332.58C109.783 332.781 109.554 333.067 109.39 333.436C109.228 333.803 109.147 334.233 109.147 334.727C109.147 335.233 109.226 335.673 109.385 336.048C109.547 336.423 109.775 336.714 110.067 336.922C110.363 337.129 110.709 337.233 111.107 337.233C111.368 337.233 111.605 337.188 111.819 337.097C112.032 337.006 112.212 336.875 112.36 336.705C112.507 336.534 112.613 336.33 112.675 336.091H113.681C113.624 336.477 113.483 336.825 113.259 337.135C113.037 337.442 112.743 337.686 112.377 337.868C112.013 338.047 111.59 338.136 111.107 338.136ZM116.157 334.062V338H115.151V329.273H116.157V332.477H116.242C116.395 332.139 116.625 331.871 116.932 331.672C117.242 331.47 117.654 331.369 118.168 331.369C118.614 331.369 119.005 331.459 119.34 331.638C119.675 331.814 119.935 332.085 120.12 332.452C120.307 332.815 120.401 333.278 120.401 333.841V338H119.395V333.909C119.395 333.389 119.26 332.987 118.99 332.703C118.723 332.416 118.353 332.273 117.878 332.273C117.549 332.273 117.253 332.342 116.992 332.482C116.733 332.621 116.529 332.824 116.378 333.091C116.23 333.358 116.157 333.682 116.157 334.062ZM124.167 338.153C123.752 338.153 123.376 338.075 123.038 337.919C122.7 337.76 122.431 337.531 122.232 337.233C122.033 336.932 121.934 336.568 121.934 336.142C121.934 335.767 122.008 335.463 122.156 335.23C122.303 334.994 122.501 334.81 122.748 334.676C122.995 334.543 123.268 334.443 123.566 334.378C123.867 334.31 124.17 334.256 124.474 334.216C124.871 334.165 125.194 334.126 125.441 334.101C125.691 334.072 125.873 334.026 125.987 333.96C126.103 333.895 126.161 333.781 126.161 333.619V333.585C126.161 333.165 126.046 332.838 125.816 332.605C125.589 332.372 125.244 332.256 124.781 332.256C124.3 332.256 123.924 332.361 123.651 332.571C123.379 332.781 123.187 333.006 123.076 333.244L122.121 332.903C122.292 332.506 122.519 332.196 122.803 331.974C123.09 331.75 123.403 331.594 123.741 331.506C124.082 331.415 124.417 331.369 124.746 331.369C124.957 331.369 125.198 331.395 125.471 331.446C125.746 331.494 126.012 331.595 126.268 331.749C126.526 331.902 126.741 332.134 126.911 332.443C127.082 332.753 127.167 333.168 127.167 333.688V338H126.161V337.114H126.11C126.042 337.256 125.928 337.408 125.769 337.57C125.61 337.732 125.398 337.869 125.134 337.983C124.87 338.097 124.548 338.153 124.167 338.153ZM124.32 337.25C124.718 337.25 125.053 337.172 125.326 337.016C125.602 336.859 125.809 336.658 125.948 336.411C126.09 336.163 126.161 335.903 126.161 335.631V334.71C126.119 334.761 126.025 334.808 125.88 334.851C125.738 334.891 125.573 334.926 125.386 334.957C125.201 334.986 125.021 335.011 124.844 335.034C124.671 335.054 124.531 335.071 124.423 335.085C124.161 335.119 123.917 335.175 123.69 335.251C123.465 335.325 123.283 335.437 123.144 335.588C123.008 335.736 122.94 335.937 122.94 336.193C122.94 336.543 123.069 336.807 123.327 336.986C123.589 337.162 123.92 337.25 124.32 337.25ZM130.008 334.062V338H129.002V331.455H129.974V332.477H130.059C130.213 332.145 130.446 331.878 130.758 331.676C131.071 331.472 131.474 331.369 131.968 331.369C132.412 331.369 132.799 331.46 133.132 331.642C133.464 331.821 133.723 332.094 133.907 332.46C134.092 332.824 134.184 333.284 134.184 333.841V338H133.179V333.909C133.179 333.395 133.045 332.994 132.778 332.707C132.511 332.418 132.145 332.273 131.679 332.273C131.358 332.273 131.071 332.342 130.818 332.482C130.568 332.621 130.37 332.824 130.225 333.091C130.081 333.358 130.008 333.682 130.008 334.062ZM138.664 340.591C138.178 340.591 137.761 340.528 137.411 340.403C137.062 340.281 136.771 340.119 136.538 339.918C136.308 339.719 136.124 339.506 135.988 339.278L136.789 338.716C136.88 338.835 136.995 338.972 137.134 339.125C137.273 339.281 137.464 339.416 137.705 339.53C137.95 339.646 138.269 339.705 138.664 339.705C139.192 339.705 139.629 339.577 139.972 339.321C140.316 339.065 140.488 338.665 140.488 338.119V336.79H140.403C140.329 336.909 140.224 337.057 140.087 337.233C139.954 337.406 139.761 337.561 139.508 337.697C139.258 337.831 138.92 337.898 138.494 337.898C137.965 337.898 137.491 337.773 137.07 337.523C136.653 337.273 136.322 336.909 136.077 336.432C135.836 335.955 135.715 335.375 135.715 334.693C135.715 334.023 135.833 333.439 136.069 332.942C136.305 332.442 136.633 332.055 137.053 331.783C137.474 331.507 137.96 331.369 138.511 331.369C138.937 331.369 139.275 331.44 139.525 331.582C139.778 331.722 139.971 331.881 140.104 332.06C140.241 332.236 140.346 332.381 140.42 332.494H140.522V331.455H141.494V338.188C141.494 338.75 141.366 339.207 141.11 339.56C140.857 339.915 140.516 340.175 140.087 340.339C139.661 340.507 139.187 340.591 138.664 340.591ZM138.63 336.994C139.033 336.994 139.374 336.902 139.653 336.717C139.931 336.533 140.143 336.267 140.288 335.92C140.433 335.574 140.505 335.159 140.505 334.676C140.505 334.205 140.434 333.788 140.292 333.428C140.15 333.067 139.94 332.784 139.661 332.58C139.383 332.375 139.039 332.273 138.63 332.273C138.204 332.273 137.849 332.381 137.565 332.597C137.283 332.812 137.072 333.102 136.93 333.466C136.79 333.83 136.721 334.233 136.721 334.676C136.721 335.131 136.792 335.533 136.934 335.882C137.079 336.229 137.292 336.501 137.573 336.7C137.857 336.896 138.21 336.994 138.63 336.994ZM146.079 338.136C145.448 338.136 144.904 337.997 144.447 337.719C143.992 337.438 143.641 337.045 143.394 336.543C143.15 336.037 143.028 335.449 143.028 334.778C143.028 334.108 143.15 333.517 143.394 333.006C143.641 332.491 143.985 332.091 144.425 331.804C144.869 331.514 145.386 331.369 145.977 331.369C146.317 331.369 146.654 331.426 146.987 331.54C147.319 331.653 147.621 331.838 147.894 332.094C148.167 332.347 148.384 332.682 148.546 333.099C148.708 333.517 148.789 334.031 148.789 334.642V335.068H143.744V334.199H147.766C147.766 333.83 147.692 333.5 147.545 333.21C147.4 332.92 147.192 332.692 146.923 332.524C146.656 332.357 146.34 332.273 145.977 332.273C145.576 332.273 145.229 332.372 144.937 332.571C144.647 332.767 144.424 333.023 144.268 333.338C144.112 333.653 144.033 333.991 144.033 334.352V334.932C144.033 335.426 144.119 335.845 144.289 336.189C144.462 336.53 144.702 336.79 145.009 336.969C145.316 337.145 145.673 337.233 146.079 337.233C146.343 337.233 146.582 337.196 146.795 337.122C147.011 337.045 147.197 336.932 147.353 336.781C147.509 336.628 147.63 336.437 147.715 336.21L148.687 336.483C148.585 336.812 148.413 337.102 148.171 337.352C147.93 337.599 147.631 337.793 147.276 337.932C146.921 338.068 146.522 338.136 146.079 338.136ZM154.955 332.92L154.052 333.176C153.995 333.026 153.911 332.879 153.8 332.737C153.692 332.592 153.545 332.473 153.357 332.379C153.17 332.286 152.93 332.239 152.637 332.239C152.237 332.239 151.903 332.331 151.636 332.516C151.371 332.697 151.239 332.929 151.239 333.21C151.239 333.46 151.33 333.658 151.512 333.803C151.694 333.947 151.978 334.068 152.364 334.165L153.336 334.403C153.921 334.545 154.357 334.763 154.644 335.055C154.931 335.345 155.075 335.719 155.075 336.176C155.075 336.551 154.967 336.886 154.751 337.182C154.538 337.477 154.239 337.71 153.856 337.881C153.472 338.051 153.026 338.136 152.518 338.136C151.85 338.136 151.298 337.991 150.86 337.702C150.423 337.412 150.146 336.989 150.029 336.432L150.984 336.193C151.075 336.545 151.246 336.81 151.499 336.986C151.755 337.162 152.089 337.25 152.501 337.25C152.969 337.25 153.342 337.151 153.617 336.952C153.896 336.75 154.035 336.509 154.035 336.227C154.035 336 153.955 335.81 153.796 335.656C153.637 335.5 153.393 335.384 153.063 335.307L151.972 335.051C151.373 334.909 150.933 334.689 150.651 334.391C150.373 334.089 150.234 333.713 150.234 333.261C150.234 332.892 150.337 332.565 150.545 332.281C150.755 331.997 151.04 331.774 151.401 331.612C151.765 331.45 152.177 331.369 152.637 331.369C153.285 331.369 153.793 331.511 154.163 331.795C154.535 332.08 154.799 332.455 154.955 332.92Z" fill="black"/>
<path d="M350.5 123.5C356.023 123.5 360.5 119.023 360.5 113.5C360.5 107.977 356.023 103.5 350.5 103.5C344.977 103.5 340.5 107.977 340.5 113.5C340.5 119.023 344.977 123.5 350.5 123.5Z" fill="black" stroke="black"/>
<path d="M350.5 123.5C356.023 123.5 360.5 119.023 360.5 113.5C360.5 107.977 356.023 103.5 350.5 103.5C344.977 103.5 340.5 107.977 340.5 113.5C340.5 119.023 344.977 123.5 350.5 123.5Z" stroke="black"/>
<path d="M349.5 204L356.5 216.5L349.5 229L342.5 216.5L349.5 204Z" fill="#FFB570" stroke="black" stroke-miterlimit="10"/>
<path d="M349.5 204L356.5 216.5L349.5 229L342.5 216.5L349.5 204Z" stroke="black" stroke-miterlimit="10"/>
<path d="M345.5 530.167C349.182 530.167 352.167 527.182 352.167 523.5C352.167 519.818 349.182 516.833 345.5 516.833C341.818 516.833 338.833 519.818 338.833 523.5C338.833 527.182 341.818 530.167 345.5 530.167Z" fill="black" stroke="black"/>
<path d="M345.5 533.5C351.023 533.5 355.5 529.023 355.5 523.5C355.5 517.977 351.023 513.5 345.5 513.5C339.977 513.5 335.5 517.977 335.5 523.5C335.5 529.023 339.977 533.5 345.5 533.5Z" stroke="black"/>
<path d="M320.5 306.5H205.5C197.216 306.5 190.5 313.216 190.5 321.5V331.5C190.5 339.784 197.216 346.5 205.5 346.5H320.5C328.784 346.5 335.5 339.784 335.5 331.5V321.5C335.5 313.216 328.784 306.5 320.5 306.5Z" fill="#FFF4C3" stroke="black"/>
<path d="M320.5 306.5H205.5C197.216 306.5 190.5 313.216 190.5 321.5V331.5C190.5 339.784 197.216 346.5 205.5 346.5H320.5C328.784 346.5 335.5 339.784 335.5 331.5V321.5C335.5 313.216 328.784 306.5 320.5 306.5Z" stroke="black"/>
<path d="M232.78 315.273V324H231.723V316.381H231.672L229.542 317.795V316.722L231.723 315.273H232.78ZM235.525 324.068C235.314 324.068 235.134 323.993 234.983 323.842C234.833 323.692 234.757 323.511 234.757 323.301C234.757 323.091 234.833 322.911 234.983 322.76C235.134 322.609 235.314 322.534 235.525 322.534C235.735 322.534 235.915 322.609 236.066 322.76C236.216 322.911 236.292 323.091 236.292 323.301C236.292 323.44 236.256 323.568 236.185 323.685C236.117 323.801 236.025 323.895 235.908 323.966C235.794 324.034 235.667 324.068 235.525 324.068ZM240.631 324.119C240.131 324.119 239.68 324.02 239.28 323.821C238.879 323.622 238.558 323.349 238.317 323.003C238.075 322.656 237.943 322.261 237.92 321.818H238.943C238.983 322.213 239.162 322.54 239.48 322.798C239.801 323.054 240.185 323.182 240.631 323.182C240.989 323.182 241.307 323.098 241.585 322.93C241.866 322.763 242.087 322.533 242.246 322.24C242.408 321.945 242.489 321.611 242.489 321.239C242.489 320.858 242.405 320.518 242.237 320.22C242.072 319.919 241.845 319.682 241.555 319.509C241.266 319.335 240.935 319.247 240.562 319.244C240.295 319.241 240.021 319.283 239.74 319.368C239.459 319.45 239.227 319.557 239.045 319.688L238.057 319.568L238.585 315.273H243.119V316.21H239.472L239.165 318.784H239.216C239.395 318.642 239.619 318.524 239.889 318.43C240.159 318.337 240.44 318.29 240.733 318.29C241.267 318.29 241.743 318.418 242.161 318.673C242.581 318.926 242.911 319.273 243.149 319.713C243.391 320.153 243.511 320.656 243.511 321.222C243.511 321.778 243.386 322.276 243.136 322.713C242.889 323.148 242.548 323.491 242.114 323.744C241.679 323.994 241.185 324.119 240.631 324.119ZM253.676 319.168V320.105H247.676V319.168H253.676ZM258.108 324V315.273H261.056C261.738 315.273 262.298 315.389 262.735 315.622C263.173 315.852 263.497 316.169 263.707 316.572C263.917 316.976 264.022 317.435 264.022 317.949C264.022 318.463 263.917 318.919 263.707 319.317C263.497 319.714 263.174 320.027 262.74 320.254C262.305 320.479 261.75 320.591 261.074 320.591H258.687V319.636H261.039C261.505 319.636 261.88 319.568 262.164 319.432C262.451 319.295 262.659 319.102 262.787 318.852C262.917 318.599 262.983 318.298 262.983 317.949C262.983 317.599 262.917 317.294 262.787 317.033C262.656 316.771 262.447 316.57 262.16 316.428C261.873 316.283 261.494 316.21 261.022 316.21H259.164V324H258.108ZM262.216 320.08L264.363 324H263.136L261.022 320.08H262.216ZM268.321 324.136C267.69 324.136 267.146 323.997 266.689 323.719C266.234 323.438 265.884 323.045 265.636 322.543C265.392 322.037 265.27 321.449 265.27 320.778C265.27 320.108 265.392 319.517 265.636 319.006C265.884 318.491 266.227 318.091 266.668 317.804C267.111 317.514 267.628 317.369 268.219 317.369C268.56 317.369 268.896 317.426 269.229 317.54C269.561 317.653 269.864 317.838 270.136 318.094C270.409 318.347 270.626 318.682 270.788 319.099C270.95 319.517 271.031 320.031 271.031 320.642V321.068H265.986V320.199H270.009C270.009 319.83 269.935 319.5 269.787 319.21C269.642 318.92 269.435 318.692 269.165 318.524C268.898 318.357 268.582 318.273 268.219 318.273C267.818 318.273 267.472 318.372 267.179 318.571C266.889 318.767 266.666 319.023 266.51 319.338C266.354 319.653 266.276 319.991 266.276 320.352V320.932C266.276 321.426 266.361 321.845 266.531 322.189C266.705 322.53 266.945 322.79 267.251 322.969C267.558 323.145 267.915 323.233 268.321 323.233C268.585 323.233 268.824 323.196 269.037 323.122C269.253 323.045 269.439 322.932 269.595 322.781C269.751 322.628 269.872 322.437 269.957 322.21L270.929 322.483C270.827 322.812 270.655 323.102 270.413 323.352C270.172 323.599 269.874 323.793 269.518 323.932C269.163 324.068 268.764 324.136 268.321 324.136ZM275.476 317.455V318.307H271.947V317.455H275.476ZM273.004 324V316.551C273.004 316.176 273.092 315.864 273.268 315.614C273.445 315.364 273.673 315.176 273.955 315.051C274.236 314.926 274.533 314.864 274.845 314.864C275.092 314.864 275.294 314.884 275.45 314.923C275.607 314.963 275.723 315 275.8 315.034L275.51 315.903C275.459 315.886 275.388 315.865 275.297 315.839C275.209 315.814 275.092 315.801 274.947 315.801C274.615 315.801 274.375 315.885 274.227 316.053C274.082 316.22 274.01 316.466 274.01 316.79V324H273.004ZM281.01 321.324V317.455H282.016V324H281.01V322.892H280.942C280.789 323.224 280.55 323.507 280.226 323.74C279.902 323.97 279.493 324.085 278.999 324.085C278.59 324.085 278.226 323.996 277.908 323.817C277.59 323.635 277.34 323.362 277.158 322.999C276.976 322.632 276.885 322.17 276.885 321.614V317.455H277.891V321.545C277.891 322.023 278.025 322.403 278.292 322.688C278.561 322.972 278.905 323.114 279.323 323.114C279.573 323.114 279.827 323.05 280.086 322.922C280.347 322.794 280.566 322.598 280.742 322.334C280.921 322.07 281.01 321.733 281.01 321.324ZM288.494 318.92L287.591 319.176C287.534 319.026 287.45 318.879 287.339 318.737C287.232 318.592 287.084 318.473 286.896 318.379C286.709 318.286 286.469 318.239 286.176 318.239C285.776 318.239 285.442 318.331 285.175 318.516C284.911 318.697 284.778 318.929 284.778 319.21C284.778 319.46 284.869 319.658 285.051 319.803C285.233 319.947 285.517 320.068 285.903 320.165L286.875 320.403C287.46 320.545 287.896 320.763 288.183 321.055C288.47 321.345 288.614 321.719 288.614 322.176C288.614 322.551 288.506 322.886 288.29 323.182C288.077 323.477 287.778 323.71 287.395 323.881C287.011 324.051 286.565 324.136 286.057 324.136C285.389 324.136 284.837 323.991 284.399 323.702C283.962 323.412 283.685 322.989 283.568 322.432L284.523 322.193C284.614 322.545 284.786 322.81 285.038 322.986C285.294 323.162 285.628 323.25 286.04 323.25C286.509 323.25 286.881 323.151 287.156 322.952C287.435 322.75 287.574 322.509 287.574 322.227C287.574 322 287.494 321.81 287.335 321.656C287.176 321.5 286.932 321.384 286.602 321.307L285.511 321.051C284.912 320.909 284.472 320.689 284.19 320.391C283.912 320.089 283.773 319.713 283.773 319.261C283.773 318.892 283.876 318.565 284.084 318.281C284.294 317.997 284.58 317.774 284.94 317.612C285.304 317.45 285.716 317.369 286.176 317.369C286.824 317.369 287.332 317.511 287.702 317.795C288.074 318.08 288.338 318.455 288.494 318.92ZM292.872 324.136C292.241 324.136 291.697 323.997 291.24 323.719C290.785 323.438 290.434 323.045 290.187 322.543C289.943 322.037 289.821 321.449 289.821 320.778C289.821 320.108 289.943 319.517 290.187 319.006C290.434 318.491 290.778 318.091 291.218 317.804C291.662 317.514 292.179 317.369 292.77 317.369C293.11 317.369 293.447 317.426 293.779 317.54C294.112 317.653 294.414 317.838 294.687 318.094C294.96 318.347 295.177 318.682 295.339 319.099C295.501 319.517 295.582 320.031 295.582 320.642V321.068H290.537V320.199H294.559C294.559 319.83 294.485 319.5 294.338 319.21C294.193 318.92 293.985 318.692 293.716 318.524C293.449 318.357 293.133 318.273 292.77 318.273C292.369 318.273 292.022 318.372 291.73 318.571C291.44 318.767 291.217 319.023 291.061 319.338C290.904 319.653 290.826 319.991 290.826 320.352V320.932C290.826 321.426 290.912 321.845 291.082 322.189C291.255 322.53 291.495 322.79 291.802 322.969C292.109 323.145 292.466 323.233 292.872 323.233C293.136 323.233 293.375 323.196 293.588 323.122C293.804 323.045 293.99 322.932 294.146 322.781C294.302 322.628 294.423 322.437 294.508 322.21L295.48 322.483C295.377 322.812 295.206 323.102 294.964 323.352C294.723 323.599 294.424 323.793 294.069 323.932C293.714 324.068 293.315 324.136 292.872 324.136Z" fill="black"/>
<path d="M201.252 338V331.455H202.224V332.477H202.309C202.446 332.128 202.666 331.857 202.97 331.663C203.274 331.467 203.639 331.369 204.065 331.369C204.497 331.369 204.856 331.467 205.143 331.663C205.433 331.857 205.659 332.128 205.821 332.477H205.889C206.056 332.139 206.308 331.871 206.643 331.672C206.978 331.47 207.38 331.369 207.849 331.369C208.434 331.369 208.913 331.553 209.285 331.919C209.657 332.283 209.843 332.849 209.843 333.619V338H208.838V333.619C208.838 333.136 208.706 332.791 208.441 332.584C208.177 332.376 207.866 332.273 207.508 332.273C207.048 332.273 206.691 332.412 206.439 332.69C206.186 332.966 206.059 333.315 206.059 333.739V338H205.037V333.517C205.037 333.145 204.916 332.845 204.674 332.618C204.433 332.388 204.122 332.273 203.741 332.273C203.48 332.273 203.235 332.342 203.008 332.482C202.784 332.621 202.602 332.814 202.463 333.061C202.326 333.305 202.258 333.588 202.258 333.909V338H201.252ZM213.608 338.153C213.194 338.153 212.817 338.075 212.479 337.919C212.141 337.76 211.873 337.531 211.674 337.233C211.475 336.932 211.375 336.568 211.375 336.142C211.375 335.767 211.449 335.463 211.597 335.23C211.745 334.994 211.942 334.81 212.189 334.676C212.436 334.543 212.709 334.443 213.007 334.378C213.309 334.31 213.611 334.256 213.915 334.216C214.313 334.165 214.635 334.126 214.882 334.101C215.132 334.072 215.314 334.026 215.428 333.96C215.544 333.895 215.603 333.781 215.603 333.619V333.585C215.603 333.165 215.488 332.838 215.257 332.605C215.03 332.372 214.685 332.256 214.222 332.256C213.742 332.256 213.365 332.361 213.093 332.571C212.82 332.781 212.628 333.006 212.517 333.244L211.563 332.903C211.733 332.506 211.961 332.196 212.245 331.974C212.532 331.75 212.844 331.594 213.182 331.506C213.523 331.415 213.858 331.369 214.188 331.369C214.398 331.369 214.64 331.395 214.912 331.446C215.188 331.494 215.453 331.595 215.709 331.749C215.968 331.902 216.182 332.134 216.353 332.443C216.523 332.753 216.608 333.168 216.608 333.688V338H215.603V337.114H215.551C215.483 337.256 215.37 337.408 215.211 337.57C215.051 337.732 214.84 337.869 214.576 337.983C214.311 338.097 213.989 338.153 213.608 338.153ZM213.762 337.25C214.159 337.25 214.495 337.172 214.767 337.016C215.043 336.859 215.25 336.658 215.39 336.411C215.532 336.163 215.603 335.903 215.603 335.631V334.71C215.56 334.761 215.466 334.808 215.321 334.851C215.179 334.891 215.015 334.926 214.827 334.957C214.642 334.986 214.462 335.011 214.286 335.034C214.113 335.054 213.972 335.071 213.864 335.085C213.603 335.119 213.358 335.175 213.131 335.251C212.907 335.325 212.725 335.437 212.586 335.588C212.449 335.736 212.381 335.937 212.381 336.193C212.381 336.543 212.51 336.807 212.769 336.986C213.03 337.162 213.361 337.25 213.762 337.25ZM218.444 338V331.455H219.45V338H218.444ZM218.955 330.364C218.759 330.364 218.59 330.297 218.448 330.163C218.309 330.03 218.239 329.869 218.239 329.682C218.239 329.494 218.309 329.334 218.448 329.2C218.59 329.067 218.759 329 218.955 329C219.151 329 219.319 329.067 219.458 329.2C219.6 329.334 219.671 329.494 219.671 329.682C219.671 329.869 219.6 330.03 219.458 330.163C219.319 330.297 219.151 330.364 218.955 330.364ZM222.297 334.062V338H221.292V331.455H222.263V332.477H222.348C222.502 332.145 222.735 331.878 223.047 331.676C223.36 331.472 223.763 331.369 224.257 331.369C224.701 331.369 225.088 331.46 225.421 331.642C225.753 331.821 226.012 332.094 226.196 332.46C226.381 332.824 226.473 333.284 226.473 333.841V338H225.468V333.909C225.468 333.395 225.334 332.994 225.067 332.707C224.8 332.418 224.434 332.273 223.968 332.273C223.647 332.273 223.36 332.342 223.107 332.482C222.857 332.621 222.659 332.824 222.515 333.091C222.37 333.358 222.297 333.682 222.297 334.062ZM231.158 331.455V332.307H227.766V331.455H231.158ZM228.754 329.886H229.76V336.125C229.76 336.409 229.801 336.622 229.884 336.764C229.969 336.903 230.077 336.997 230.207 337.045C230.341 337.091 230.482 337.114 230.629 337.114C230.74 337.114 230.831 337.108 230.902 337.097C230.973 337.082 231.03 337.071 231.072 337.062L231.277 337.966C231.209 337.991 231.114 338.017 230.991 338.043C230.869 338.071 230.714 338.085 230.527 338.085C230.243 338.085 229.964 338.024 229.692 337.902C229.422 337.78 229.197 337.594 229.018 337.344C228.842 337.094 228.754 336.778 228.754 336.398V329.886ZM235.344 338.136C234.714 338.136 234.17 337.997 233.712 337.719C233.258 337.438 232.907 337.045 232.66 336.543C232.415 336.037 232.293 335.449 232.293 334.778C232.293 334.108 232.415 333.517 232.66 333.006C232.907 332.491 233.251 332.091 233.691 331.804C234.134 331.514 234.651 331.369 235.242 331.369C235.583 331.369 235.92 331.426 236.252 331.54C236.585 331.653 236.887 331.838 237.16 332.094C237.433 332.347 237.65 332.682 237.812 333.099C237.974 333.517 238.055 334.031 238.055 334.642V335.068H233.009V334.199H237.032C237.032 333.83 236.958 333.5 236.81 333.21C236.665 332.92 236.458 332.692 236.188 332.524C235.921 332.357 235.606 332.273 235.242 332.273C234.842 332.273 234.495 332.372 234.202 332.571C233.913 332.767 233.69 333.023 233.533 333.338C233.377 333.653 233.299 333.991 233.299 334.352V334.932C233.299 335.426 233.384 335.845 233.555 336.189C233.728 336.53 233.968 336.79 234.275 336.969C234.582 337.145 234.938 337.233 235.344 337.233C235.609 337.233 235.847 337.196 236.06 337.122C236.276 337.045 236.462 336.932 236.619 336.781C236.775 336.628 236.896 336.437 236.981 336.21L237.952 336.483C237.85 336.812 237.678 337.102 237.437 337.352C237.195 337.599 236.897 337.793 236.542 337.932C236.187 338.068 235.788 338.136 235.344 338.136ZM240.59 334.062V338H239.585V331.455H240.556V332.477H240.641C240.795 332.145 241.028 331.878 241.34 331.676C241.653 331.472 242.056 331.369 242.55 331.369C242.994 331.369 243.381 331.46 243.714 331.642C244.046 331.821 244.305 332.094 244.489 332.46C244.674 332.824 244.766 333.284 244.766 333.841V338H243.761V333.909C243.761 333.395 243.627 332.994 243.36 332.707C243.093 332.418 242.727 332.273 242.261 332.273C241.94 332.273 241.653 332.342 241.4 332.482C241.15 332.621 240.952 332.824 240.808 333.091C240.663 333.358 240.59 333.682 240.59 334.062ZM248.53 338.153C248.115 338.153 247.739 338.075 247.401 337.919C247.063 337.76 246.794 337.531 246.596 337.233C246.397 336.932 246.297 336.568 246.297 336.142C246.297 335.767 246.371 335.463 246.519 335.23C246.667 334.994 246.864 334.81 247.111 334.676C247.358 334.543 247.631 334.443 247.929 334.378C248.23 334.31 248.533 334.256 248.837 334.216C249.235 334.165 249.557 334.126 249.804 334.101C250.054 334.072 250.236 334.026 250.35 333.96C250.466 333.895 250.525 333.781 250.525 333.619V333.585C250.525 333.165 250.409 332.838 250.179 332.605C249.952 332.372 249.607 332.256 249.144 332.256C248.664 332.256 248.287 332.361 248.015 332.571C247.742 332.781 247.55 333.006 247.439 333.244L246.485 332.903C246.655 332.506 246.882 332.196 247.167 331.974C247.453 331.75 247.766 331.594 248.104 331.506C248.445 331.415 248.78 331.369 249.11 331.369C249.32 331.369 249.561 331.395 249.834 331.446C250.11 331.494 250.375 331.595 250.631 331.749C250.89 331.902 251.104 332.134 251.275 332.443C251.445 332.753 251.53 333.168 251.53 333.688V338H250.525V337.114H250.473C250.405 337.256 250.292 337.408 250.132 337.57C249.973 337.732 249.762 337.869 249.498 337.983C249.233 338.097 248.911 338.153 248.53 338.153ZM248.684 337.25C249.081 337.25 249.417 337.172 249.689 337.016C249.965 336.859 250.172 336.658 250.311 336.411C250.453 336.163 250.525 335.903 250.525 335.631V334.71C250.482 334.761 250.388 334.808 250.243 334.851C250.101 334.891 249.936 334.926 249.749 334.957C249.564 334.986 249.384 335.011 249.208 335.034C249.034 335.054 248.894 335.071 248.786 335.085C248.525 335.119 248.28 335.175 248.053 335.251C247.828 335.325 247.647 335.437 247.507 335.588C247.371 335.736 247.303 335.937 247.303 336.193C247.303 336.543 247.432 336.807 247.691 336.986C247.952 337.162 248.283 337.25 248.684 337.25ZM254.371 334.062V338H253.366V331.455H254.337V332.477H254.423C254.576 332.145 254.809 331.878 255.121 331.676C255.434 331.472 255.837 331.369 256.332 331.369C256.775 331.369 257.163 331.46 257.495 331.642C257.827 331.821 258.086 332.094 258.271 332.46C258.455 332.824 258.548 333.284 258.548 333.841V338H257.542V333.909C257.542 333.395 257.408 332.994 257.141 332.707C256.874 332.418 256.508 332.273 256.042 332.273C255.721 332.273 255.434 332.342 255.181 332.482C254.931 332.621 254.734 332.824 254.589 333.091C254.444 333.358 254.371 333.682 254.371 334.062ZM263.044 338.136C262.431 338.136 261.902 337.991 261.459 337.702C261.016 337.412 260.675 337.013 260.436 336.504C260.198 335.996 260.078 335.415 260.078 334.761C260.078 334.097 260.201 333.51 260.445 333.001C260.692 332.49 261.036 332.091 261.476 331.804C261.919 331.514 262.436 331.369 263.027 331.369C263.488 331.369 263.902 331.455 264.272 331.625C264.641 331.795 264.944 332.034 265.179 332.341C265.415 332.648 265.561 333.006 265.618 333.415H264.613C264.536 333.116 264.365 332.852 264.101 332.622C263.84 332.389 263.488 332.273 263.044 332.273C262.652 332.273 262.309 332.375 262.013 332.58C261.721 332.781 261.492 333.067 261.327 333.436C261.165 333.803 261.084 334.233 261.084 334.727C261.084 335.233 261.164 335.673 261.323 336.048C261.485 336.423 261.712 336.714 262.005 336.922C262.3 337.129 262.647 337.233 263.044 337.233C263.306 337.233 263.543 337.188 263.756 337.097C263.969 337.006 264.15 336.875 264.297 336.705C264.445 336.534 264.55 336.33 264.613 336.091H265.618C265.561 336.477 265.421 336.825 265.196 337.135C264.975 337.442 264.681 337.686 264.314 337.868C263.951 338.047 263.527 338.136 263.044 338.136ZM269.833 338.136C269.202 338.136 268.658 337.997 268.201 337.719C267.746 337.438 267.395 337.045 267.148 336.543C266.904 336.037 266.782 335.449 266.782 334.778C266.782 334.108 266.904 333.517 267.148 333.006C267.395 332.491 267.739 332.091 268.179 331.804C268.623 331.514 269.14 331.369 269.73 331.369C270.071 331.369 270.408 331.426 270.74 331.54C271.073 331.653 271.375 331.838 271.648 332.094C271.921 332.347 272.138 332.682 272.3 333.099C272.462 333.517 272.543 334.031 272.543 334.642V335.068H267.498V334.199H271.52C271.52 333.83 271.446 333.5 271.299 333.21C271.154 332.92 270.946 332.692 270.676 332.524C270.409 332.357 270.094 332.273 269.73 332.273C269.33 332.273 268.983 332.372 268.691 332.571C268.401 332.767 268.178 333.023 268.022 333.338C267.865 333.653 267.787 333.991 267.787 334.352V334.932C267.787 335.426 267.873 335.845 268.043 336.189C268.216 336.53 268.456 336.79 268.763 336.969C269.07 337.145 269.426 337.233 269.833 337.233C270.097 337.233 270.336 337.196 270.549 337.122C270.765 337.045 270.951 336.932 271.107 336.781C271.263 336.628 271.384 336.437 271.469 336.21L272.441 336.483C272.338 336.812 272.167 337.102 271.925 337.352C271.684 337.599 271.385 337.793 271.03 337.932C270.675 338.068 270.276 338.136 269.833 338.136ZM280.107 338.136C279.493 338.136 278.965 337.991 278.522 337.702C278.078 337.412 277.738 337.013 277.499 336.504C277.26 335.996 277.141 335.415 277.141 334.761C277.141 334.097 277.263 333.51 277.507 333.001C277.755 332.49 278.098 332.091 278.539 331.804C278.982 331.514 279.499 331.369 280.09 331.369C280.55 331.369 280.965 331.455 281.334 331.625C281.703 331.795 282.006 332.034 282.242 332.341C282.478 332.648 282.624 333.006 282.681 333.415H281.675C281.598 333.116 281.428 332.852 281.164 332.622C280.902 332.389 280.55 332.273 280.107 332.273C279.715 332.273 279.371 332.375 279.076 332.58C278.783 332.781 278.554 333.067 278.39 333.436C278.228 333.803 278.147 334.233 278.147 334.727C278.147 335.233 278.226 335.673 278.385 336.048C278.547 336.423 278.775 336.714 279.067 336.922C279.363 337.129 279.709 337.233 280.107 337.233C280.368 337.233 280.605 337.188 280.819 337.097C281.032 337.006 281.212 336.875 281.36 336.705C281.507 336.534 281.613 336.33 281.675 336.091H282.681C282.624 336.477 282.483 336.825 282.259 337.135C282.037 337.442 281.743 337.686 281.377 337.868C281.013 338.047 280.59 338.136 280.107 338.136ZM285.157 334.062V338H284.151V329.273H285.157V332.477H285.242C285.395 332.139 285.625 331.871 285.932 331.672C286.242 331.47 286.654 331.369 287.168 331.369C287.614 331.369 288.005 331.459 288.34 331.638C288.675 331.814 288.935 332.085 289.12 332.452C289.307 332.815 289.401 333.278 289.401 333.841V338H288.395V333.909C288.395 333.389 288.26 332.987 287.99 332.703C287.723 332.416 287.353 332.273 286.878 332.273C286.549 332.273 286.253 332.342 285.992 332.482C285.733 332.621 285.529 332.824 285.378 333.091C285.23 333.358 285.157 333.682 285.157 334.062ZM293.167 338.153C292.752 338.153 292.376 338.075 292.038 337.919C291.7 337.76 291.431 337.531 291.232 337.233C291.033 336.932 290.934 336.568 290.934 336.142C290.934 335.767 291.008 335.463 291.156 335.23C291.303 334.994 291.501 334.81 291.748 334.676C291.995 334.543 292.268 334.443 292.566 334.378C292.867 334.31 293.17 334.256 293.474 334.216C293.871 334.165 294.194 334.126 294.441 334.101C294.691 334.072 294.873 334.026 294.987 333.96C295.103 333.895 295.161 333.781 295.161 333.619V333.585C295.161 333.165 295.046 332.838 294.816 332.605C294.589 332.372 294.244 332.256 293.781 332.256C293.3 332.256 292.924 332.361 292.651 332.571C292.379 332.781 292.187 333.006 292.076 333.244L291.121 332.903C291.292 332.506 291.519 332.196 291.803 331.974C292.09 331.75 292.403 331.594 292.741 331.506C293.082 331.415 293.417 331.369 293.746 331.369C293.957 331.369 294.198 331.395 294.471 331.446C294.746 331.494 295.012 331.595 295.268 331.749C295.526 331.902 295.741 332.134 295.911 332.443C296.082 332.753 296.167 333.168 296.167 333.688V338H295.161V337.114H295.11C295.042 337.256 294.928 337.408 294.769 337.57C294.61 337.732 294.398 337.869 294.134 337.983C293.87 338.097 293.548 338.153 293.167 338.153ZM293.32 337.25C293.718 337.25 294.053 337.172 294.326 337.016C294.602 336.859 294.809 336.658 294.948 336.411C295.09 336.163 295.161 335.903 295.161 335.631V334.71C295.119 334.761 295.025 334.808 294.88 334.851C294.738 334.891 294.573 334.926 294.386 334.957C294.201 334.986 294.021 335.011 293.844 335.034C293.671 335.054 293.531 335.071 293.423 335.085C293.161 335.119 292.917 335.175 292.69 335.251C292.465 335.325 292.283 335.437 292.144 335.588C292.008 335.736 291.94 335.937 291.94 336.193C291.94 336.543 292.069 336.807 292.327 336.986C292.589 337.162 292.92 337.25 293.32 337.25ZM299.008 334.062V338H298.002V331.455H298.974V332.477H299.059C299.213 332.145 299.446 331.878 299.758 331.676C300.071 331.472 300.474 331.369 300.968 331.369C301.412 331.369 301.799 331.46 302.132 331.642C302.464 331.821 302.723 332.094 302.907 332.46C303.092 332.824 303.184 333.284 303.184 333.841V338H302.179V333.909C302.179 333.395 302.045 332.994 301.778 332.707C301.511 332.418 301.145 332.273 300.679 332.273C300.358 332.273 300.071 332.342 299.818 332.482C299.568 332.621 299.37 332.824 299.225 333.091C299.081 333.358 299.008 333.682 299.008 334.062ZM307.664 340.591C307.178 340.591 306.761 340.528 306.411 340.403C306.062 340.281 305.771 340.119 305.538 339.918C305.308 339.719 305.124 339.506 304.988 339.278L305.789 338.716C305.88 338.835 305.995 338.972 306.134 339.125C306.273 339.281 306.464 339.416 306.705 339.53C306.95 339.646 307.269 339.705 307.664 339.705C308.192 339.705 308.629 339.577 308.972 339.321C309.316 339.065 309.488 338.665 309.488 338.119V336.79H309.403C309.329 336.909 309.224 337.057 309.087 337.233C308.954 337.406 308.761 337.561 308.508 337.697C308.258 337.831 307.92 337.898 307.494 337.898C306.965 337.898 306.491 337.773 306.07 337.523C305.653 337.273 305.322 336.909 305.077 336.432C304.836 335.955 304.715 335.375 304.715 334.693C304.715 334.023 304.833 333.439 305.069 332.942C305.305 332.442 305.633 332.055 306.053 331.783C306.474 331.507 306.96 331.369 307.511 331.369C307.937 331.369 308.275 331.44 308.525 331.582C308.778 331.722 308.971 331.881 309.104 332.06C309.241 332.236 309.346 332.381 309.42 332.494H309.522V331.455H310.494V338.188C310.494 338.75 310.366 339.207 310.11 339.56C309.857 339.915 309.516 340.175 309.087 340.339C308.661 340.507 308.187 340.591 307.664 340.591ZM307.63 336.994C308.033 336.994 308.374 336.902 308.653 336.717C308.931 336.533 309.143 336.267 309.288 335.92C309.433 335.574 309.505 335.159 309.505 334.676C309.505 334.205 309.434 333.788 309.292 333.428C309.15 333.067 308.94 332.784 308.661 332.58C308.383 332.375 308.039 332.273 307.63 332.273C307.204 332.273 306.849 332.381 306.565 332.597C306.283 332.812 306.072 333.102 305.93 333.466C305.79 333.83 305.721 334.233 305.721 334.676C305.721 335.131 305.792 335.533 305.934 335.882C306.079 336.229 306.292 336.501 306.573 336.7C306.857 336.896 307.21 336.994 307.63 336.994ZM315.079 338.136C314.448 338.136 313.904 337.997 313.447 337.719C312.992 337.438 312.641 337.045 312.394 336.543C312.15 336.037 312.028 335.449 312.028 334.778C312.028 334.108 312.15 333.517 312.394 333.006C312.641 332.491 312.985 332.091 313.425 331.804C313.869 331.514 314.386 331.369 314.977 331.369C315.317 331.369 315.654 331.426 315.987 331.54C316.319 331.653 316.621 331.838 316.894 332.094C317.167 332.347 317.384 332.682 317.546 333.099C317.708 333.517 317.789 334.031 317.789 334.642V335.068H312.744V334.199H316.766C316.766 333.83 316.692 333.5 316.545 333.21C316.4 332.92 316.192 332.692 315.923 332.524C315.656 332.357 315.34 332.273 314.977 332.273C314.576 332.273 314.229 332.372 313.937 332.571C313.647 332.767 313.424 333.023 313.268 333.338C313.112 333.653 313.033 333.991 313.033 334.352V334.932C313.033 335.426 313.119 335.845 313.289 336.189C313.462 336.53 313.702 336.79 314.009 336.969C314.316 337.145 314.673 337.233 315.079 337.233C315.343 337.233 315.582 337.196 315.795 337.122C316.011 337.045 316.197 336.932 316.353 336.781C316.509 336.628 316.63 336.437 316.715 336.21L317.687 336.483C317.585 336.812 317.413 337.102 317.171 337.352C316.93 337.599 316.631 337.793 316.276 337.932C315.921 338.068 315.522 338.136 315.079 338.136ZM323.955 332.92L323.052 333.176C322.995 333.026 322.911 332.879 322.8 332.737C322.692 332.592 322.545 332.473 322.357 332.379C322.17 332.286 321.93 332.239 321.637 332.239C321.237 332.239 320.903 332.331 320.636 332.516C320.371 332.697 320.239 332.929 320.239 333.21C320.239 333.46 320.33 333.658 320.512 333.803C320.694 333.947 320.978 334.068 321.364 334.165L322.336 334.403C322.921 334.545 323.357 334.763 323.644 335.055C323.931 335.345 324.075 335.719 324.075 336.176C324.075 336.551 323.967 336.886 323.751 337.182C323.538 337.477 323.239 337.71 322.856 337.881C322.472 338.051 322.026 338.136 321.518 338.136C320.85 338.136 320.298 337.991 319.86 337.702C319.423 337.412 319.146 336.989 319.029 336.432L319.984 336.193C320.075 336.545 320.246 336.81 320.499 336.986C320.755 337.162 321.089 337.25 321.501 337.25C321.969 337.25 322.342 337.151 322.617 336.952C322.896 336.75 323.035 336.509 323.035 336.227C323.035 336 322.955 335.81 322.796 335.656C322.637 335.5 322.393 335.384 322.063 335.307L320.972 335.051C320.373 334.909 319.933 334.689 319.651 334.391C319.373 334.089 319.234 333.713 319.234 333.261C319.234 332.892 319.337 332.565 319.545 332.281C319.755 331.997 320.04 331.774 320.401 331.612C320.765 331.45 321.177 331.369 321.637 331.369C322.285 331.369 322.793 331.511 323.163 331.795C323.535 332.08 323.799 332.455 323.955 332.92Z" fill="black"/>
<path d="M489.5 306.5H374.5C366.216 306.5 359.5 313.216 359.5 321.5V331.5C359.5 339.784 366.216 346.5 374.5 346.5H489.5C497.784 346.5 504.5 339.784 504.5 331.5V321.5C504.5 313.216 497.784 306.5 489.5 306.5Z" fill="#FFF4C3" stroke="black"/>
<path d="M489.5 306.5H374.5C366.216 306.5 359.5 313.216 359.5 321.5V331.5C359.5 339.784 366.216 346.5 374.5 346.5H489.5C497.784 346.5 504.5 339.784 504.5 331.5V321.5C504.5 313.216 497.784 306.5 489.5 306.5Z" stroke="black"/>
<path d="M363.829 322.273V331H362.772V323.381H362.721L360.59 324.795V323.722L362.772 322.273H363.829ZM366.573 331.068C366.363 331.068 366.183 330.993 366.032 330.842C365.882 330.692 365.806 330.511 365.806 330.301C365.806 330.091 365.882 329.911 366.032 329.76C366.183 329.609 366.363 329.534 366.573 329.534C366.784 329.534 366.964 329.609 367.115 329.76C367.265 329.911 367.34 330.091 367.34 330.301C367.34 330.44 367.305 330.568 367.234 330.685C367.166 330.801 367.073 330.895 366.957 330.966C366.843 331.034 366.715 331.068 366.573 331.068ZM369.225 331L373.128 323.278V323.21H368.628V322.273H374.219V323.261L370.333 331H369.225ZM384.279 326.168V327.105H378.279V326.168H384.279ZM395.734 325H394.677C394.615 324.696 394.505 324.429 394.349 324.199C394.195 323.969 394.008 323.776 393.786 323.619C393.568 323.46 393.325 323.341 393.058 323.261C392.791 323.182 392.512 323.142 392.222 323.142C391.694 323.142 391.215 323.276 390.786 323.543C390.36 323.81 390.021 324.203 389.768 324.723C389.518 325.243 389.393 325.881 389.393 326.636C389.393 327.392 389.518 328.03 389.768 328.55C390.021 329.07 390.36 329.463 390.786 329.73C391.215 329.997 391.694 330.131 392.222 330.131C392.512 330.131 392.791 330.091 393.058 330.011C393.325 329.932 393.568 329.814 393.786 329.658C394.008 329.499 394.195 329.304 394.349 329.074C394.505 328.841 394.615 328.574 394.677 328.273H395.734C395.654 328.719 395.509 329.118 395.299 329.47C395.089 329.822 394.828 330.122 394.515 330.369C394.203 330.614 393.852 330.8 393.463 330.928C393.076 331.055 392.663 331.119 392.222 331.119C391.478 331.119 390.816 330.938 390.237 330.574C389.657 330.21 389.201 329.693 388.869 329.023C388.536 328.352 388.37 327.557 388.37 326.636C388.37 325.716 388.536 324.92 388.869 324.25C389.201 323.58 389.657 323.062 390.237 322.699C390.816 322.335 391.478 322.153 392.222 322.153C392.663 322.153 393.076 322.217 393.463 322.345C393.852 322.473 394.203 322.661 394.515 322.908C394.828 323.152 395.089 323.45 395.299 323.803C395.509 324.152 395.654 324.551 395.734 325ZM399.231 331.153C398.817 331.153 398.44 331.075 398.102 330.919C397.764 330.76 397.496 330.531 397.297 330.233C397.098 329.932 396.998 329.568 396.998 329.142C396.998 328.767 397.072 328.463 397.22 328.23C397.368 327.994 397.565 327.81 397.812 327.676C398.059 327.543 398.332 327.443 398.631 327.378C398.932 327.31 399.234 327.256 399.538 327.216C399.936 327.165 400.258 327.126 400.506 327.101C400.756 327.072 400.937 327.026 401.051 326.96C401.167 326.895 401.226 326.781 401.226 326.619V326.585C401.226 326.165 401.111 325.838 400.881 325.605C400.653 325.372 400.308 325.256 399.845 325.256C399.365 325.256 398.988 325.361 398.716 325.571C398.443 325.781 398.251 326.006 398.14 326.244L397.186 325.903C397.356 325.506 397.584 325.196 397.868 324.974C398.155 324.75 398.467 324.594 398.805 324.506C399.146 324.415 399.481 324.369 399.811 324.369C400.021 324.369 400.263 324.395 400.535 324.446C400.811 324.494 401.077 324.595 401.332 324.749C401.591 324.902 401.805 325.134 401.976 325.443C402.146 325.753 402.231 326.168 402.231 326.688V331H401.226V330.114H401.175C401.106 330.256 400.993 330.408 400.834 330.57C400.675 330.732 400.463 330.869 400.199 330.983C399.934 331.097 399.612 331.153 399.231 331.153ZM399.385 330.25C399.782 330.25 400.118 330.172 400.39 330.016C400.666 329.859 400.873 329.658 401.013 329.411C401.155 329.163 401.226 328.903 401.226 328.631V327.71C401.183 327.761 401.089 327.808 400.944 327.851C400.802 327.891 400.638 327.926 400.45 327.957C400.265 327.986 400.085 328.011 399.909 328.034C399.736 328.054 399.595 328.071 399.487 328.085C399.226 328.119 398.981 328.175 398.754 328.251C398.53 328.325 398.348 328.437 398.209 328.588C398.072 328.736 398.004 328.937 398.004 329.193C398.004 329.543 398.133 329.807 398.392 329.986C398.653 330.162 398.984 330.25 399.385 330.25ZM405.073 327.062V331H404.067V324.455H405.039V325.477H405.124C405.277 325.145 405.51 324.878 405.823 324.676C406.135 324.472 406.539 324.369 407.033 324.369C407.476 324.369 407.864 324.46 408.196 324.642C408.529 324.821 408.787 325.094 408.972 325.46C409.156 325.824 409.249 326.284 409.249 326.841V331H408.243V326.909C408.243 326.395 408.11 325.994 407.843 325.707C407.575 325.418 407.209 325.273 406.743 325.273C406.422 325.273 406.135 325.342 405.882 325.482C405.632 325.621 405.435 325.824 405.29 326.091C405.145 326.358 405.073 326.682 405.073 327.062ZM413.746 331.136C413.132 331.136 412.604 330.991 412.16 330.702C411.717 330.412 411.376 330.013 411.138 329.504C410.899 328.996 410.78 328.415 410.78 327.761C410.78 327.097 410.902 326.51 411.146 326.001C411.393 325.49 411.737 325.091 412.177 324.804C412.621 324.514 413.138 324.369 413.729 324.369C414.189 324.369 414.604 324.455 414.973 324.625C415.342 324.795 415.645 325.034 415.881 325.341C416.116 325.648 416.263 326.006 416.319 326.415H415.314C415.237 326.116 415.067 325.852 414.802 325.622C414.541 325.389 414.189 325.273 413.746 325.273C413.354 325.273 413.01 325.375 412.714 325.58C412.422 325.781 412.193 326.067 412.028 326.436C411.866 326.803 411.785 327.233 411.785 327.727C411.785 328.233 411.865 328.673 412.024 329.048C412.186 329.423 412.413 329.714 412.706 329.922C413.001 330.129 413.348 330.233 413.746 330.233C414.007 330.233 414.244 330.188 414.457 330.097C414.67 330.006 414.851 329.875 414.998 329.705C415.146 329.534 415.251 329.33 415.314 329.091H416.319C416.263 329.477 416.122 329.825 415.898 330.135C415.676 330.442 415.382 330.686 415.015 330.868C414.652 331.047 414.229 331.136 413.746 331.136ZM420.534 331.136C419.903 331.136 419.359 330.997 418.902 330.719C418.447 330.438 418.096 330.045 417.849 329.543C417.605 329.037 417.483 328.449 417.483 327.778C417.483 327.108 417.605 326.517 417.849 326.006C418.096 325.491 418.44 325.091 418.881 324.804C419.324 324.514 419.841 324.369 420.432 324.369C420.773 324.369 421.109 324.426 421.442 324.54C421.774 324.653 422.077 324.838 422.349 325.094C422.622 325.347 422.839 325.682 423.001 326.099C423.163 326.517 423.244 327.031 423.244 327.642V328.068H418.199V327.199H422.221C422.221 326.83 422.148 326.5 422 326.21C421.855 325.92 421.648 325.692 421.378 325.524C421.111 325.357 420.795 325.273 420.432 325.273C420.031 325.273 419.684 325.372 419.392 325.571C419.102 325.767 418.879 326.023 418.723 326.338C418.567 326.653 418.488 326.991 418.488 327.352V327.932C418.488 328.426 418.574 328.845 418.744 329.189C418.917 329.53 419.157 329.79 419.464 329.969C419.771 330.145 420.128 330.233 420.534 330.233C420.798 330.233 421.037 330.196 421.25 330.122C421.466 330.045 421.652 329.932 421.808 329.781C421.964 329.628 422.085 329.437 422.17 329.21L423.142 329.483C423.04 329.812 422.868 330.102 422.626 330.352C422.385 330.599 422.086 330.793 421.731 330.932C421.376 331.068 420.977 331.136 420.534 331.136ZM425.78 322.273V331H424.774V322.273H425.78ZM431.133 322.273H432.394L435.36 329.517H435.463L438.428 322.273H439.69V331H438.701V324.369H438.616L435.889 331H434.934L432.207 324.369H432.122V331H431.133V322.273ZM443.599 331.153C443.184 331.153 442.807 331.075 442.469 330.919C442.131 330.76 441.863 330.531 441.664 330.233C441.465 329.932 441.366 329.568 441.366 329.142C441.366 328.767 441.439 328.463 441.587 328.23C441.735 327.994 441.932 327.81 442.18 327.676C442.427 327.543 442.699 327.443 442.998 327.378C443.299 327.31 443.601 327.256 443.905 327.216C444.303 327.165 444.626 327.126 444.873 327.101C445.123 327.072 445.305 327.026 445.418 326.96C445.535 326.895 445.593 326.781 445.593 326.619V326.585C445.593 326.165 445.478 325.838 445.248 325.605C445.02 325.372 444.675 325.256 444.212 325.256C443.732 325.256 443.356 325.361 443.083 325.571C442.81 325.781 442.618 326.006 442.508 326.244L441.553 325.903C441.724 325.506 441.951 325.196 442.235 324.974C442.522 324.75 442.834 324.594 443.172 324.506C443.513 324.415 443.849 324.369 444.178 324.369C444.388 324.369 444.63 324.395 444.903 324.446C445.178 324.494 445.444 324.595 445.699 324.749C445.958 324.902 446.172 325.134 446.343 325.443C446.513 325.753 446.599 326.168 446.599 326.688V331H445.593V330.114H445.542C445.474 330.256 445.36 330.408 445.201 330.57C445.042 330.732 444.83 330.869 444.566 330.983C444.302 331.097 443.979 331.153 443.599 331.153ZM443.752 330.25C444.15 330.25 444.485 330.172 444.758 330.016C445.033 329.859 445.241 329.658 445.38 329.411C445.522 329.163 445.593 328.903 445.593 328.631V327.71C445.55 327.761 445.456 327.808 445.312 327.851C445.17 327.891 445.005 327.926 444.817 327.957C444.633 327.986 444.452 328.011 444.276 328.034C444.103 328.054 443.962 328.071 443.854 328.085C443.593 328.119 443.349 328.175 443.121 328.251C442.897 328.325 442.715 328.437 442.576 328.588C442.439 328.736 442.371 328.937 442.371 329.193C442.371 329.543 442.501 329.807 442.759 329.986C443.02 330.162 443.351 330.25 443.752 330.25ZM448.434 331V324.455H449.44V331H448.434ZM448.945 323.364C448.749 323.364 448.58 323.297 448.438 323.163C448.299 323.03 448.23 322.869 448.23 322.682C448.23 322.494 448.299 322.334 448.438 322.2C448.58 322.067 448.749 322 448.945 322C449.142 322 449.309 322.067 449.448 322.2C449.59 322.334 449.661 322.494 449.661 322.682C449.661 322.869 449.59 323.03 449.448 323.163C449.309 323.297 449.142 323.364 448.945 323.364ZM452.287 327.062V331H451.282V324.455H452.253V325.477H452.339C452.492 325.145 452.725 324.878 453.037 324.676C453.35 324.472 453.753 324.369 454.248 324.369C454.691 324.369 455.079 324.46 455.411 324.642C455.743 324.821 456.002 325.094 456.187 325.46C456.371 325.824 456.464 326.284 456.464 326.841V331H455.458V326.909C455.458 326.395 455.324 325.994 455.057 325.707C454.79 325.418 454.424 325.273 453.958 325.273C453.637 325.273 453.35 325.342 453.097 325.482C452.847 325.621 452.65 325.824 452.505 326.091C452.36 326.358 452.287 326.682 452.287 327.062ZM461.148 324.455V325.307H457.756V324.455H461.148ZM458.744 322.886H459.75V329.125C459.75 329.409 459.791 329.622 459.874 329.764C459.959 329.903 460.067 329.997 460.198 330.045C460.331 330.091 460.472 330.114 460.619 330.114C460.73 330.114 460.821 330.108 460.892 330.097C460.963 330.082 461.02 330.071 461.063 330.062L461.267 330.966C461.199 330.991 461.104 331.017 460.982 331.043C460.86 331.071 460.705 331.085 460.517 331.085C460.233 331.085 459.955 331.024 459.682 330.902C459.412 330.78 459.188 330.594 459.009 330.344C458.833 330.094 458.744 329.778 458.744 329.398V322.886ZM465.335 331.136C464.704 331.136 464.16 330.997 463.703 330.719C463.248 330.438 462.897 330.045 462.65 329.543C462.406 329.037 462.284 328.449 462.284 327.778C462.284 327.108 462.406 326.517 462.65 326.006C462.897 325.491 463.241 325.091 463.681 324.804C464.124 324.514 464.642 324.369 465.232 324.369C465.573 324.369 465.91 324.426 466.242 324.54C466.575 324.653 466.877 324.838 467.15 325.094C467.423 325.347 467.64 325.682 467.802 326.099C467.964 326.517 468.045 327.031 468.045 327.642V328.068H462.999V327.199H467.022C467.022 326.83 466.948 326.5 466.801 326.21C466.656 325.92 466.448 325.692 466.178 325.524C465.911 325.357 465.596 325.273 465.232 325.273C464.832 325.273 464.485 325.372 464.193 325.571C463.903 325.767 463.68 326.023 463.524 326.338C463.367 326.653 463.289 326.991 463.289 327.352V327.932C463.289 328.426 463.374 328.845 463.545 329.189C463.718 329.53 463.958 329.79 464.265 329.969C464.572 330.145 464.928 330.233 465.335 330.233C465.599 330.233 465.838 330.196 466.051 330.122C466.267 330.045 466.453 329.932 466.609 329.781C466.765 329.628 466.886 329.437 466.971 329.21L467.943 329.483C467.84 329.812 467.669 330.102 467.427 330.352C467.186 330.599 466.887 330.793 466.532 330.932C466.177 331.068 465.778 331.136 465.335 331.136ZM470.58 327.062V331H469.575V324.455H470.546V325.477H470.632C470.785 325.145 471.018 324.878 471.33 324.676C471.643 324.472 472.046 324.369 472.541 324.369C472.984 324.369 473.372 324.46 473.704 324.642C474.036 324.821 474.295 325.094 474.48 325.46C474.664 325.824 474.757 326.284 474.757 326.841V331H473.751V326.909C473.751 326.395 473.617 325.994 473.35 325.707C473.083 325.418 472.717 325.273 472.251 325.273C471.93 325.273 471.643 325.342 471.39 325.482C471.14 325.621 470.943 325.824 470.798 326.091C470.653 326.358 470.58 326.682 470.58 327.062ZM478.52 331.153C478.106 331.153 477.729 331.075 477.391 330.919C477.053 330.76 476.785 330.531 476.586 330.233C476.387 329.932 476.287 329.568 476.287 329.142C476.287 328.767 476.361 328.463 476.509 328.23C476.657 327.994 476.854 327.81 477.101 327.676C477.349 327.543 477.621 327.443 477.92 327.378C478.221 327.31 478.523 327.256 478.827 327.216C479.225 327.165 479.547 327.126 479.795 327.101C480.045 327.072 480.226 327.026 480.34 326.96C480.456 326.895 480.515 326.781 480.515 326.619V326.585C480.515 326.165 480.4 325.838 480.17 325.605C479.942 325.372 479.597 325.256 479.134 325.256C478.654 325.256 478.278 325.361 478.005 325.571C477.732 325.781 477.54 326.006 477.43 326.244L476.475 325.903C476.645 325.506 476.873 325.196 477.157 324.974C477.444 324.75 477.756 324.594 478.094 324.506C478.435 324.415 478.77 324.369 479.1 324.369C479.31 324.369 479.552 324.395 479.824 324.446C480.1 324.494 480.366 324.595 480.621 324.749C480.88 324.902 481.094 325.134 481.265 325.443C481.435 325.753 481.52 326.168 481.52 326.688V331H480.515V330.114H480.464C480.395 330.256 480.282 330.408 480.123 330.57C479.964 330.732 479.752 330.869 479.488 330.983C479.224 331.097 478.901 331.153 478.52 331.153ZM478.674 330.25C479.072 330.25 479.407 330.172 479.68 330.016C479.955 329.859 480.162 329.658 480.302 329.411C480.444 329.163 480.515 328.903 480.515 328.631V327.71C480.472 327.761 480.378 327.808 480.233 327.851C480.091 327.891 479.927 327.926 479.739 327.957C479.555 327.986 479.374 328.011 479.198 328.034C479.025 328.054 478.884 328.071 478.776 328.085C478.515 328.119 478.27 328.175 478.043 328.251C477.819 328.325 477.637 328.437 477.498 328.588C477.361 328.736 477.293 328.937 477.293 329.193C477.293 329.543 477.422 329.807 477.681 329.986C477.942 330.162 478.273 330.25 478.674 330.25ZM484.362 327.062V331H483.356V324.455H484.328V325.477H484.413C484.566 325.145 484.799 324.878 485.112 324.676C485.424 324.472 485.828 324.369 486.322 324.369C486.765 324.369 487.153 324.46 487.485 324.642C487.818 324.821 488.076 325.094 488.261 325.46C488.445 325.824 488.538 326.284 488.538 326.841V331H487.532V326.909C487.532 326.395 487.399 325.994 487.132 325.707C486.865 325.418 486.498 325.273 486.032 325.273C485.711 325.273 485.424 325.342 485.171 325.482C484.921 325.621 484.724 325.824 484.579 326.091C484.434 326.358 484.362 326.682 484.362 327.062ZM493.035 331.136C492.421 331.136 491.893 330.991 491.449 330.702C491.006 330.412 490.665 330.013 490.427 329.504C490.188 328.996 490.069 328.415 490.069 327.761C490.069 327.097 490.191 326.51 490.435 326.001C490.682 325.49 491.026 325.091 491.466 324.804C491.91 324.514 492.427 324.369 493.018 324.369C493.478 324.369 493.893 324.455 494.262 324.625C494.631 324.795 494.934 325.034 495.17 325.341C495.405 325.648 495.552 326.006 495.608 326.415H494.603C494.526 326.116 494.356 325.852 494.091 325.622C493.83 325.389 493.478 325.273 493.035 325.273C492.643 325.273 492.299 325.375 492.003 325.58C491.711 325.781 491.482 326.067 491.317 326.436C491.155 326.803 491.074 327.233 491.074 327.727C491.074 328.233 491.154 328.673 491.313 329.048C491.475 329.423 491.702 329.714 491.995 329.922C492.29 330.129 492.637 330.233 493.035 330.233C493.296 330.233 493.533 330.188 493.746 330.097C493.959 330.006 494.14 329.875 494.287 329.705C494.435 329.534 494.54 329.33 494.603 329.091H495.608C495.552 329.477 495.411 329.825 495.187 330.135C494.965 330.442 494.671 330.686 494.305 330.868C493.941 331.047 493.518 331.136 493.035 331.136ZM499.823 331.136C499.192 331.136 498.648 330.997 498.191 330.719C497.736 330.438 497.385 330.045 497.138 329.543C496.894 329.037 496.772 328.449 496.772 327.778C496.772 327.108 496.894 326.517 497.138 326.006C497.385 325.491 497.729 325.091 498.17 324.804C498.613 324.514 499.13 324.369 499.721 324.369C500.062 324.369 500.398 324.426 500.731 324.54C501.063 324.653 501.366 324.838 501.638 325.094C501.911 325.347 502.128 325.682 502.29 326.099C502.452 326.517 502.533 327.031 502.533 327.642V328.068H497.488V327.199H501.51C501.51 326.83 501.437 326.5 501.289 326.21C501.144 325.92 500.937 325.692 500.667 325.524C500.4 325.357 500.084 325.273 499.721 325.273C499.32 325.273 498.974 325.372 498.681 325.571C498.391 325.767 498.168 326.023 498.012 326.338C497.856 326.653 497.778 326.991 497.778 327.352V327.932C497.778 328.426 497.863 328.845 498.033 329.189C498.206 329.53 498.447 329.79 498.753 329.969C499.06 330.145 499.417 330.233 499.823 330.233C500.087 330.233 500.326 330.196 500.539 330.122C500.755 330.045 500.941 329.932 501.097 329.781C501.253 329.628 501.374 329.437 501.459 329.21L502.431 329.483C502.329 329.812 502.157 330.102 501.915 330.352C501.674 330.599 501.376 330.793 501.02 330.932C500.665 331.068 500.266 331.136 499.823 331.136Z" fill="black"/>
<path d="M664.5 306.5H549.5C541.216 306.5 534.5 313.216 534.5 321.5V331.5C534.5 339.784 541.216 346.5 549.5 346.5H664.5C672.784 346.5 679.5 339.784 679.5 331.5V321.5C679.5 313.216 672.784 306.5 664.5 306.5Z" fill="#FFF4C3" stroke="black"/>
<path d="M664.5 306.5H549.5C541.216 306.5 534.5 313.216 534.5 321.5V331.5C534.5 339.784 541.216 346.5 549.5 346.5H664.5C672.784 346.5 679.5 339.784 679.5 331.5V321.5C679.5 313.216 672.784 306.5 664.5 306.5Z" stroke="black"/>
<path d="M561.956 322.273V331H560.899V323.381H560.848L558.717 324.795V323.722L560.899 322.273H561.956ZM564.7 331.068C564.49 331.068 564.31 330.993 564.159 330.842C564.009 330.692 563.933 330.511 563.933 330.301C563.933 330.091 564.009 329.911 564.159 329.76C564.31 329.609 564.49 329.534 564.7 329.534C564.911 329.534 565.091 329.609 565.241 329.76C565.392 329.911 565.467 330.091 565.467 330.301C565.467 330.44 565.432 330.568 565.361 330.685C565.293 330.801 565.2 330.895 565.084 330.966C564.97 331.034 564.842 331.068 564.7 331.068ZM569.781 331.119C569.196 331.119 568.679 331.016 568.23 330.808C567.784 330.598 567.436 330.31 567.186 329.943C566.936 329.574 566.812 329.153 566.815 328.682C566.812 328.312 566.885 327.972 567.032 327.659C567.18 327.344 567.382 327.081 567.637 326.871C567.896 326.658 568.184 326.523 568.502 326.466V326.415C568.085 326.307 567.752 326.072 567.505 325.712C567.258 325.348 567.136 324.935 567.139 324.472C567.136 324.028 567.248 323.632 567.475 323.283C567.703 322.933 568.015 322.658 568.413 322.456C568.814 322.254 569.27 322.153 569.781 322.153C570.287 322.153 570.738 322.254 571.136 322.456C571.534 322.658 571.846 322.933 572.074 323.283C572.304 323.632 572.42 324.028 572.423 324.472C572.42 324.935 572.294 325.348 572.044 325.712C571.797 326.072 571.468 326.307 571.059 326.415V326.466C571.375 326.523 571.659 326.658 571.912 326.871C572.164 327.081 572.366 327.344 572.517 327.659C572.667 327.972 572.744 328.312 572.747 328.682C572.744 329.153 572.616 329.574 572.363 329.943C572.113 330.31 571.765 330.598 571.319 330.808C570.876 331.016 570.363 331.119 569.781 331.119ZM569.781 330.182C570.176 330.182 570.517 330.118 570.804 329.99C571.091 329.862 571.312 329.682 571.468 329.449C571.625 329.216 571.704 328.943 571.707 328.631C571.704 328.301 571.619 328.01 571.451 327.757C571.284 327.504 571.055 327.305 570.765 327.161C570.478 327.016 570.15 326.943 569.781 326.943C569.409 326.943 569.076 327.016 568.784 327.161C568.494 327.305 568.265 327.504 568.098 327.757C567.933 328.01 567.852 328.301 567.855 328.631C567.852 328.943 567.927 329.216 568.081 329.449C568.237 329.682 568.46 329.862 568.75 329.99C569.039 330.118 569.383 330.182 569.781 330.182ZM569.781 326.04C570.093 326.04 570.37 325.977 570.612 325.852C570.856 325.727 571.048 325.553 571.187 325.328C571.326 325.104 571.397 324.841 571.4 324.54C571.397 324.244 571.328 323.987 571.191 323.768C571.055 323.547 570.866 323.376 570.625 323.257C570.383 323.135 570.102 323.074 569.781 323.074C569.454 323.074 569.169 323.135 568.924 323.257C568.68 323.376 568.491 323.547 568.358 323.768C568.224 323.987 568.159 324.244 568.162 324.54C568.159 324.841 568.225 325.104 568.362 325.328C568.501 325.553 568.693 325.727 568.937 325.852C569.181 325.977 569.463 326.04 569.781 326.04ZM582.852 326.168V327.105H576.852V326.168H582.852ZM594.306 325H593.249C593.187 324.696 593.077 324.429 592.921 324.199C592.768 323.969 592.58 323.776 592.359 323.619C592.14 323.46 591.897 323.341 591.63 323.261C591.363 323.182 591.085 323.142 590.795 323.142C590.266 323.142 589.788 323.276 589.359 323.543C588.933 323.81 588.593 324.203 588.34 324.723C588.09 325.243 587.965 325.881 587.965 326.636C587.965 327.392 588.09 328.03 588.34 328.55C588.593 329.07 588.933 329.463 589.359 329.73C589.788 329.997 590.266 330.131 590.795 330.131C591.085 330.131 591.363 330.091 591.63 330.011C591.897 329.932 592.14 329.814 592.359 329.658C592.58 329.499 592.768 329.304 592.921 329.074C593.077 328.841 593.187 328.574 593.249 328.273H594.306C594.227 328.719 594.082 329.118 593.871 329.47C593.661 329.822 593.4 330.122 593.087 330.369C592.775 330.614 592.424 330.8 592.035 330.928C591.648 331.055 591.235 331.119 590.795 331.119C590.05 331.119 589.388 330.938 588.809 330.574C588.229 330.21 587.773 329.693 587.441 329.023C587.109 328.352 586.942 327.557 586.942 326.636C586.942 325.716 587.109 324.92 587.441 324.25C587.773 323.58 588.229 323.062 588.809 322.699C589.388 322.335 590.05 322.153 590.795 322.153C591.235 322.153 591.648 322.217 592.035 322.345C592.424 322.473 592.775 322.661 593.087 322.908C593.4 323.152 593.661 323.45 593.871 323.803C594.082 324.152 594.227 324.551 594.306 325ZM597.804 331.153C597.389 331.153 597.012 331.075 596.674 330.919C596.336 330.76 596.068 330.531 595.869 330.233C595.67 329.932 595.571 329.568 595.571 329.142C595.571 328.767 595.645 328.463 595.792 328.23C595.94 327.994 596.137 327.81 596.385 327.676C596.632 327.543 596.904 327.443 597.203 327.378C597.504 327.31 597.806 327.256 598.11 327.216C598.508 327.165 598.831 327.126 599.078 327.101C599.328 327.072 599.51 327.026 599.623 326.96C599.74 326.895 599.798 326.781 599.798 326.619V326.585C599.798 326.165 599.683 325.838 599.453 325.605C599.225 325.372 598.88 325.256 598.417 325.256C597.937 325.256 597.561 325.361 597.288 325.571C597.015 325.781 596.824 326.006 596.713 326.244L595.758 325.903C595.929 325.506 596.156 325.196 596.44 324.974C596.727 324.75 597.039 324.594 597.377 324.506C597.718 324.415 598.054 324.369 598.383 324.369C598.593 324.369 598.835 324.395 599.108 324.446C599.383 324.494 599.649 324.595 599.904 324.749C600.163 324.902 600.377 325.134 600.548 325.443C600.718 325.753 600.804 326.168 600.804 326.688V331H599.798V330.114H599.747C599.679 330.256 599.565 330.408 599.406 330.57C599.247 330.732 599.035 330.869 598.771 330.983C598.507 331.097 598.184 331.153 597.804 331.153ZM597.957 330.25C598.355 330.25 598.69 330.172 598.963 330.016C599.238 329.859 599.446 329.658 599.585 329.411C599.727 329.163 599.798 328.903 599.798 328.631V327.71C599.755 327.761 599.662 327.808 599.517 327.851C599.375 327.891 599.21 327.926 599.022 327.957C598.838 327.986 598.657 328.011 598.481 328.034C598.308 328.054 598.167 328.071 598.059 328.085C597.798 328.119 597.554 328.175 597.326 328.251C597.102 328.325 596.92 328.437 596.781 328.588C596.645 328.736 596.576 328.937 596.576 329.193C596.576 329.543 596.706 329.807 596.964 329.986C597.225 330.162 597.556 330.25 597.957 330.25ZM603.645 327.062V331H602.639V324.455H603.611V325.477H603.696C603.849 325.145 604.082 324.878 604.395 324.676C604.707 324.472 605.111 324.369 605.605 324.369C606.048 324.369 606.436 324.46 606.768 324.642C607.101 324.821 607.359 325.094 607.544 325.46C607.729 325.824 607.821 326.284 607.821 326.841V331H606.815V326.909C606.815 326.395 606.682 325.994 606.415 325.707C606.148 325.418 605.781 325.273 605.315 325.273C604.994 325.273 604.707 325.342 604.455 325.482C604.205 325.621 604.007 325.824 603.862 326.091C603.717 326.358 603.645 326.682 603.645 327.062ZM612.318 331.136C611.704 331.136 611.176 330.991 610.733 330.702C610.289 330.412 609.949 330.013 609.71 329.504C609.471 328.996 609.352 328.415 609.352 327.761C609.352 327.097 609.474 326.51 609.718 326.001C609.966 325.49 610.309 325.091 610.75 324.804C611.193 324.514 611.71 324.369 612.301 324.369C612.761 324.369 613.176 324.455 613.545 324.625C613.914 324.795 614.217 325.034 614.453 325.341C614.689 325.648 614.835 326.006 614.892 326.415H613.886C613.809 326.116 613.639 325.852 613.375 325.622C613.113 325.389 612.761 325.273 612.318 325.273C611.926 325.273 611.582 325.375 611.287 325.58C610.994 325.781 610.765 326.067 610.6 326.436C610.439 326.803 610.358 327.233 610.358 327.727C610.358 328.233 610.437 328.673 610.596 329.048C610.758 329.423 610.985 329.714 611.278 329.922C611.574 330.129 611.92 330.233 612.318 330.233C612.579 330.233 612.816 330.188 613.029 330.097C613.243 330.006 613.423 329.875 613.571 329.705C613.718 329.534 613.824 329.33 613.886 329.091H614.892C614.835 329.477 614.694 329.825 614.47 330.135C614.248 330.442 613.954 330.686 613.588 330.868C613.224 331.047 612.801 331.136 612.318 331.136ZM619.106 331.136C618.475 331.136 617.931 330.997 617.474 330.719C617.02 330.438 616.669 330.045 616.422 329.543C616.177 329.037 616.055 328.449 616.055 327.778C616.055 327.108 616.177 326.517 616.422 326.006C616.669 325.491 617.012 325.091 617.453 324.804C617.896 324.514 618.413 324.369 619.004 324.369C619.345 324.369 619.681 324.426 620.014 324.54C620.346 324.653 620.649 324.838 620.922 325.094C621.194 325.347 621.412 325.682 621.574 326.099C621.735 326.517 621.816 327.031 621.816 327.642V328.068H616.771V327.199H620.794C620.794 326.83 620.72 326.5 620.572 326.21C620.427 325.92 620.22 325.692 619.95 325.524C619.683 325.357 619.368 325.273 619.004 325.273C618.603 325.273 618.257 325.372 617.964 325.571C617.674 325.767 617.451 326.023 617.295 326.338C617.139 326.653 617.061 326.991 617.061 327.352V327.932C617.061 328.426 617.146 328.845 617.316 329.189C617.49 329.53 617.73 329.79 618.037 329.969C618.343 330.145 618.7 330.233 619.106 330.233C619.37 330.233 619.609 330.196 619.822 330.122C620.038 330.045 620.224 329.932 620.38 329.781C620.537 329.628 620.657 329.437 620.743 329.21L621.714 329.483C621.612 329.812 621.44 330.102 621.199 330.352C620.957 330.599 620.659 330.793 620.304 330.932C619.949 331.068 619.549 331.136 619.106 331.136ZM624.352 322.273V331H623.346V322.273H624.352ZM629.228 323.21V322.273H635.773V323.21H633.029V331H631.972V323.21H629.228ZM638.304 331.153C637.889 331.153 637.512 331.075 637.174 330.919C636.836 330.76 636.568 330.531 636.369 330.233C636.17 329.932 636.071 329.568 636.071 329.142C636.071 328.767 636.145 328.463 636.292 328.23C636.44 327.994 636.637 327.81 636.885 327.676C637.132 327.543 637.404 327.443 637.703 327.378C638.004 327.31 638.306 327.256 638.61 327.216C639.008 327.165 639.331 327.126 639.578 327.101C639.828 327.072 640.01 327.026 640.123 326.96C640.24 326.895 640.298 326.781 640.298 326.619V326.585C640.298 326.165 640.183 325.838 639.953 325.605C639.725 325.372 639.38 325.256 638.917 325.256C638.437 325.256 638.061 325.361 637.788 325.571C637.515 325.781 637.324 326.006 637.213 326.244L636.258 325.903C636.429 325.506 636.656 325.196 636.94 324.974C637.227 324.75 637.539 324.594 637.877 324.506C638.218 324.415 638.554 324.369 638.883 324.369C639.093 324.369 639.335 324.395 639.608 324.446C639.883 324.494 640.149 324.595 640.404 324.749C640.663 324.902 640.877 325.134 641.048 325.443C641.218 325.753 641.304 326.168 641.304 326.688V331H640.298V330.114H640.247C640.179 330.256 640.065 330.408 639.906 330.57C639.747 330.732 639.535 330.869 639.271 330.983C639.007 331.097 638.684 331.153 638.304 331.153ZM638.457 330.25C638.855 330.25 639.19 330.172 639.463 330.016C639.738 329.859 639.946 329.658 640.085 329.411C640.227 329.163 640.298 328.903 640.298 328.631V327.71C640.255 327.761 640.162 327.808 640.017 327.851C639.875 327.891 639.71 327.926 639.522 327.957C639.338 327.986 639.157 328.011 638.981 328.034C638.808 328.054 638.667 328.071 638.559 328.085C638.298 328.119 638.054 328.175 637.826 328.251C637.602 328.325 637.42 328.437 637.281 328.588C637.145 328.736 637.076 328.937 637.076 329.193C637.076 329.543 637.206 329.807 637.464 329.986C637.725 330.162 638.056 330.25 638.457 330.25ZM647.776 325.92L646.872 326.176C646.815 326.026 646.732 325.879 646.621 325.737C646.513 325.592 646.365 325.473 646.178 325.379C645.99 325.286 645.75 325.239 645.457 325.239C645.057 325.239 644.723 325.331 644.456 325.516C644.192 325.697 644.06 325.929 644.06 326.21C644.06 326.46 644.151 326.658 644.332 326.803C644.514 326.947 644.798 327.068 645.185 327.165L646.156 327.403C646.741 327.545 647.178 327.763 647.464 328.055C647.751 328.345 647.895 328.719 647.895 329.176C647.895 329.551 647.787 329.886 647.571 330.182C647.358 330.477 647.06 330.71 646.676 330.881C646.293 331.051 645.847 331.136 645.338 331.136C644.67 331.136 644.118 330.991 643.68 330.702C643.243 330.412 642.966 329.989 642.849 329.432L643.804 329.193C643.895 329.545 644.067 329.81 644.32 329.986C644.575 330.162 644.909 330.25 645.321 330.25C645.79 330.25 646.162 330.151 646.438 329.952C646.716 329.75 646.855 329.509 646.855 329.227C646.855 329 646.776 328.81 646.616 328.656C646.457 328.5 646.213 328.384 645.884 328.307L644.793 328.051C644.193 327.909 643.753 327.689 643.472 327.391C643.193 327.089 643.054 326.713 643.054 326.261C643.054 325.892 643.158 325.565 643.365 325.281C643.575 324.997 643.861 324.774 644.222 324.612C644.585 324.45 644.997 324.369 645.457 324.369C646.105 324.369 646.614 324.511 646.983 324.795C647.355 325.08 647.619 325.455 647.776 325.92ZM650.346 328.614L650.329 327.369H650.534L653.397 324.455H654.642L651.591 327.54H651.505L650.346 328.614ZM649.409 331V322.273H650.414V331H649.409ZM653.568 331L651.011 327.761L651.727 327.062L654.846 331H653.568Z" fill="black"/>
<path d="M731.51 1.5H1.49001V19.5H731.51V1.5Z" stroke="black" stroke-width="2"/>
<path d="M331.83 15V6.27273H334.779C335.461 6.27273 336.021 6.3892 336.458 6.62216C336.896 6.85227 337.219 7.16903 337.43 7.57244C337.64 7.97585 337.745 8.43466 337.745 8.94886C337.745 9.46307 337.64 9.91903 337.43 10.3168C337.219 10.7145 336.897 11.027 336.462 11.2543C336.028 11.4787 335.472 11.5909 334.796 11.5909H332.41V10.6364H334.762C335.228 10.6364 335.603 10.5682 335.887 10.4318C336.174 10.2955 336.381 10.1023 336.509 9.85227C336.64 9.59943 336.705 9.2983 336.705 8.94886C336.705 8.59943 336.64 8.29403 336.509 8.03267C336.379 7.77131 336.17 7.5696 335.883 7.42756C335.596 7.28267 335.217 7.21023 334.745 7.21023H332.887V15H331.83ZM335.938 11.0795L338.086 15H336.859L334.745 11.0795H335.938ZM342.044 15.1364C341.413 15.1364 340.869 14.9972 340.412 14.7188C339.957 14.4375 339.606 14.0455 339.359 13.5426C339.115 13.0369 338.993 12.4489 338.993 11.7784C338.993 11.108 339.115 10.517 339.359 10.0057C339.606 9.49148 339.95 9.09091 340.39 8.80398C340.833 8.5142 341.35 8.36932 341.941 8.36932C342.282 8.36932 342.619 8.42614 342.951 8.53977C343.284 8.65341 343.586 8.83807 343.859 9.09375C344.132 9.34659 344.349 9.68182 344.511 10.0994C344.673 10.517 344.754 11.0312 344.754 11.642V12.0682H339.708V11.1989H343.731C343.731 10.8295 343.657 10.5 343.51 10.2102C343.365 9.92045 343.157 9.69176 342.887 9.52415C342.62 9.35653 342.305 9.27273 341.941 9.27273C341.541 9.27273 341.194 9.37216 340.902 9.57102C340.612 9.76705 340.389 10.0227 340.233 10.3381C340.076 10.6534 339.998 10.9915 339.998 11.3523V11.9318C339.998 12.4261 340.083 12.8452 340.254 13.1889C340.427 13.5298 340.667 13.7898 340.974 13.9688C341.281 14.1449 341.637 14.233 342.044 14.233C342.308 14.233 342.547 14.196 342.76 14.1222C342.975 14.0455 343.162 13.9318 343.318 13.7812C343.474 13.6278 343.595 13.4375 343.68 13.2102L344.652 13.483C344.549 13.8125 344.377 14.1023 344.136 14.3523C343.895 14.5994 343.596 14.7926 343.241 14.9318C342.886 15.0682 342.487 15.1364 342.044 15.1364ZM348.943 15.1364C348.329 15.1364 347.801 14.9915 347.358 14.7017C346.914 14.4119 346.574 14.0128 346.335 13.5043C346.096 12.9957 345.977 12.4148 345.977 11.7614C345.977 11.0966 346.099 10.5099 346.343 10.0014C346.591 9.49006 346.934 9.09091 347.375 8.80398C347.818 8.5142 348.335 8.36932 348.926 8.36932C349.386 8.36932 349.801 8.45455 350.17 8.625C350.539 8.79545 350.842 9.03409 351.078 9.34091C351.314 9.64773 351.46 10.0057 351.517 10.4148H350.511C350.434 10.1165 350.264 9.85227 350 9.62216C349.738 9.3892 349.386 9.27273 348.943 9.27273C348.551 9.27273 348.207 9.375 347.912 9.57955C347.619 9.78125 347.39 10.0668 347.225 10.4361C347.064 10.8026 346.983 11.233 346.983 11.7273C346.983 12.233 347.062 12.6733 347.221 13.0483C347.383 13.4233 347.61 13.7145 347.903 13.9219C348.199 14.1293 348.545 14.233 348.943 14.233C349.204 14.233 349.441 14.1875 349.654 14.0966C349.868 14.0057 350.048 13.875 350.196 13.7045C350.343 13.5341 350.449 13.3295 350.511 13.0909H351.517C351.46 13.4773 351.319 13.8253 351.095 14.1349C350.873 14.4418 350.579 14.6861 350.213 14.8679C349.849 15.0469 349.426 15.1364 348.943 15.1364ZM355.731 15.1364C355.1 15.1364 354.556 14.9972 354.099 14.7188C353.645 14.4375 353.294 14.0455 353.047 13.5426C352.802 13.0369 352.68 12.4489 352.68 11.7784C352.68 11.108 352.802 10.517 353.047 10.0057C353.294 9.49148 353.637 9.09091 354.078 8.80398C354.521 8.5142 355.038 8.36932 355.629 8.36932C355.97 8.36932 356.306 8.42614 356.639 8.53977C356.971 8.65341 357.274 8.83807 357.547 9.09375C357.819 9.34659 358.037 9.68182 358.199 10.0994C358.36 10.517 358.441 11.0312 358.441 11.642V12.0682H353.396V11.1989H357.419C357.419 10.8295 357.345 10.5 357.197 10.2102C357.052 9.92045 356.845 9.69176 356.575 9.52415C356.308 9.35653 355.993 9.27273 355.629 9.27273C355.228 9.27273 354.882 9.37216 354.589 9.57102C354.299 9.76705 354.076 10.0227 353.92 10.3381C353.764 10.6534 353.686 10.9915 353.686 11.3523V11.9318C353.686 12.4261 353.771 12.8452 353.941 13.1889C354.115 13.5298 354.355 13.7898 354.662 13.9688C354.968 14.1449 355.325 14.233 355.731 14.233C355.995 14.233 356.234 14.196 356.447 14.1222C356.663 14.0455 356.849 13.9318 357.005 13.7812C357.162 13.6278 357.282 13.4375 357.368 13.2102L358.339 13.483C358.237 13.8125 358.065 14.1023 357.824 14.3523C357.582 14.5994 357.284 14.7926 356.929 14.9318C356.574 15.0682 356.174 15.1364 355.731 15.1364ZM359.971 17.4545V8.45455H360.943V9.49432H361.062C361.136 9.38068 361.238 9.2358 361.369 9.05966C361.502 8.88068 361.693 8.72159 361.94 8.58239C362.19 8.44034 362.528 8.36932 362.954 8.36932C363.505 8.36932 363.991 8.5071 364.412 8.78267C364.832 9.05824 365.16 9.44886 365.396 9.95455C365.632 10.4602 365.75 11.0568 365.75 11.7443C365.75 12.4375 365.632 13.0384 365.396 13.5469C365.16 14.0526 364.833 14.4446 364.416 14.723C363.998 14.9986 363.517 15.1364 362.971 15.1364C362.551 15.1364 362.214 15.0668 361.961 14.9276C361.708 14.7855 361.514 14.625 361.377 14.446C361.241 14.2642 361.136 14.1136 361.062 13.9943H360.977V17.4545H359.971ZM360.96 11.7273C360.96 12.2216 361.032 12.6577 361.177 13.0355C361.322 13.4105 361.534 13.7045 361.812 13.9176C362.091 14.1278 362.431 14.233 362.835 14.233C363.255 14.233 363.606 14.1222 363.887 13.9006C364.172 13.6761 364.385 13.375 364.527 12.9972C364.672 12.6165 364.744 12.1932 364.744 11.7273C364.744 11.267 364.673 10.8523 364.531 10.483C364.392 10.1108 364.18 9.81676 363.896 9.60085C363.615 9.3821 363.261 9.27273 362.835 9.27273C362.426 9.27273 362.082 9.37642 361.804 9.58381C361.525 9.78835 361.315 10.0753 361.173 10.4446C361.031 10.8111 360.96 11.2386 360.96 11.7273ZM370.13 8.45455V9.30682H366.738V8.45455H370.13ZM367.727 6.88636H368.733V13.125C368.733 13.4091 368.774 13.6222 368.856 13.7642C368.941 13.9034 369.049 13.9972 369.18 14.0455C369.314 14.0909 369.454 14.1136 369.602 14.1136C369.713 14.1136 369.804 14.108 369.875 14.0966C369.946 14.0824 370.002 14.071 370.045 14.0625L370.25 14.9659C370.181 14.9915 370.086 15.017 369.964 15.0426C369.842 15.071 369.687 15.0852 369.5 15.0852C369.216 15.0852 368.937 15.0241 368.664 14.902C368.395 14.7798 368.17 14.5938 367.991 14.3438C367.815 14.0938 367.727 13.7784 367.727 13.3977V6.88636ZM371.643 15V8.45455H372.649V15H371.643ZM372.154 7.36364C371.958 7.36364 371.789 7.29688 371.647 7.16335C371.508 7.02983 371.439 6.86932 371.439 6.68182C371.439 6.49432 371.508 6.33381 371.647 6.20028C371.789 6.06676 371.958 6 372.154 6C372.35 6 372.518 6.06676 372.657 6.20028C372.799 6.33381 372.87 6.49432 372.87 6.68182C372.87 6.86932 372.799 7.02983 372.657 7.16335C372.518 7.29688 372.35 7.36364 372.154 7.36364ZM377.15 15.1364C376.559 15.1364 376.04 14.9957 375.594 14.7145C375.151 14.4332 374.805 14.0398 374.555 13.5341C374.308 13.0284 374.184 12.4375 374.184 11.7614C374.184 11.0795 374.308 10.4844 374.555 9.97585C374.805 9.46733 375.151 9.07244 375.594 8.79119C376.04 8.50994 376.559 8.36932 377.15 8.36932C377.741 8.36932 378.258 8.50994 378.701 8.79119C379.147 9.07244 379.494 9.46733 379.741 9.97585C379.991 10.4844 380.116 11.0795 380.116 11.7614C380.116 12.4375 379.991 13.0284 379.741 13.5341C379.494 14.0398 379.147 14.4332 378.701 14.7145C378.258 14.9957 377.741 15.1364 377.15 15.1364ZM377.15 14.233C377.599 14.233 377.968 14.1179 378.258 13.8878C378.548 13.6577 378.762 13.3551 378.901 12.9801C379.04 12.6051 379.11 12.1989 379.11 11.7614C379.11 11.3239 379.04 10.9162 378.901 10.5384C378.762 10.1605 378.548 9.85511 378.258 9.62216C377.968 9.3892 377.599 9.27273 377.15 9.27273C376.701 9.27273 376.332 9.3892 376.042 9.62216C375.752 9.85511 375.538 10.1605 375.398 10.5384C375.259 10.9162 375.19 11.3239 375.19 11.7614C375.19 12.1989 375.259 12.6051 375.398 12.9801C375.538 13.3551 375.752 13.6577 376.042 13.8878C376.332 14.1179 376.701 14.233 377.15 14.233ZM382.657 11.0625V15H381.651V8.45455H382.623V9.47727H382.708C382.861 9.14489 383.094 8.87784 383.407 8.67614C383.719 8.47159 384.123 8.36932 384.617 8.36932C385.06 8.36932 385.448 8.46023 385.78 8.64205C386.113 8.82102 386.371 9.09375 386.556 9.46023C386.74 9.82386 386.833 10.2841 386.833 10.8409V15H385.827V10.9091C385.827 10.3949 385.694 9.99432 385.426 9.70739C385.159 9.41761 384.793 9.27273 384.327 9.27273C384.006 9.27273 383.719 9.34233 383.466 9.48153C383.216 9.62074 383.019 9.82386 382.874 10.0909C382.729 10.358 382.657 10.6818 382.657 11.0625ZM388.67 15V8.45455H389.676V15H388.67ZM389.182 7.36364C388.986 7.36364 388.817 7.29688 388.675 7.16335C388.536 7.02983 388.466 6.86932 388.466 6.68182C388.466 6.49432 388.536 6.33381 388.675 6.20028C388.817 6.06676 388.986 6 389.182 6C389.378 6 389.545 6.06676 389.685 6.20028C389.827 6.33381 389.898 6.49432 389.898 6.68182C389.898 6.86932 389.827 7.02983 389.685 7.16335C389.545 7.29688 389.378 7.36364 389.182 7.36364ZM396.154 9.92045L395.251 10.1761C395.194 10.0256 395.11 9.87926 395 9.73722C394.892 9.59233 394.744 9.47301 394.556 9.37926C394.369 9.28551 394.129 9.23864 393.836 9.23864C393.436 9.23864 393.102 9.33097 392.835 9.51562C392.571 9.69744 392.439 9.92898 392.439 10.2102C392.439 10.4602 392.529 10.6577 392.711 10.8026C392.893 10.9474 393.177 11.0682 393.564 11.1648L394.535 11.4034C395.12 11.5455 395.556 11.7628 395.843 12.0554C396.13 12.3452 396.274 12.7187 396.274 13.1761C396.274 13.5511 396.166 13.8864 395.95 14.1818C395.737 14.4773 395.439 14.7102 395.055 14.8807C394.672 15.0511 394.225 15.1364 393.717 15.1364C393.049 15.1364 392.497 14.9915 392.059 14.7017C391.622 14.4119 391.345 13.9886 391.228 13.4318L392.183 13.1932C392.274 13.5455 392.446 13.8097 392.699 13.9858C392.954 14.1619 393.288 14.25 393.7 14.25C394.169 14.25 394.541 14.1506 394.816 13.9517C395.095 13.75 395.234 13.5085 395.234 13.2273C395.234 13 395.154 12.8097 394.995 12.6562C394.836 12.5 394.592 12.3835 394.262 12.3068L393.172 12.0511C392.572 11.9091 392.132 11.6889 391.85 11.3906C391.572 11.0895 391.433 10.7131 391.433 10.2614C391.433 9.89205 391.537 9.56534 391.744 9.28125C391.954 8.99716 392.24 8.77415 392.6 8.61222C392.964 8.45028 393.376 8.36932 393.836 8.36932C394.484 8.36932 394.993 8.51136 395.362 8.79545C395.734 9.07955 395.998 9.45455 396.154 9.92045ZM400.634 8.45455V9.30682H397.242V8.45455H400.634ZM398.231 6.88636H399.237V13.125C399.237 13.4091 399.278 13.6222 399.36 13.7642C399.445 13.9034 399.553 13.9972 399.684 14.0455C399.817 14.0909 399.958 14.1136 400.106 14.1136C400.217 14.1136 400.308 14.108 400.379 14.0966C400.45 14.0824 400.506 14.071 400.549 14.0625L400.754 14.9659C400.685 14.9915 400.59 15.017 400.468 15.0426C400.346 15.071 400.191 15.0852 400.004 15.0852C399.719 15.0852 399.441 15.0241 399.168 14.902C398.898 14.7798 398.674 14.5938 398.495 14.3438C398.319 14.0938 398.231 13.7784 398.231 13.3977V6.88636Z" fill="black"/>
<path d="M93.93 346.5V420.5C93.93 427.167 97.2633 430.5 103.93 430.5H336.07C342.737 430.5 346.07 433.833 346.07 440.5V504.99" stroke="black" stroke-miterlimit="10"/>
<path d="M346.07 510.24L342.57 503.24L346.07 504.99L349.57 503.24L346.07 510.24Z" fill="black" stroke="black" stroke-miterlimit="10"/>
<path d="M350.36 125.64V194.99" stroke="black" stroke-miterlimit="10"/>
<path d="M350.36 200.24L346.86 193.24L350.36 194.99L353.86 193.24L350.36 200.24Z" fill="black" stroke="black" stroke-miterlimit="10"/>
<path d="M342.5 216.5H104.64C97.9733 216.5 94.64 219.833 94.64 226.5V300.7" stroke="black" stroke-miterlimit="10"/>
<path d="M94.64 305.95L91.14 298.95L94.64 300.7L98.14 298.95L94.64 305.95Z" fill="black" stroke="black" stroke-miterlimit="10"/>
<path d="M341.79 217.07H337.14C334.047 217.07 329.167 217.043 322.5 216.99L270.36 216.58C263.693 216.527 260.36 219.833 260.36 226.5V299.27" stroke="black" stroke-miterlimit="10"/>
<path d="M260.36 304.52L256.86 297.52L260.36 299.27L263.86 297.52L260.36 304.52Z" fill="black" stroke="black" stroke-miterlimit="10"/>
<path d="M356.5 216.5H421.79C428.457 216.5 431.79 219.833 431.79 226.5V300.7" stroke="black" stroke-miterlimit="10"/>
<path d="M431.79 305.95L428.29 298.95L431.79 300.7L435.29 298.95L431.79 305.95Z" fill="black" stroke="black" stroke-miterlimit="10"/>
<path d="M356.5 216.5H596.93C603.597 216.5 606.93 219.833 606.93 226.5V300.14" stroke="black" stroke-miterlimit="10"/>
<path d="M606.93 305.39L603.43 298.39L606.93 300.14L610.43 298.39L606.93 305.39Z" fill="black" stroke="black" stroke-miterlimit="10"/>
<path d="M263.07 346.5V420.07C263.07 426.737 266.403 430.07 273.07 430.07H336.07C342.737 430.07 346.07 433.403 346.07 440.07V504.99" stroke="black" stroke-miterlimit="10"/>
<path d="M346.07 510.24L342.57 503.24L346.07 504.99L349.57 503.24L346.07 510.24Z" fill="black" stroke="black" stroke-miterlimit="10"/>
<path d="M431.93 346.5V421.5C431.93 428.167 428.597 431.5 421.93 431.5H356.07C349.403 431.5 346.07 434.833 346.07 441.5V507.85" stroke="black" stroke-miterlimit="10"/>
<path d="M346.07 513.1L342.57 506.1L346.07 507.85L349.57 506.1L346.07 513.1Z" fill="black" stroke="black" stroke-miterlimit="10"/>
<path d="M606.93 346.5V421.5C606.93 428.167 603.597 431.5 596.93 431.5H357.5C350.833 431.5 347.5 434.833 347.5 441.5V503.56" stroke="black" stroke-miterlimit="10"/>
<path d="M347.5 508.81L344 501.81L347.5 503.56L351 501.81L347.5 508.81Z" fill="black" stroke="black" stroke-miterlimit="10"/>
</g>
</g>
<defs>
<clipPath id="clip0_74_1547">
<rect width="1128" height="1114" fill="white"/>
</clipPath>
</defs>
</svg>
