<svg width="924" height="370" viewBox="0 0 924 370" fill="none" xmlns="http://www.w3.org/2000/svg">
<rect x="362" y="160" width="200" height="50" rx="25" fill="#3498DB"/>
<path d="M431.847 191V181.545H435.752C436.46 181.545 437.071 181.673 437.585 181.929C438.102 182.181 438.501 182.544 438.781 183.018C439.061 183.489 439.201 184.048 439.201 184.694C439.201 185.349 439.058 185.906 438.772 186.365C438.485 186.821 438.079 187.168 437.553 187.408C437.027 187.645 436.403 187.764 435.683 187.764H433.213V185.963H435.258C435.603 185.963 435.891 185.919 436.122 185.83C436.356 185.737 436.533 185.599 436.653 185.414C436.773 185.226 436.833 184.986 436.833 184.694C436.833 184.402 436.773 184.16 436.653 183.969C436.533 183.775 436.356 183.631 436.122 183.535C435.888 183.437 435.6 183.387 435.258 183.387H434.132V191H431.847ZM437.17 186.679L439.524 191H437.031L434.723 186.679H437.17ZM440.454 191V181.545H447.047V183.401H442.739V185.34H446.71V187.201H442.739V189.144H447.047V191H440.454ZM452.092 187.602H453.939L454.724 188.604L455.753 189.786L457.337 191.739H455.269L454.161 190.414L453.505 189.472L452.092 187.602ZM457.401 186.273C457.401 187.313 457.201 188.195 456.801 188.918C456.401 189.641 455.86 190.191 455.176 190.566C454.496 190.942 453.733 191.129 452.886 191.129C452.037 191.129 451.272 190.94 450.592 190.561C449.912 190.183 449.372 189.634 448.972 188.913C448.575 188.19 448.376 187.31 448.376 186.273C448.376 185.232 448.575 184.351 448.972 183.627C449.372 182.904 449.912 182.355 450.592 181.979C451.272 181.604 452.037 181.416 452.886 181.416C453.733 181.416 454.496 181.604 455.176 181.979C455.86 182.355 456.401 182.904 456.801 183.627C457.201 184.351 457.401 185.232 457.401 186.273ZM455.065 186.273C455.065 185.657 454.978 185.137 454.802 184.712C454.63 184.288 454.381 183.966 454.054 183.748C453.731 183.529 453.342 183.42 452.886 183.42C452.434 183.42 452.045 183.529 451.719 183.748C451.392 183.966 451.141 184.288 450.966 184.712C450.794 185.137 450.708 185.657 450.708 186.273C450.708 186.888 450.794 187.408 450.966 187.833C451.141 188.258 451.392 188.579 451.719 188.798C452.045 189.016 452.434 189.126 452.886 189.126C453.342 189.126 453.731 189.016 454.054 188.798C454.381 188.579 454.63 188.258 454.802 187.833C454.978 187.408 455.065 186.888 455.065 186.273ZM464.468 181.545H466.749V187.644C466.749 188.349 466.581 188.963 466.245 189.486C465.91 190.006 465.442 190.409 464.842 190.695C464.242 190.978 463.545 191.12 462.751 191.12C461.947 191.12 461.246 190.978 460.646 190.695C460.045 190.409 459.579 190.006 459.247 189.486C458.914 188.963 458.748 188.349 458.748 187.644V181.545H461.033V187.445C461.033 187.772 461.104 188.062 461.246 188.318C461.39 188.573 461.592 188.773 461.851 188.918C462.109 189.063 462.409 189.135 462.751 189.135C463.092 189.135 463.391 189.063 463.646 188.918C463.905 188.773 464.106 188.573 464.251 188.318C464.396 188.062 464.468 187.772 464.468 187.445V181.545ZM468.181 191V181.545H474.773V183.401H470.466V185.34H474.436V187.201H470.466V189.144H474.773V191H468.181ZM481.315 184.38C481.284 184.041 481.147 183.778 480.904 183.591C480.664 183.4 480.321 183.304 479.874 183.304C479.579 183.304 479.333 183.343 479.136 183.42C478.939 183.497 478.791 183.603 478.693 183.738C478.594 183.871 478.543 184.023 478.54 184.195C478.534 184.337 478.562 184.462 478.623 184.569C478.688 184.677 478.78 184.772 478.9 184.855C479.023 184.935 479.171 185.006 479.344 185.068C479.516 185.129 479.71 185.183 479.925 185.229L480.738 185.414C481.206 185.516 481.618 185.651 481.975 185.82C482.335 185.99 482.637 186.191 482.88 186.425C483.126 186.659 483.312 186.928 483.438 187.233C483.565 187.538 483.629 187.879 483.632 188.258C483.629 188.855 483.478 189.367 483.18 189.795C482.881 190.223 482.452 190.551 481.892 190.778C481.335 191.006 480.662 191.12 479.874 191.12C479.083 191.12 478.394 191.002 477.806 190.765C477.218 190.528 476.761 190.167 476.435 189.684C476.109 189.201 475.941 188.59 475.932 187.852H478.12C478.139 188.156 478.22 188.41 478.365 188.613C478.509 188.816 478.708 188.97 478.96 189.075C479.216 189.18 479.511 189.232 479.847 189.232C480.154 189.232 480.416 189.19 480.632 189.107C480.85 189.024 481.018 188.909 481.135 188.761C481.252 188.613 481.312 188.444 481.315 188.253C481.312 188.075 481.256 187.922 481.149 187.796C481.041 187.667 480.875 187.556 480.65 187.464C480.428 187.368 480.145 187.281 479.801 187.201L478.813 186.97C477.994 186.782 477.349 186.479 476.878 186.06C476.407 185.639 476.174 185.069 476.177 184.352C476.174 183.768 476.331 183.255 476.648 182.815C476.965 182.375 477.403 182.032 477.963 181.786C478.523 181.539 479.162 181.416 479.879 181.416C480.612 181.416 481.247 181.541 481.786 181.79C482.327 182.036 482.747 182.383 483.046 182.829C483.344 183.275 483.497 183.792 483.503 184.38H481.315ZM484.477 183.401V181.545H492.468V183.401H489.601V191H487.348V183.401H484.477Z" fill="white"/>
<rect x="724" y="320" width="200" height="50" rx="25" fill="#00D563"/>
<path d="M799.428 351H796.972L800.162 341.545H803.204L806.394 351H803.938L801.717 343.928H801.644L799.428 351ZM799.1 347.279H804.233V349.015H799.1V347.279ZM815.55 344.971H813.241C813.211 344.734 813.147 344.52 813.052 344.329C812.957 344.138 812.83 343.975 812.673 343.84C812.517 343.704 812.33 343.601 812.115 343.531C811.903 343.457 811.667 343.42 811.409 343.42C810.95 343.42 810.555 343.532 810.222 343.757C809.893 343.981 809.639 344.306 809.46 344.731C809.285 345.156 809.197 345.67 809.197 346.273C809.197 346.901 809.287 347.427 809.465 347.852C809.647 348.273 809.901 348.592 810.227 348.807C810.556 349.02 810.945 349.126 811.395 349.126C811.647 349.126 811.876 349.093 812.083 349.029C812.292 348.964 812.475 348.87 812.632 348.747C812.792 348.621 812.923 348.469 813.024 348.29C813.129 348.109 813.201 347.904 813.241 347.676L815.55 347.69C815.51 348.109 815.388 348.521 815.185 348.927C814.985 349.333 814.709 349.704 814.358 350.04C814.008 350.372 813.58 350.637 813.075 350.834C812.573 351.031 811.998 351.129 811.349 351.129C810.493 351.129 809.727 350.942 809.05 350.566C808.376 350.187 807.843 349.637 807.452 348.913C807.061 348.19 806.866 347.31 806.866 346.273C806.866 345.232 807.064 344.351 807.461 343.627C807.858 342.904 808.396 342.355 809.073 341.979C809.75 341.604 810.508 341.416 811.349 341.416C811.921 341.416 812.45 341.496 812.937 341.656C813.423 341.813 813.851 342.044 814.22 342.349C814.589 342.65 814.889 343.021 815.12 343.461C815.351 343.901 815.494 344.405 815.55 344.971ZM825.439 344.971H823.131C823.1 344.734 823.037 344.52 822.942 344.329C822.846 344.138 822.72 343.975 822.563 343.84C822.406 343.704 822.22 343.601 822.005 343.531C821.792 343.457 821.557 343.42 821.298 343.42C820.84 343.42 820.444 343.532 820.112 343.757C819.782 343.981 819.529 344.306 819.35 344.731C819.175 345.156 819.087 345.67 819.087 346.273C819.087 346.901 819.176 347.427 819.355 347.852C819.536 348.273 819.79 348.592 820.116 348.807C820.446 349.02 820.835 349.126 821.284 349.126C821.537 349.126 821.766 349.093 821.972 349.029C822.181 348.964 822.365 348.87 822.522 348.747C822.682 348.621 822.812 348.469 822.914 348.29C823.019 348.109 823.091 347.904 823.131 347.676L825.439 347.69C825.399 348.109 825.278 348.521 825.074 348.927C824.874 349.333 824.599 349.704 824.248 350.04C823.897 350.372 823.469 350.637 822.965 350.834C822.463 351.031 821.888 351.129 821.238 351.129C820.383 351.129 819.616 350.942 818.939 350.566C818.265 350.187 817.733 349.637 817.342 348.913C816.951 348.19 816.756 347.31 816.756 346.273C816.756 345.232 816.954 344.351 817.351 343.627C817.748 342.904 818.285 342.355 818.962 341.979C819.639 341.604 820.398 341.416 821.238 341.416C821.811 341.416 822.34 341.496 822.826 341.656C823.313 341.813 823.74 342.044 824.11 342.349C824.479 342.65 824.779 343.021 825.01 343.461C825.241 343.901 825.384 344.405 825.439 344.971ZM826.747 351V341.545H833.339V343.401H829.032V345.34H833.002V347.201H829.032V349.144H833.339V351H826.747ZM834.77 351V341.545H838.676C839.384 341.545 839.995 341.684 840.509 341.961C841.026 342.235 841.424 342.618 841.704 343.11C841.984 343.6 842.124 344.169 842.124 344.819C842.124 345.471 841.981 346.042 841.695 346.531C841.412 347.018 841.007 347.395 840.481 347.662C839.955 347.93 839.33 348.064 838.607 348.064H836.197V346.263H838.182C838.527 346.263 838.814 346.203 839.045 346.083C839.279 345.963 839.456 345.796 839.576 345.58C839.696 345.362 839.756 345.108 839.756 344.819C839.756 344.526 839.696 344.274 839.576 344.061C839.456 343.846 839.279 343.68 839.045 343.563C838.811 343.446 838.523 343.387 838.182 343.387H837.055V351H834.77ZM842.941 343.401V341.545H850.933V343.401H848.066V351H845.813V343.401H842.941Z" fill="white"/>
<rect x="724" width="199" height="50" rx="25" fill="#C0392B"/>
<path d="M800.266 21.5455V31H797.981V21.5455H800.266ZM809.747 21.5455V31H807.808L804.046 25.5433H803.986V31H801.7V21.5455H803.667L807.388 26.9929H807.466V21.5455H809.747ZM813.33 21.5455L815.445 28.4702H815.523L817.638 21.5455H820.195L817.005 31H813.963L810.773 21.5455H813.33ZM821.849 31H819.393L822.583 21.5455H825.625L828.815 31H826.359L824.139 23.9276H824.065L821.849 31ZM821.521 27.2791H826.655V29.0149H821.521V27.2791ZM829.833 31V21.5455H832.118V29.1442H836.052V31H829.833ZM839.52 21.5455V31H837.235V21.5455H839.52ZM844.449 31H840.954V21.5455H844.444C845.408 21.5455 846.237 21.7347 846.933 22.1133C847.631 22.4888 848.17 23.0304 848.548 23.7383C848.927 24.4431 849.116 25.2863 849.116 26.2681C849.116 27.253 848.927 28.0993 848.548 28.8072C848.173 29.515 847.636 30.0582 846.937 30.4368C846.239 30.8123 845.409 31 844.449 31ZM843.239 29.0518H844.361C844.891 29.0518 845.338 28.9626 845.705 28.7841C846.074 28.6025 846.353 28.3086 846.54 27.9023C846.731 27.493 846.826 26.9483 846.826 26.2681C846.826 25.5879 846.731 25.0463 846.54 24.6431C846.349 24.2369 846.068 23.9445 845.695 23.766C845.326 23.5844 844.871 23.4936 844.329 23.4936H843.239V29.0518Z" fill="white"/>
<path d="M566 183.5C565.172 183.5 564.5 184.172 564.5 185C564.5 185.828 565.172 186.5 566 186.5V185V183.5ZM721.061 346.061C721.646 345.475 721.646 344.525 721.061 343.939L711.515 334.393C710.929 333.808 709.979 333.808 709.393 334.393C708.808 334.979 708.808 335.929 709.393 336.515L717.879 345L709.393 353.485C708.808 354.071 708.808 355.021 709.393 355.607C709.979 356.192 710.929 356.192 711.515 355.607L721.061 346.061ZM566 185V186.5H619V185V183.5H566V185ZM643 209H641.5V321H643H644.5V209H643ZM667 345V346.5H720V345V343.5H667V345ZM643 321H641.5C641.5 335.083 652.917 346.5 667 346.5V345V343.5C654.574 343.5 644.5 333.426 644.5 321H643ZM619 185V186.5C631.426 186.5 641.5 196.574 641.5 209H643H644.5C644.5 194.917 633.083 183.5 619 183.5V185Z" fill="#3498DB"/>
<path d="M566 183.5C565.172 183.5 564.5 184.172 564.5 185C564.5 185.828 565.172 186.5 566 186.5V185V183.5ZM721.061 26.0607C721.646 25.4749 721.646 24.5251 721.061 23.9393L711.515 14.3934C710.929 13.8076 709.979 13.8076 709.393 14.3934C708.808 14.9792 708.808 15.9289 709.393 16.5147L717.879 25L709.393 33.4853C708.808 34.0711 708.808 35.0208 709.393 35.6066C709.979 36.1924 710.929 36.1924 711.515 35.6066L721.061 26.0607ZM566 185V186.5H619V185V183.5H566V185ZM643 161H644.5V49H643H641.5V161H643ZM667 25V26.5H720V25V23.5H667V25ZM643 49H644.5C644.5 36.5736 654.574 26.5 667 26.5V25V23.5C652.917 23.5 641.5 34.9167 641.5 49H643ZM619 185V186.5C633.083 186.5 644.5 175.083 644.5 161H643H641.5C641.5 173.426 631.426 183.5 619 183.5V185Z" fill="#3498DB"/>
<rect y="135" width="200" height="100" rx="20" fill="#F2F2F2"/>
<path d="M58.4789 182V173.273H62.084C62.7374 173.273 63.3013 173.401 63.7757 173.656C64.253 173.909 64.6209 174.263 64.8794 174.717C65.138 175.169 65.2672 175.695 65.2672 176.294C65.2672 176.896 65.1351 177.423 64.8709 177.875C64.6096 178.324 64.236 178.672 63.7502 178.919C63.2644 179.166 62.6877 179.29 62.0201 179.29H59.7956V177.628H61.628C61.9462 177.628 62.2118 177.572 62.4249 177.462C62.6408 177.351 62.8042 177.196 62.915 176.997C63.0257 176.795 63.0811 176.561 63.0811 176.294C63.0811 176.024 63.0257 175.791 62.915 175.595C62.8042 175.396 62.6408 175.243 62.4249 175.135C62.209 175.027 61.9434 174.973 61.628 174.973H60.5882V182H58.4789ZM67.1401 182H64.873L67.8176 173.273H70.6259L73.5705 182H71.3034L69.2537 175.472H69.1855L67.1401 182ZM66.8375 178.565H71.5762V180.168H66.8375V178.565ZM74.5101 182V173.273H78.1152C78.7686 173.273 79.3326 173.391 79.807 173.626C80.2843 173.859 80.6522 174.195 80.9107 174.632C81.1692 175.067 81.2985 175.582 81.2985 176.179C81.2985 176.784 81.1664 177.298 80.9022 177.722C80.638 178.142 80.263 178.463 79.7772 178.685C79.2914 178.903 78.7161 179.013 78.0513 179.013H75.7715V177.351H77.6593C77.9775 177.351 78.2431 177.31 78.4561 177.227C78.6721 177.142 78.8354 177.014 78.9462 176.844C79.057 176.67 79.1124 176.449 79.1124 176.179C79.1124 175.909 79.057 175.686 78.9462 175.51C78.8354 175.331 78.6721 175.197 78.4561 175.109C78.2402 175.018 77.9746 174.973 77.6593 174.973H76.6195V182H74.5101ZM79.4235 178.011L81.5968 182H79.2956L77.165 178.011H79.4235ZM82.1699 174.986V173.273H89.5463V174.986H86.9V182H84.8205V174.986H82.1699ZM98.0041 173.273V182H96.2143L92.7413 176.963H92.6859V182H90.5765V173.273H92.3919L95.8265 178.301H95.899V173.273H98.0041ZM99.3304 182V173.273H105.416V174.986H101.44V176.776H105.105V178.493H101.44V180.287H105.416V182H99.3304ZM106.737 182V173.273H110.342C110.995 173.273 111.559 173.391 112.034 173.626C112.511 173.859 112.879 174.195 113.137 174.632C113.396 175.067 113.525 175.582 113.525 176.179C113.525 176.784 113.393 177.298 113.129 177.722C112.865 178.142 112.49 178.463 112.004 178.685C111.518 178.903 110.943 179.013 110.278 179.013H107.998V177.351H109.886C110.204 177.351 110.47 177.31 110.683 177.227C110.899 177.142 111.062 177.014 111.173 176.844C111.284 176.67 111.339 176.449 111.339 176.179C111.339 175.909 111.284 175.686 111.173 175.51C111.062 175.331 110.899 175.197 110.683 175.109C110.467 175.018 110.201 174.973 109.886 174.973H108.846V182H106.737ZM111.65 178.011L113.823 182H111.522L109.392 178.011H111.65ZM119.399 175.889C119.371 175.577 119.244 175.334 119.02 175.161C118.798 174.984 118.482 174.896 118.07 174.896C117.797 174.896 117.57 174.932 117.388 175.003C117.206 175.074 117.07 175.172 116.979 175.297C116.888 175.419 116.841 175.56 116.838 175.719C116.833 175.849 116.858 175.964 116.915 176.064C116.975 176.163 117.06 176.251 117.171 176.328C117.284 176.402 117.421 176.467 117.58 176.524C117.739 176.581 117.918 176.631 118.117 176.673L118.867 176.844C119.298 176.938 119.679 177.062 120.009 177.219C120.341 177.375 120.619 177.561 120.844 177.777C121.071 177.993 121.243 178.241 121.36 178.523C121.476 178.804 121.536 179.119 121.539 179.469C121.536 180.02 121.396 180.493 121.121 180.888C120.845 181.283 120.449 181.585 119.932 181.795C119.418 182.006 118.797 182.111 118.07 182.111C117.34 182.111 116.703 182.001 116.161 181.783C115.618 181.564 115.196 181.232 114.895 180.786C114.594 180.339 114.439 179.776 114.431 179.094H116.45C116.468 179.375 116.543 179.609 116.676 179.797C116.81 179.984 116.993 180.126 117.226 180.223C117.462 180.32 117.735 180.368 118.044 180.368C118.328 180.368 118.57 180.33 118.769 180.253C118.97 180.176 119.125 180.07 119.233 179.933C119.341 179.797 119.396 179.641 119.399 179.464C119.396 179.3 119.345 179.159 119.246 179.043C119.146 178.923 118.993 178.821 118.786 178.736C118.581 178.648 118.32 178.567 118.002 178.493L117.09 178.28C116.334 178.107 115.739 177.827 115.304 177.44C114.869 177.051 114.654 176.526 114.656 175.864C114.654 175.324 114.798 174.851 115.091 174.445C115.384 174.038 115.789 173.722 116.306 173.494C116.823 173.267 117.412 173.153 118.074 173.153C118.75 173.153 119.337 173.268 119.834 173.499C120.334 173.726 120.722 174.045 120.997 174.457C121.273 174.869 121.414 175.347 121.419 175.889H119.399ZM122.604 182V173.273H124.713V176.776H128.152V173.273H130.257V182H128.152V178.493H124.713V182H122.604ZM133.69 173.273V182H131.58V173.273H133.69ZM135.014 182V173.273H138.619C139.273 173.273 139.836 173.401 140.311 173.656C140.788 173.909 141.156 174.263 141.415 174.717C141.673 175.169 141.802 175.695 141.802 176.294C141.802 176.896 141.67 177.423 141.406 177.875C141.145 178.324 140.771 178.672 140.285 178.919C139.8 179.166 139.223 179.29 138.555 179.29H136.331V177.628H138.163C138.481 177.628 138.747 177.572 138.96 177.462C139.176 177.351 139.339 177.196 139.45 176.997C139.561 176.795 139.616 176.561 139.616 176.294C139.616 176.024 139.561 175.791 139.45 175.595C139.339 175.396 139.176 175.243 138.96 175.135C138.744 175.027 138.479 174.973 138.163 174.973H137.123V182H135.014ZM72.1664 197V188.273H75.7715C76.4249 188.273 76.9888 188.391 77.4632 188.626C77.9405 188.859 78.3084 189.195 78.5669 189.632C78.8255 190.067 78.9547 190.582 78.9547 191.179C78.9547 191.784 78.8226 192.298 78.5584 192.722C78.2942 193.142 77.9192 193.463 77.4334 193.685C76.9476 193.903 76.3723 194.013 75.7076 194.013H73.4277V192.351H75.3155C75.6337 192.351 75.8993 192.31 76.1124 192.227C76.3283 192.142 76.4917 192.014 76.6025 191.844C76.7132 191.67 76.7686 191.449 76.7686 191.179C76.7686 190.909 76.7132 190.686 76.6025 190.51C76.4917 190.331 76.3283 190.197 76.1124 190.109C75.8965 190.018 75.6309 189.973 75.3155 189.973H74.2757V197H72.1664ZM77.0797 193.011L79.253 197H76.9519L74.8212 193.011H77.0797ZM80.1117 197V188.273H86.1969V189.986H82.2211V191.776H85.8858V193.493H82.2211V195.287H86.1969V197H80.1117ZM90.8546 193.864H92.5591L93.2836 194.788L94.2338 195.879L95.6955 197.682H93.7864L92.7637 196.459L92.1586 195.589L90.8546 193.864ZM95.7551 192.636C95.7551 193.597 95.5705 194.411 95.2012 195.078C94.8319 195.746 94.3319 196.253 93.7012 196.599C93.0733 196.946 92.3688 197.119 91.5875 197.119C90.8034 197.119 90.0975 196.945 89.4696 196.595C88.8418 196.246 88.3432 195.739 87.9739 195.074C87.6074 194.406 87.4242 193.594 87.4242 192.636C87.4242 191.676 87.6074 190.862 87.9739 190.195C88.3432 189.527 88.8418 189.02 89.4696 188.673C90.0975 188.327 90.8034 188.153 91.5875 188.153C92.3688 188.153 93.0733 188.327 93.7012 188.673C94.3319 189.02 94.8319 189.527 95.2012 190.195C95.5705 190.862 95.7551 191.676 95.7551 192.636ZM93.5989 192.636C93.5989 192.068 93.5179 191.588 93.356 191.196C93.1969 190.804 92.9668 190.507 92.6657 190.305C92.3674 190.104 92.008 190.003 91.5875 190.003C91.1699 190.003 90.8105 190.104 90.5094 190.305C90.2083 190.507 89.9767 190.804 89.8148 191.196C89.6557 191.588 89.5762 192.068 89.5762 192.636C89.5762 193.205 89.6557 193.685 89.8148 194.077C89.9767 194.469 90.2083 194.766 90.5094 194.967C90.8105 195.169 91.1699 195.27 91.5875 195.27C92.008 195.27 92.3674 195.169 92.6657 194.967C92.9668 194.766 93.1969 194.469 93.356 194.077C93.5179 193.685 93.5989 193.205 93.5989 192.636ZM102.278 188.273H104.383V193.902C104.383 194.553 104.229 195.119 103.919 195.602C103.609 196.082 103.177 196.455 102.623 196.719C102.069 196.98 101.426 197.111 100.693 197.111C99.9515 197.111 99.3038 196.98 98.7498 196.719C98.1958 196.455 97.7654 196.082 97.4586 195.602C97.1518 195.119 96.9984 194.553 96.9984 193.902V188.273H99.1078V193.719C99.1078 194.02 99.1731 194.288 99.3038 194.524C99.4373 194.76 99.6234 194.945 99.862 195.078C100.101 195.212 100.378 195.278 100.693 195.278C101.008 195.278 101.284 195.212 101.52 195.078C101.758 194.945 101.944 194.76 102.078 194.524C102.211 194.288 102.278 194.02 102.278 193.719V188.273ZM105.705 197V188.273H111.791V189.986H107.815V191.776H111.48V193.493H107.815V195.287H111.791V197H105.705ZM117.829 190.889C117.801 190.577 117.674 190.334 117.45 190.161C117.228 189.984 116.911 189.896 116.499 189.896C116.227 189.896 115.999 189.932 115.818 190.003C115.636 190.074 115.499 190.172 115.409 190.297C115.318 190.419 115.271 190.56 115.268 190.719C115.262 190.849 115.288 190.964 115.345 191.064C115.404 191.163 115.49 191.251 115.6 191.328C115.714 191.402 115.85 191.467 116.009 191.524C116.169 191.581 116.347 191.631 116.546 191.673L117.296 191.844C117.728 191.938 118.109 192.062 118.438 192.219C118.771 192.375 119.049 192.561 119.274 192.777C119.501 192.993 119.673 193.241 119.789 193.523C119.906 193.804 119.965 194.119 119.968 194.469C119.965 195.02 119.826 195.493 119.551 195.888C119.275 196.283 118.879 196.585 118.362 196.795C117.847 197.006 117.227 197.111 116.499 197.111C115.769 197.111 115.133 197.001 114.59 196.783C114.048 196.564 113.626 196.232 113.325 195.786C113.024 195.339 112.869 194.776 112.86 194.094H114.88C114.897 194.375 114.972 194.609 115.106 194.797C115.24 194.984 115.423 195.126 115.656 195.223C115.892 195.32 116.164 195.368 116.474 195.368C116.758 195.368 116.999 195.33 117.198 195.253C117.4 195.176 117.555 195.07 117.663 194.933C117.771 194.797 117.826 194.641 117.829 194.464C117.826 194.3 117.775 194.159 117.676 194.043C117.576 193.923 117.423 193.821 117.215 193.736C117.011 193.648 116.749 193.567 116.431 193.493L115.519 193.28C114.764 193.107 114.169 192.827 113.734 192.44C113.299 192.051 113.083 191.526 113.086 190.864C113.083 190.324 113.228 189.851 113.521 189.445C113.813 189.038 114.218 188.722 114.735 188.494C115.252 188.267 115.842 188.153 116.504 188.153C117.18 188.153 117.767 188.268 118.264 188.499C118.764 188.726 119.151 189.045 119.427 189.457C119.703 189.869 119.843 190.347 119.849 190.889H117.829ZM120.748 189.986V188.273H128.124V189.986H125.478V197H123.399V189.986H120.748Z" fill="black"/>
<path d="M204 183.5C203.172 183.5 202.5 184.172 202.5 185C202.5 185.828 203.172 186.5 204 186.5V185V183.5ZM359.061 186.061C359.646 185.475 359.646 184.525 359.061 183.939L349.515 174.393C348.929 173.808 347.979 173.808 347.393 174.393C346.808 174.979 346.808 175.929 347.393 176.515L355.879 185L347.393 193.485C346.808 194.071 346.808 195.021 347.393 195.607C347.979 196.192 348.929 196.192 349.515 195.607L359.061 186.061ZM204 185V186.5H207.08V185V183.5H204V185ZM211.187 185V186.5H217.347V185V183.5H211.187V185ZM221.453 185V186.5H227.613V185V183.5H221.453V185ZM231.72 185V186.5H237.88V185V183.5H231.72V185ZM241.987 185V186.5H248.147V185V183.5H241.987V185ZM252.253 185V186.5H258.413V185V183.5H252.253V185ZM262.52 185V186.5H268.68V185V183.5H262.52V185ZM272.787 185V186.5H278.947V185V183.5H272.787V185ZM283.053 185V186.5H289.213V185V183.5H283.053V185ZM293.32 185V186.5H299.48V185V183.5H293.32V185ZM303.587 185V186.5H309.747V185V183.5H303.587V185ZM313.853 185V186.5H320.013V185V183.5H313.853V185ZM324.12 185V186.5H330.28V185V183.5H324.12V185ZM334.387 185V186.5H340.547V185V183.5H334.387V185ZM344.653 185V186.5H350.813V185V183.5H344.653V185ZM354.92 185V186.5H358V185V183.5H354.92V185Z" fill="#CECCCC"/>
</svg>
