<svg width="2015" height="515" viewBox="0 0 2015 515" fill="none" xmlns="http://www.w3.org/2000/svg">
<rect x="338" y="220" width="200" height="50" rx="25" fill="#2980B9"/>
<path d="M386.234 251L383.482 241.545H386.008L387.434 247.741H387.512L389.142 241.545H391.201L392.831 247.755H392.909L394.34 241.545H396.861L394.114 251H391.912L390.208 245.266H390.135L388.431 251H386.234ZM398.822 251H396.366L399.556 241.545H402.598L405.788 251H403.332L401.111 243.928H401.038L398.822 251ZM398.494 247.279H403.627V249.015H398.494V247.279ZM409.091 241.545V251H406.806V241.545H409.091ZM410.216 243.401V241.545H418.207V243.401H415.341V251H413.088V243.401H410.216ZM424.162 251H421.706L424.896 241.545H427.938L431.128 251H428.672L426.451 243.928H426.377L424.162 251ZM423.834 247.279H428.967V249.015H423.834V247.279ZM432.146 251V241.545H436.051C436.759 241.545 437.37 241.684 437.884 241.961C438.401 242.235 438.8 242.618 439.08 243.11C439.36 243.6 439.5 244.169 439.5 244.819C439.5 245.471 439.357 246.042 439.07 246.531C438.787 247.018 438.383 247.395 437.856 247.662C437.33 247.93 436.705 248.064 435.982 248.064H433.572V246.263H435.557C435.902 246.263 436.19 246.203 436.421 246.083C436.654 245.963 436.831 245.796 436.951 245.58C437.072 245.362 437.132 245.108 437.132 244.819C437.132 244.526 437.072 244.274 436.951 244.061C436.831 243.846 436.654 243.68 436.421 243.563C436.187 243.446 435.899 243.387 435.557 243.387H434.431V251H432.146ZM440.626 251V241.545H444.532C445.24 241.545 445.851 241.684 446.364 241.961C446.882 242.235 447.28 242.618 447.56 243.11C447.84 243.6 447.98 244.169 447.98 244.819C447.98 245.471 447.837 246.042 447.551 246.531C447.268 247.018 446.863 247.395 446.337 247.662C445.811 247.93 445.186 248.064 444.462 248.064H442.053V246.263H444.038C444.382 246.263 444.67 246.203 444.901 246.083C445.135 245.963 445.312 245.796 445.432 245.58C445.552 245.362 445.612 245.108 445.612 244.819C445.612 244.526 445.552 244.274 445.432 244.061C445.312 243.846 445.135 243.68 444.901 243.563C444.667 243.446 444.379 243.387 444.038 243.387H442.911V251H440.626ZM449.107 251V241.545H453.012C453.72 241.545 454.331 241.673 454.845 241.929C455.362 242.181 455.761 242.544 456.041 243.018C456.321 243.489 456.461 244.048 456.461 244.694C456.461 245.349 456.318 245.906 456.031 246.365C455.745 246.821 455.339 247.168 454.813 247.408C454.286 247.645 453.663 247.764 452.943 247.764H450.473V245.963H452.518C452.863 245.963 453.151 245.919 453.382 245.83C453.615 245.737 453.792 245.599 453.912 245.414C454.032 245.226 454.092 244.986 454.092 244.694C454.092 244.402 454.032 244.16 453.912 243.969C453.792 243.775 453.615 243.631 453.382 243.535C453.148 243.437 452.86 243.387 452.518 243.387H451.392V251H449.107ZM454.429 246.679L456.784 251H454.291L451.983 246.679H454.429ZM466.638 246.273C466.638 247.313 466.438 248.195 466.038 248.918C465.638 249.641 465.096 250.191 464.413 250.566C463.732 250.942 462.969 251.129 462.123 251.129C461.273 251.129 460.509 250.94 459.828 250.561C459.148 250.183 458.608 249.634 458.208 248.913C457.811 248.19 457.613 247.31 457.613 246.273C457.613 245.232 457.811 244.351 458.208 243.627C458.608 242.904 459.148 242.355 459.828 241.979C460.509 241.604 461.273 241.416 462.123 241.416C462.969 241.416 463.732 241.604 464.413 241.979C465.096 242.355 465.638 242.904 466.038 243.627C466.438 244.351 466.638 245.232 466.638 246.273ZM464.302 246.273C464.302 245.657 464.214 245.137 464.039 244.712C463.866 244.288 463.617 243.966 463.291 243.748C462.968 243.529 462.578 243.42 462.123 243.42C461.67 243.42 461.281 243.529 460.955 243.748C460.629 243.966 460.378 244.288 460.202 244.712C460.03 245.137 459.944 245.657 459.944 246.273C459.944 246.888 460.03 247.408 460.202 247.833C460.378 248.258 460.629 248.579 460.955 248.798C461.281 249.016 461.67 249.126 462.123 249.126C462.578 249.126 462.968 249.016 463.291 248.798C463.617 248.579 463.866 248.258 464.039 247.833C464.214 247.408 464.302 246.888 464.302 246.273ZM469.56 241.545L471.674 248.47H471.753L473.867 241.545H476.425L473.235 251H470.192L467.002 241.545H469.56ZM478.079 251H475.623L478.813 241.545H481.855L485.045 251H482.589L480.368 243.928H480.294L478.079 251ZM477.751 247.279H482.884V249.015H477.751V247.279ZM486.063 251V241.545H488.348V249.144H492.281V251H486.063Z" fill="white"/>
<rect x="1445" y="108" width="200" height="50" rx="25" fill="#F39C12"/>
<path d="M1520.99 132.971H1518.68C1518.65 132.734 1518.59 132.52 1518.49 132.329C1518.4 132.138 1518.27 131.975 1518.12 131.84C1517.96 131.704 1517.77 131.601 1517.56 131.531C1517.34 131.457 1517.11 131.42 1516.85 131.42C1516.39 131.42 1516 131.532 1515.66 131.757C1515.33 131.981 1515.08 132.306 1514.9 132.731C1514.73 133.156 1514.64 133.67 1514.64 134.273C1514.64 134.901 1514.73 135.427 1514.91 135.852C1515.09 136.273 1515.34 136.592 1515.67 136.807C1516 137.02 1516.39 137.126 1516.84 137.126C1517.09 137.126 1517.32 137.093 1517.52 137.029C1517.73 136.964 1517.92 136.87 1518.07 136.747C1518.23 136.621 1518.36 136.469 1518.47 136.29C1518.57 136.109 1518.64 135.904 1518.68 135.676L1520.99 135.69C1520.95 136.109 1520.83 136.521 1520.63 136.927C1520.43 137.333 1520.15 137.704 1519.8 138.04C1519.45 138.372 1519.02 138.637 1518.52 138.834C1518.02 139.031 1517.44 139.129 1516.79 139.129C1515.93 139.129 1515.17 138.942 1514.49 138.566C1513.82 138.187 1513.28 137.637 1512.89 136.913C1512.5 136.19 1512.31 135.31 1512.31 134.273C1512.31 133.232 1512.51 132.351 1512.9 131.627C1513.3 130.904 1513.84 130.355 1514.51 129.979C1515.19 129.604 1515.95 129.416 1516.79 129.416C1517.36 129.416 1517.89 129.496 1518.38 129.656C1518.86 129.813 1519.29 130.044 1519.66 130.349C1520.03 130.65 1520.33 131.021 1520.56 131.461C1520.79 131.901 1520.94 132.405 1520.99 132.971ZM1522.3 139V129.545H1524.58V133.34H1528.31V129.545H1530.59V139H1528.31V135.201H1524.58V139H1522.3ZM1534.07 139H1531.61L1534.8 129.545H1537.85L1541.04 139H1538.58L1536.36 131.928H1536.28L1534.07 139ZM1533.74 135.279H1538.87V137.015H1533.74V135.279ZM1550.1 129.545V139H1548.16L1544.4 133.543H1544.34V139H1542.05V129.545H1544.02L1547.74 134.993H1547.82V129.545H1550.1ZM1557.74 132.634C1557.69 132.44 1557.61 132.269 1557.51 132.121C1557.41 131.971 1557.28 131.843 1557.14 131.738C1556.99 131.634 1556.82 131.555 1556.63 131.503C1556.44 131.447 1556.23 131.42 1556 131.42C1555.54 131.42 1555.14 131.531 1554.81 131.752C1554.48 131.974 1554.22 132.297 1554.04 132.722C1553.86 133.143 1553.77 133.656 1553.77 134.259C1553.77 134.865 1553.85 135.382 1554.03 135.81C1554.2 136.238 1554.46 136.564 1554.79 136.789C1555.12 137.013 1555.53 137.126 1556 137.126C1556.42 137.126 1556.77 137.058 1557.06 136.923C1557.35 136.784 1557.58 136.589 1557.73 136.336C1557.88 136.084 1557.95 135.787 1557.95 135.445L1558.38 135.496H1556.08V133.83H1560.16V135.081C1560.16 135.927 1559.98 136.652 1559.62 137.255C1559.26 137.858 1558.77 138.321 1558.14 138.645C1557.51 138.968 1556.79 139.129 1555.98 139.129C1555.08 139.129 1554.29 138.934 1553.6 138.543C1552.92 138.152 1552.39 137.595 1552.01 136.872C1551.63 136.145 1551.43 135.284 1551.43 134.287C1551.43 133.511 1551.55 132.823 1551.78 132.223C1552.01 131.62 1552.33 131.109 1552.75 130.69C1553.16 130.272 1553.64 129.955 1554.19 129.739C1554.73 129.524 1555.32 129.416 1555.95 129.416C1556.5 129.416 1557.01 129.495 1557.48 129.652C1557.96 129.809 1558.37 130.03 1558.74 130.316C1559.1 130.603 1559.4 130.943 1559.63 131.337C1559.86 131.731 1560 132.163 1560.05 132.634H1557.74ZM1561.5 139V129.545H1568.09V131.401H1563.79V133.34H1567.76V135.201H1563.79V137.144H1568.09V139H1561.5ZM1573.02 139H1569.53V129.545H1573.02C1573.98 129.545 1574.81 129.735 1575.5 130.113C1576.2 130.489 1576.74 131.03 1577.12 131.738C1577.5 132.443 1577.69 133.286 1577.69 134.268C1577.69 135.253 1577.5 136.099 1577.12 136.807C1576.74 137.515 1576.21 138.058 1575.51 138.437C1574.81 138.812 1573.98 139 1573.02 139ZM1571.81 137.052H1572.93C1573.46 137.052 1573.91 136.963 1574.28 136.784C1574.65 136.603 1574.92 136.309 1575.11 135.902C1575.3 135.493 1575.4 134.948 1575.4 134.268C1575.4 133.588 1575.3 133.046 1575.11 132.643C1574.92 132.237 1574.64 131.944 1574.27 131.766C1573.9 131.584 1573.44 131.494 1572.9 131.494H1571.81V137.052Z" fill="white"/>
<rect x="912" y="108" width="200" height="50" rx="25" fill="#8E44AD"/>
<path d="M978.521 139L975.77 129.545H978.295L979.722 135.741H979.8L981.43 129.545H983.489L985.118 135.755H985.197L986.628 129.545H989.148L986.402 139H984.2L982.496 133.266H982.422L980.719 139H978.521ZM991.109 139H988.653L991.843 129.545H994.886L998.076 139H995.62L993.399 131.928H993.325L991.109 139ZM990.782 135.279H995.915V137.015H990.782V135.279ZM1001.38 129.545V139H999.093V129.545H1001.38ZM1002.5 131.401V129.545H1010.5V131.401H1007.63V139H1005.38V131.401H1002.5ZM1014.4 139V129.545H1018.31C1019.02 129.545 1019.63 129.684 1020.14 129.961C1020.66 130.235 1021.06 130.618 1021.34 131.11C1021.62 131.6 1021.76 132.169 1021.76 132.819C1021.76 133.471 1021.61 134.042 1021.33 134.531C1021.05 135.018 1020.64 135.395 1020.11 135.662C1019.59 135.93 1018.96 136.064 1018.24 136.064H1015.83V134.263H1017.82C1018.16 134.263 1018.45 134.203 1018.68 134.083C1018.91 133.963 1019.09 133.796 1019.21 133.58C1019.33 133.362 1019.39 133.108 1019.39 132.819C1019.39 132.526 1019.33 132.274 1019.21 132.061C1019.09 131.846 1018.91 131.68 1018.68 131.563C1018.44 131.446 1018.16 131.387 1017.82 131.387H1016.69V139H1014.4ZM1023.79 139H1021.33L1024.52 129.545H1027.56L1030.75 139H1028.3L1026.08 131.928H1026L1023.79 139ZM1023.46 135.279H1028.59V137.015H1023.46V135.279ZM1031.77 139V129.545H1035.68C1036.38 129.545 1037 129.673 1037.51 129.929C1038.03 130.181 1038.43 130.544 1038.71 131.018C1038.99 131.489 1039.13 132.048 1039.13 132.694C1039.13 133.349 1038.98 133.906 1038.7 134.365C1038.41 134.821 1038 135.168 1037.48 135.408C1036.95 135.645 1036.33 135.764 1035.61 135.764H1033.14V133.963H1035.18C1035.53 133.963 1035.82 133.919 1036.05 133.83C1036.28 133.737 1036.46 133.599 1036.58 133.414C1036.7 133.226 1036.76 132.986 1036.76 132.694C1036.76 132.402 1036.7 132.16 1036.58 131.969C1036.46 131.775 1036.28 131.631 1036.05 131.535C1035.81 131.437 1035.52 131.387 1035.18 131.387H1034.06V139H1031.77ZM1037.09 134.679L1039.45 139H1036.96L1034.65 134.679H1037.09ZM1040.07 131.401V129.545H1048.06V131.401H1045.19V139H1042.94V131.401H1040.07Z" fill="white"/>
<rect x="912" y="332" width="200" height="50" rx="25" fill="#A2D9CE"/>
<path d="M951.722 363L948.97 353.545H951.495L952.922 359.741H953L954.63 353.545H956.689L958.318 359.755H958.397L959.828 353.545H962.349L959.602 363H957.4L955.696 357.266H955.622L953.919 363H951.722ZM964.309 363H961.854L965.044 353.545H968.086L971.276 363H968.82L966.599 355.928H966.525L964.309 363ZM963.982 359.279H969.115V361.015H963.982V359.279ZM974.579 353.545V363H972.294V353.545H974.579ZM975.704 355.401V353.545H983.695V355.401H980.828V363H978.576V355.401H975.704ZM989.649 363H987.193L990.383 353.545H993.426L996.616 363H994.16L991.939 355.928H991.865L989.649 363ZM989.322 359.279H994.455V361.015H989.322V359.279ZM1002.45 356.38C1002.42 356.041 1002.28 355.778 1002.04 355.591C1001.8 355.4 1001.46 355.304 1001.01 355.304C1000.72 355.304 1000.47 355.343 1000.27 355.42C1000.08 355.497 999.928 355.603 999.83 355.738C999.731 355.871 999.681 356.023 999.677 356.195C999.671 356.337 999.699 356.462 999.761 356.569C999.825 356.677 999.918 356.772 1000.04 356.855C1000.16 356.935 1000.31 357.006 1000.48 357.068C1000.65 357.129 1000.85 357.183 1001.06 357.229L1001.87 357.414C1002.34 357.516 1002.76 357.651 1003.11 357.82C1003.47 357.99 1003.77 358.191 1004.02 358.425C1004.26 358.659 1004.45 358.928 1004.58 359.233C1004.7 359.538 1004.77 359.879 1004.77 360.258C1004.77 360.855 1004.62 361.367 1004.32 361.795C1004.02 362.223 1003.59 362.551 1003.03 362.778C1002.47 363.006 1001.8 363.12 1001.01 363.12C1000.22 363.12 999.531 363.002 998.943 362.765C998.356 362.528 997.899 362.167 997.572 361.684C997.246 361.201 997.078 360.59 997.069 359.852H999.257C999.276 360.156 999.357 360.41 999.502 360.613C999.647 360.816 999.845 360.97 1000.1 361.075C1000.35 361.18 1000.65 361.232 1000.98 361.232C1001.29 361.232 1001.55 361.19 1001.77 361.107C1001.99 361.024 1002.15 360.909 1002.27 360.761C1002.39 360.613 1002.45 360.444 1002.45 360.253C1002.45 360.075 1002.39 359.922 1002.29 359.796C1002.18 359.667 1002.01 359.556 1001.79 359.464C1001.57 359.368 1001.28 359.281 1000.94 359.201L999.95 358.97C999.131 358.782 998.486 358.479 998.016 358.06C997.545 357.639 997.311 357.069 997.314 356.352C997.311 355.768 997.468 355.255 997.785 354.815C998.102 354.375 998.54 354.032 999.1 353.786C999.661 353.539 1000.3 353.416 1001.02 353.416C1001.75 353.416 1002.38 353.541 1002.92 353.79C1003.46 354.036 1003.88 354.383 1004.18 354.829C1004.48 355.275 1004.63 355.792 1004.64 356.38H1002.45ZM1011.03 356.38C1011 356.041 1010.87 355.778 1010.62 355.591C1010.38 355.4 1010.04 355.304 1009.59 355.304C1009.3 355.304 1009.05 355.343 1008.86 355.42C1008.66 355.497 1008.51 355.603 1008.41 355.738C1008.31 355.871 1008.26 356.023 1008.26 356.195C1008.25 356.337 1008.28 356.462 1008.34 356.569C1008.41 356.677 1008.5 356.772 1008.62 356.855C1008.74 356.935 1008.89 357.006 1009.06 357.068C1009.24 357.129 1009.43 357.183 1009.64 357.229L1010.46 357.414C1010.92 357.516 1011.34 357.651 1011.69 357.82C1012.05 357.99 1012.36 358.191 1012.6 358.425C1012.85 358.659 1013.03 358.928 1013.16 359.233C1013.28 359.538 1013.35 359.879 1013.35 360.258C1013.35 360.855 1013.2 361.367 1012.9 361.795C1012.6 362.223 1012.17 362.551 1011.61 362.778C1011.05 363.006 1010.38 363.12 1009.59 363.12C1008.8 363.12 1008.11 363.002 1007.53 362.765C1006.94 362.528 1006.48 362.167 1006.15 361.684C1005.83 361.201 1005.66 360.59 1005.65 359.852H1007.84C1007.86 360.156 1007.94 360.41 1008.08 360.613C1008.23 360.816 1008.43 360.97 1008.68 361.075C1008.94 361.18 1009.23 361.232 1009.57 361.232C1009.87 361.232 1010.14 361.19 1010.35 361.107C1010.57 361.024 1010.74 360.909 1010.85 360.761C1010.97 360.613 1011.03 360.444 1011.03 360.253C1011.03 360.075 1010.98 359.922 1010.87 359.796C1010.76 359.667 1010.59 359.556 1010.37 359.464C1010.15 359.368 1009.86 359.281 1009.52 359.201L1008.53 358.97C1007.71 358.782 1007.07 358.479 1006.6 358.06C1006.13 357.639 1005.89 357.069 1005.9 356.352C1005.89 355.768 1006.05 355.255 1006.37 354.815C1006.68 354.375 1007.12 354.032 1007.68 353.786C1008.24 353.539 1008.88 353.416 1009.6 353.416C1010.33 353.416 1010.97 353.541 1011.5 353.79C1012.05 354.036 1012.47 354.383 1012.77 354.829C1013.06 355.275 1013.22 355.792 1013.22 356.38H1011.03ZM1016.79 353.545V363H1014.51V353.545H1016.79ZM1024.43 356.634C1024.38 356.44 1024.3 356.269 1024.2 356.121C1024.1 355.971 1023.97 355.843 1023.83 355.738C1023.68 355.634 1023.51 355.555 1023.32 355.503C1023.13 355.447 1022.92 355.42 1022.69 355.42C1022.23 355.42 1021.83 355.531 1021.5 355.752C1021.17 355.974 1020.91 356.297 1020.73 356.722C1020.55 357.143 1020.46 357.656 1020.46 358.259C1020.46 358.865 1020.54 359.382 1020.72 359.81C1020.89 360.238 1021.15 360.564 1021.48 360.789C1021.81 361.013 1022.22 361.126 1022.69 361.126C1023.11 361.126 1023.46 361.058 1023.75 360.923C1024.04 360.784 1024.27 360.589 1024.42 360.336C1024.57 360.084 1024.64 359.787 1024.64 359.445L1025.07 359.496H1022.77V357.83H1026.84V359.081C1026.84 359.927 1026.66 360.652 1026.3 361.255C1025.95 361.858 1025.45 362.321 1024.83 362.645C1024.2 362.968 1023.48 363.129 1022.67 363.129C1021.77 363.129 1020.98 362.934 1020.29 362.543C1019.61 362.152 1019.08 361.595 1018.7 360.872C1018.31 360.145 1018.12 359.284 1018.12 358.287C1018.12 357.511 1018.24 356.823 1018.47 356.223C1018.7 355.62 1019.02 355.109 1019.43 354.69C1019.85 354.272 1020.33 353.955 1020.88 353.739C1021.42 353.524 1022.01 353.416 1022.64 353.416C1023.19 353.416 1023.7 353.495 1024.17 353.652C1024.65 353.809 1025.06 354.03 1025.43 354.316C1025.79 354.603 1026.09 354.943 1026.32 355.337C1026.55 355.731 1026.69 356.163 1026.74 356.634H1024.43ZM1036.24 353.545V363H1034.3L1030.54 357.543H1030.48V363H1028.19V353.545H1030.16L1033.88 358.993H1033.96V353.545H1036.24ZM1037.67 353.545H1040.5L1042.91 359.399H1043.02L1045.42 353.545H1048.25V363H1046.02V357.192H1045.94L1043.67 362.94H1042.25L1039.98 357.16H1039.9V363H1037.67V353.545ZM1049.67 363V353.545H1056.26V355.401H1051.96V357.34H1055.93V359.201H1051.96V361.144H1056.26V363H1049.67ZM1065.74 353.545V363H1063.8L1060.04 357.543H1059.98V363H1057.7V353.545H1059.66L1063.38 358.993H1063.46V353.545H1065.74ZM1066.87 355.401V353.545H1074.86V355.401H1071.99V363H1069.74V355.401H1066.87Z" fill="white"/>
<rect x="1445" y="332" width="200" height="50" rx="25" fill="#2ECC71"/>
<path d="M1513.97 363H1511.51L1514.7 353.545H1517.74L1520.93 363H1518.48L1516.26 355.928H1516.18L1513.97 363ZM1513.64 359.279H1518.77V361.015H1513.64V359.279ZM1526.77 356.38C1526.74 356.041 1526.6 355.778 1526.36 355.591C1526.12 355.4 1525.77 355.304 1525.33 355.304C1525.03 355.304 1524.79 355.343 1524.59 355.42C1524.39 355.497 1524.24 355.603 1524.15 355.738C1524.05 355.871 1524 356.023 1523.99 356.195C1523.99 356.337 1524.02 356.462 1524.08 356.569C1524.14 356.677 1524.23 356.772 1524.35 356.855C1524.48 356.935 1524.62 357.006 1524.8 357.068C1524.97 357.129 1525.16 357.183 1525.38 357.229L1526.19 357.414C1526.66 357.516 1527.07 357.651 1527.43 357.82C1527.79 357.99 1528.09 358.191 1528.33 358.425C1528.58 358.659 1528.77 358.928 1528.89 359.233C1529.02 359.538 1529.08 359.879 1529.09 360.258C1529.08 360.855 1528.93 361.367 1528.63 361.795C1528.33 362.223 1527.91 362.551 1527.35 362.778C1526.79 363.006 1526.12 363.12 1525.33 363.12C1524.54 363.12 1523.85 363.002 1523.26 362.765C1522.67 362.528 1522.21 362.167 1521.89 361.684C1521.56 361.201 1521.39 360.59 1521.39 359.852H1523.57C1523.59 360.156 1523.67 360.41 1523.82 360.613C1523.96 360.816 1524.16 360.97 1524.41 361.075C1524.67 361.18 1524.96 361.232 1525.3 361.232C1525.61 361.232 1525.87 361.19 1526.09 361.107C1526.3 361.024 1526.47 360.909 1526.59 360.761C1526.71 360.613 1526.77 360.444 1526.77 360.253C1526.77 360.075 1526.71 359.922 1526.6 359.796C1526.49 359.667 1526.33 359.556 1526.1 359.464C1525.88 359.368 1525.6 359.281 1525.25 359.201L1524.27 358.97C1523.45 358.782 1522.8 358.479 1522.33 358.06C1521.86 357.639 1521.63 357.069 1521.63 356.352C1521.63 355.768 1521.78 355.255 1522.1 354.815C1522.42 354.375 1522.86 354.032 1523.42 353.786C1523.98 353.539 1524.62 353.416 1525.33 353.416C1526.07 353.416 1526.7 353.541 1527.24 353.79C1527.78 354.036 1528.2 354.383 1528.5 354.829C1528.8 355.275 1528.95 355.792 1528.96 356.38H1526.77ZM1535.35 356.38C1535.32 356.041 1535.18 355.778 1534.94 355.591C1534.7 355.4 1534.36 355.304 1533.91 355.304C1533.61 355.304 1533.37 355.343 1533.17 355.42C1532.97 355.497 1532.83 355.603 1532.73 355.738C1532.63 355.871 1532.58 356.023 1532.58 356.195C1532.57 356.337 1532.6 356.462 1532.66 356.569C1532.72 356.677 1532.82 356.772 1532.94 356.855C1533.06 356.935 1533.21 357.006 1533.38 357.068C1533.55 357.129 1533.75 357.183 1533.96 357.229L1534.77 357.414C1535.24 357.516 1535.65 357.651 1536.01 357.82C1536.37 357.99 1536.67 358.191 1536.92 358.425C1537.16 358.659 1537.35 358.928 1537.47 359.233C1537.6 359.538 1537.66 359.879 1537.67 360.258C1537.66 360.855 1537.51 361.367 1537.22 361.795C1536.92 362.223 1536.49 362.551 1535.93 362.778C1535.37 363.006 1534.7 363.12 1533.91 363.12C1533.12 363.12 1532.43 363.002 1531.84 362.765C1531.25 362.528 1530.8 362.167 1530.47 361.684C1530.14 361.201 1529.98 360.59 1529.97 359.852H1532.16C1532.17 360.156 1532.26 360.41 1532.4 360.613C1532.55 360.816 1532.74 360.97 1533 361.075C1533.25 361.18 1533.55 361.232 1533.88 361.232C1534.19 361.232 1534.45 361.19 1534.67 361.107C1534.89 361.024 1535.05 360.909 1535.17 360.761C1535.29 360.613 1535.35 360.444 1535.35 360.253C1535.35 360.075 1535.29 359.922 1535.18 359.796C1535.08 359.667 1534.91 359.556 1534.69 359.464C1534.46 359.368 1534.18 359.281 1533.84 359.201L1532.85 358.97C1532.03 358.782 1531.38 358.479 1530.91 358.06C1530.44 357.639 1530.21 357.069 1530.21 356.352C1530.21 355.768 1530.37 355.255 1530.68 354.815C1531 354.375 1531.44 354.032 1532 353.786C1532.56 353.539 1533.2 353.416 1533.91 353.416C1534.65 353.416 1535.28 353.541 1535.82 353.79C1536.36 354.036 1536.78 354.383 1537.08 354.829C1537.38 355.275 1537.53 355.792 1537.54 356.38H1535.35ZM1541.11 353.545V363H1538.82V353.545H1541.11ZM1548.75 356.634C1548.69 356.44 1548.62 356.269 1548.52 356.121C1548.41 355.971 1548.29 355.843 1548.14 355.738C1547.99 355.634 1547.82 355.555 1547.63 355.503C1547.44 355.447 1547.23 355.42 1547.01 355.42C1546.55 355.42 1546.15 355.531 1545.81 355.752C1545.48 355.974 1545.23 356.297 1545.04 356.722C1544.86 357.143 1544.77 357.656 1544.77 358.259C1544.77 358.865 1544.86 359.382 1545.03 359.81C1545.21 360.238 1545.46 360.564 1545.8 360.789C1546.13 361.013 1546.53 361.126 1547.01 361.126C1547.42 361.126 1547.78 361.058 1548.07 360.923C1548.36 360.784 1548.58 360.589 1548.73 360.336C1548.88 360.084 1548.96 359.787 1548.96 359.445L1549.38 359.496H1547.08V357.83H1551.16V359.081C1551.16 359.927 1550.98 360.652 1550.62 361.255C1550.26 361.858 1549.77 362.321 1549.14 362.645C1548.52 362.968 1547.8 363.129 1546.99 363.129C1546.09 363.129 1545.29 362.934 1544.61 362.543C1543.93 362.152 1543.39 361.595 1543.01 360.872C1542.63 360.145 1542.44 359.284 1542.44 358.287C1542.44 357.511 1542.56 356.823 1542.79 356.223C1543.02 355.62 1543.34 355.109 1543.75 354.69C1544.17 354.272 1544.65 353.955 1545.19 353.739C1545.74 353.524 1546.33 353.416 1546.96 353.416C1547.51 353.416 1548.02 353.495 1548.49 353.652C1548.96 353.809 1549.38 354.03 1549.74 354.316C1550.11 354.603 1550.41 354.943 1550.63 355.337C1550.86 355.731 1551 356.163 1551.06 356.634H1548.75ZM1560.55 353.545V363H1558.62L1554.85 357.543H1554.79V363H1552.51V353.545H1554.47L1558.2 358.993H1558.27V353.545H1560.55ZM1561.99 363V353.545H1568.58V355.401H1564.28V357.34H1568.25V359.201H1564.28V361.144H1568.58V363H1561.99ZM1573.51 363H1570.01V353.545H1573.5C1574.47 353.545 1575.3 353.735 1575.99 354.113C1576.69 354.489 1577.23 355.03 1577.61 355.738C1577.99 356.443 1578.18 357.286 1578.18 358.268C1578.18 359.253 1577.99 360.099 1577.61 360.807C1577.23 361.515 1576.7 362.058 1576 362.437C1575.3 362.812 1574.47 363 1573.51 363ZM1572.3 361.052H1573.42C1573.95 361.052 1574.4 360.963 1574.76 360.784C1575.13 360.603 1575.41 360.309 1575.6 359.902C1575.79 359.493 1575.89 358.948 1575.89 358.268C1575.89 357.588 1575.79 357.046 1575.6 356.643C1575.41 356.237 1575.13 355.944 1574.76 355.766C1574.39 355.584 1573.93 355.494 1573.39 355.494H1572.3V361.052Z" fill="white"/>
<rect x="1815" y="440" width="200" height="50" rx="25" fill="#27AE60"/>
<path d="M1882.61 464.971H1880.3C1880.27 464.734 1880.21 464.52 1880.12 464.329C1880.02 464.138 1879.89 463.975 1879.74 463.84C1879.58 463.704 1879.39 463.601 1879.18 463.531C1878.97 463.457 1878.73 463.42 1878.47 463.42C1878.01 463.42 1877.62 463.532 1877.29 463.757C1876.96 463.981 1876.7 464.306 1876.52 464.731C1876.35 465.156 1876.26 465.67 1876.26 466.273C1876.26 466.901 1876.35 467.427 1876.53 467.852C1876.71 468.273 1876.96 468.592 1877.29 468.807C1877.62 469.02 1878.01 469.126 1878.46 469.126C1878.71 469.126 1878.94 469.093 1879.15 469.029C1879.35 468.964 1879.54 468.87 1879.69 468.747C1879.85 468.621 1879.99 468.469 1880.09 468.29C1880.19 468.109 1880.26 467.904 1880.3 467.676L1882.61 467.69C1882.57 468.109 1882.45 468.521 1882.25 468.927C1882.05 469.333 1881.77 469.704 1881.42 470.04C1881.07 470.372 1880.64 470.637 1880.14 470.834C1879.64 471.031 1879.06 471.129 1878.41 471.129C1877.56 471.129 1876.79 470.942 1876.11 470.566C1875.44 470.187 1874.91 469.637 1874.52 468.913C1874.12 468.19 1873.93 467.31 1873.93 466.273C1873.93 465.232 1874.13 464.351 1874.52 463.627C1874.92 462.904 1875.46 462.355 1876.14 461.979C1876.81 461.604 1877.57 461.416 1878.41 461.416C1878.98 461.416 1879.51 461.496 1880 461.656C1880.49 461.813 1880.91 462.044 1881.28 462.349C1881.65 462.65 1881.95 463.021 1882.18 463.461C1882.41 463.901 1882.56 464.405 1882.61 464.971ZM1892.84 466.273C1892.84 467.313 1892.64 468.195 1892.24 468.918C1891.84 469.641 1891.3 470.191 1890.62 470.566C1889.94 470.942 1889.18 471.129 1888.33 471.129C1887.48 471.129 1886.71 470.94 1886.03 470.561C1885.35 470.183 1884.81 469.634 1884.41 468.913C1884.02 468.19 1883.82 467.31 1883.82 466.273C1883.82 465.232 1884.02 464.351 1884.41 463.627C1884.81 462.904 1885.35 462.355 1886.03 461.979C1886.71 461.604 1887.48 461.416 1888.33 461.416C1889.18 461.416 1889.94 461.604 1890.62 461.979C1891.3 462.355 1891.84 462.904 1892.24 463.627C1892.64 464.351 1892.84 465.232 1892.84 466.273ZM1890.51 466.273C1890.51 465.657 1890.42 465.137 1890.24 464.712C1890.07 464.288 1889.82 463.966 1889.5 463.748C1889.17 463.529 1888.78 463.42 1888.33 463.42C1887.88 463.42 1887.49 463.529 1887.16 463.748C1886.83 463.966 1886.58 464.288 1886.41 464.712C1886.24 465.137 1886.15 465.657 1886.15 466.273C1886.15 466.888 1886.24 467.408 1886.41 467.833C1886.58 468.258 1886.83 468.579 1887.16 468.798C1887.49 469.016 1887.88 469.126 1888.33 469.126C1888.78 469.126 1889.17 469.016 1889.5 468.798C1889.82 468.579 1890.07 468.258 1890.24 467.833C1890.42 467.408 1890.51 466.888 1890.51 466.273ZM1902.22 461.545V471H1900.29L1896.52 465.543H1896.46V471H1894.18V461.545H1896.14L1899.87 466.993H1899.94V461.545H1902.22ZM1912.24 464.971H1909.94C1909.9 464.734 1909.84 464.52 1909.75 464.329C1909.65 464.138 1909.52 463.975 1909.37 463.84C1909.21 463.704 1909.02 463.601 1908.81 463.531C1908.6 463.457 1908.36 463.42 1908.1 463.42C1907.64 463.42 1907.25 463.532 1906.92 463.757C1906.59 463.981 1906.33 464.306 1906.15 464.731C1905.98 465.156 1905.89 465.67 1905.89 466.273C1905.89 466.901 1905.98 467.427 1906.16 467.852C1906.34 468.273 1906.59 468.592 1906.92 468.807C1907.25 469.02 1907.64 469.126 1908.09 469.126C1908.34 469.126 1908.57 469.093 1908.78 469.029C1908.99 468.964 1909.17 468.87 1909.33 468.747C1909.49 468.621 1909.62 468.469 1909.72 468.29C1909.82 468.109 1909.9 467.904 1909.94 467.676L1912.24 467.69C1912.2 468.109 1912.08 468.521 1911.88 468.927C1911.68 469.333 1911.4 469.704 1911.05 470.04C1910.7 470.372 1910.27 470.637 1909.77 470.834C1909.27 471.031 1908.69 471.129 1908.04 471.129C1907.19 471.129 1906.42 470.942 1905.74 470.566C1905.07 470.187 1904.54 469.637 1904.15 468.913C1903.76 468.19 1903.56 467.31 1903.56 466.273C1903.56 465.232 1903.76 464.351 1904.16 463.627C1904.55 462.904 1905.09 462.355 1905.77 461.979C1906.44 461.604 1907.2 461.416 1908.04 461.416C1908.61 461.416 1909.14 461.496 1909.63 461.656C1910.12 461.813 1910.54 462.044 1910.91 462.349C1911.28 462.65 1911.58 463.021 1911.81 463.461C1912.04 463.901 1912.19 464.405 1912.24 464.971ZM1913.55 471V461.545H1915.84V469.144H1919.77V471H1913.55ZM1926.67 461.545H1928.95V467.644C1928.95 468.349 1928.78 468.963 1928.45 469.486C1928.11 470.006 1927.65 470.409 1927.05 470.695C1926.45 470.978 1925.75 471.12 1924.95 471.12C1924.15 471.12 1923.45 470.978 1922.85 470.695C1922.25 470.409 1921.78 470.006 1921.45 469.486C1921.12 468.963 1920.95 468.349 1920.95 467.644V461.545H1923.24V467.445C1923.24 467.772 1923.31 468.062 1923.45 468.318C1923.59 468.573 1923.8 468.773 1924.05 468.918C1924.31 469.063 1924.61 469.135 1924.95 469.135C1925.3 469.135 1925.6 469.063 1925.85 468.918C1926.11 468.773 1926.31 468.573 1926.46 468.318C1926.6 468.062 1926.67 467.772 1926.67 467.445V461.545ZM1933.88 471H1930.38V461.545H1933.88C1934.84 461.545 1935.67 461.735 1936.36 462.113C1937.06 462.489 1937.6 463.03 1937.98 463.738C1938.36 464.443 1938.55 465.286 1938.55 466.268C1938.55 467.253 1938.36 468.099 1937.98 468.807C1937.6 469.515 1937.07 470.058 1936.37 470.437C1935.67 470.812 1934.84 471 1933.88 471ZM1932.67 469.052H1933.79C1934.32 469.052 1934.77 468.963 1935.14 468.784C1935.5 468.603 1935.78 468.309 1935.97 467.902C1936.16 467.493 1936.26 466.948 1936.26 466.268C1936.26 465.588 1936.16 465.046 1935.97 464.643C1935.78 464.237 1935.5 463.944 1935.13 463.766C1934.76 463.584 1934.3 463.494 1933.76 463.494H1932.67V469.052ZM1939.88 471V461.545H1946.47V463.401H1942.17V465.34H1946.14V467.201H1942.17V469.144H1946.47V471H1939.88ZM1951.4 471H1947.9V461.545H1951.39C1952.36 461.545 1953.19 461.735 1953.88 462.113C1954.58 462.489 1955.12 463.03 1955.5 463.738C1955.88 464.443 1956.07 465.286 1956.07 466.268C1956.07 467.253 1955.88 468.099 1955.5 468.807C1955.12 469.515 1954.59 470.058 1953.89 470.437C1953.19 470.812 1952.36 471 1951.4 471ZM1950.19 469.052H1951.31C1951.84 469.052 1952.29 468.963 1952.65 468.784C1953.02 468.603 1953.3 468.309 1953.49 467.902C1953.68 467.493 1953.78 466.948 1953.78 466.268C1953.78 465.588 1953.68 465.046 1953.49 464.643C1953.3 464.237 1953.02 463.944 1952.65 463.766C1952.28 463.584 1951.82 463.494 1951.28 463.494H1950.19V469.052Z" fill="white"/>
<path d="M1543.5 328C1543.5 328.828 1544.17 329.5 1545 329.5C1545.83 329.5 1546.5 328.828 1546.5 328H1545H1543.5ZM1546.06 160.939C1545.47 160.354 1544.53 160.354 1543.94 160.939L1534.39 170.485C1533.81 171.071 1533.81 172.021 1534.39 172.607C1534.98 173.192 1535.93 173.192 1536.51 172.607L1545 164.121L1553.49 172.607C1554.07 173.192 1555.02 173.192 1555.61 172.607C1556.19 172.021 1556.19 171.071 1555.61 170.485L1546.06 160.939ZM1545 328H1546.5V162H1545H1543.5V328H1545Z" fill="#2ECC71"/>
<path d="M1013.5 162C1013.5 161.172 1012.83 160.5 1012 160.5C1011.17 160.5 1010.5 161.172 1010.5 162H1012H1013.5ZM1010.94 329.061C1011.53 329.646 1012.47 329.646 1013.06 329.061L1022.61 319.515C1023.19 318.929 1023.19 317.979 1022.61 317.393C1022.02 316.808 1021.07 316.808 1020.49 317.393L1012 325.879L1003.51 317.393C1002.93 316.808 1001.98 316.808 1001.39 317.393C1000.81 317.979 1000.81 318.929 1001.39 319.515L1010.94 329.061ZM1012 162H1010.5V328H1012H1013.5V162H1012Z" fill="#8E44AD"/>
<path d="M1013.5 162C1013.5 161.172 1012.83 160.5 1012 160.5C1011.17 160.5 1010.5 161.172 1010.5 162H1012H1013.5ZM1442.06 358.061C1442.65 357.475 1442.65 356.525 1442.06 355.939L1432.51 346.393C1431.93 345.808 1430.98 345.808 1430.39 346.393C1429.81 346.979 1429.81 347.929 1430.39 348.515L1438.88 357L1430.39 365.485C1429.81 366.071 1429.81 367.021 1430.39 367.607C1430.98 368.192 1431.93 368.192 1432.51 367.607L1442.06 358.061ZM1012 162H1010.5V242H1012H1013.5V162H1012ZM1036 266V267.5H1182V266V264.5H1036V266ZM1206 290H1204.5V333H1206H1207.5V290H1206ZM1230 357V358.5H1441V357V355.5H1230V357ZM1206 333H1204.5C1204.5 347.083 1215.92 358.5 1230 358.5V357V355.5C1217.57 355.5 1207.5 345.426 1207.5 333H1206ZM1182 266V267.5C1194.43 267.5 1204.5 277.574 1204.5 290H1206H1207.5C1207.5 275.917 1196.08 264.5 1182 264.5V266ZM1012 242H1010.5C1010.5 256.083 1021.92 267.5 1036 267.5V266V264.5C1023.57 264.5 1013.5 254.426 1013.5 242H1012Z" fill="#8E44AD"/>
<rect x="1815" width="200" height="50" rx="25" fill="#C0392B"/>
<path d="M1891.77 21.5455V31H1889.48V21.5455H1891.77ZM1901.25 21.5455V31H1899.31L1895.55 25.5433H1895.49V31H1893.2V21.5455H1895.17L1898.89 26.9929H1898.97V21.5455H1901.25ZM1904.83 21.5455L1906.94 28.4702H1907.02L1909.14 21.5455H1911.7L1908.51 31H1905.46L1902.27 21.5455H1904.83ZM1913.35 31H1910.89L1914.08 21.5455H1917.13L1920.32 31H1917.86L1915.64 23.9276H1915.56L1913.35 31ZM1913.02 27.2791H1918.15V29.0149H1913.02V27.2791ZM1921.33 31V21.5455H1923.62V29.1442H1927.55V31H1921.33ZM1931.02 21.5455V31H1928.73V21.5455H1931.02ZM1935.95 31H1932.45V21.5455H1935.94C1936.91 21.5455 1937.74 21.7347 1938.43 22.1133C1939.13 22.4888 1939.67 23.0304 1940.05 23.7383C1940.43 24.4431 1940.62 25.2863 1940.62 26.2681C1940.62 27.253 1940.43 28.0993 1940.05 28.8072C1939.67 29.515 1939.14 30.0582 1938.44 30.4368C1937.74 30.8123 1936.91 31 1935.95 31ZM1934.74 29.0518H1935.86C1936.39 29.0518 1936.84 28.9626 1937.2 28.7841C1937.57 28.6025 1937.85 28.3086 1938.04 27.9023C1938.23 27.493 1938.33 26.9483 1938.33 26.2681C1938.33 25.5879 1938.23 25.0463 1938.04 24.6431C1937.85 24.2369 1937.57 23.9445 1937.2 23.766C1936.83 23.5844 1936.37 23.4936 1935.83 23.4936H1934.74V29.0518Z" fill="white"/>
<path d="M542 243.5C541.172 243.5 540.5 244.172 540.5 245C540.5 245.828 541.172 246.5 542 246.5V245V243.5ZM909.061 134.061C909.646 133.475 909.646 132.525 909.061 131.939L899.515 122.393C898.929 121.808 897.979 121.808 897.393 122.393C896.808 122.979 896.808 123.929 897.393 124.515L905.879 133L897.393 141.485C896.808 142.071 896.808 143.021 897.393 143.607C897.979 144.192 898.929 144.192 899.515 143.607L909.061 134.061ZM542 245V246.5H654V245V243.5H542V245ZM678 221H679.5V157H678H676.5V221H678ZM702 133V134.5H908V133V131.5H702V133ZM678 157H679.5C679.5 144.574 689.574 134.5 702 134.5V133V131.5C687.917 131.5 676.5 142.917 676.5 157H678ZM654 245V246.5C668.083 246.5 679.5 235.083 679.5 221H678H676.5C676.5 233.426 666.426 243.5 654 243.5V245Z" fill="#2980B9"/>
<path d="M542 243.5C541.172 243.5 540.5 244.172 540.5 245C540.5 245.828 541.172 246.5 542 246.5V245V243.5ZM909.061 358.061C909.646 357.475 909.646 356.525 909.061 355.939L899.515 346.393C898.929 345.808 897.979 345.808 897.393 346.393C896.808 346.979 896.808 347.929 897.393 348.515L905.879 357L897.393 365.485C896.808 366.071 896.808 367.021 897.393 367.607C897.979 368.192 898.929 368.192 899.515 367.607L909.061 358.061ZM542 245V246.5H656V245V243.5H542V245ZM680 269H678.5V333H680H681.5V269H680ZM704 357V358.5H908V357V355.5H704V357ZM680 333H678.5C678.5 347.083 689.917 358.5 704 358.5V357V355.5C691.574 355.5 681.5 345.426 681.5 333H680ZM656 245V246.5C668.426 246.5 678.5 256.574 678.5 269H680H681.5C681.5 254.917 670.083 243.5 656 243.5V245Z" fill="#2980B9"/>
<path d="M542 243.5C541.172 243.5 540.5 244.172 540.5 245C540.5 245.828 541.172 246.5 542 246.5V245V243.5ZM1812.06 26.0607C1812.65 25.4749 1812.65 24.5251 1812.06 23.9393L1802.51 14.3934C1801.93 13.8076 1800.98 13.8076 1800.39 14.3934C1799.81 14.9792 1799.81 15.9289 1800.39 16.5147L1808.88 25L1800.39 33.4853C1799.81 34.0711 1799.81 35.0208 1800.39 35.6066C1800.98 36.1924 1801.93 36.1924 1802.51 35.6066L1812.06 26.0607ZM542 245V246.5H654V245V243.5H542V245ZM678 221H679.5V49H678H676.5V221H678ZM702 25V26.5H1811V25V23.5H702V25ZM678 49H679.5C679.5 36.5736 689.574 26.5 702 26.5V25V23.5C687.917 23.5 676.5 34.9167 676.5 49H678ZM654 245V246.5C668.083 246.5 679.5 235.083 679.5 221H678H676.5C676.5 233.426 666.426 243.5 654 243.5V245Z" fill="#2980B9"/>
<path d="M1543.5 104C1543.5 104.828 1544.17 105.5 1545 105.5C1545.83 105.5 1546.5 104.828 1546.5 104H1545H1543.5ZM1812.06 26.0607C1812.65 25.4749 1812.65 24.5251 1812.06 23.9393L1802.51 14.3934C1801.93 13.8076 1800.98 13.8076 1800.39 14.3934C1799.81 14.9792 1799.81 15.9289 1800.39 16.5147L1808.88 25L1800.39 33.4853C1799.81 34.0711 1799.81 35.0208 1800.39 35.6066C1800.98 36.1924 1801.93 36.1924 1802.51 35.6066L1812.06 26.0607ZM1545 104H1546.5V49H1545H1543.5V104H1545ZM1569 25V26.5H1811V25V23.5H1569V25ZM1545 49H1546.5C1546.5 36.5736 1556.57 26.5 1569 26.5V25V23.5C1554.92 23.5 1543.5 34.9167 1543.5 49H1545Z" fill="#F39C12"/>
<path d="M1441 134.5C1441.83 134.5 1442.5 133.828 1442.5 133C1442.5 132.172 1441.83 131.5 1441 131.5V133V134.5ZM1114.94 131.939C1114.35 132.525 1114.35 133.475 1114.94 134.061L1124.49 143.607C1125.07 144.192 1126.02 144.192 1126.61 143.607C1127.19 143.021 1127.19 142.071 1126.61 141.485L1118.12 133L1126.61 124.515C1127.19 123.929 1127.19 122.979 1126.61 122.393C1126.02 121.808 1125.07 121.808 1124.49 122.393L1114.94 131.939ZM1441 133V131.5H1116V133V134.5H1441V133Z" fill="#F39C12"/>
<path d="M1441 134.5C1441.83 134.5 1442.5 133.828 1442.5 133C1442.5 132.172 1441.83 131.5 1441 131.5V133V134.5ZM1442.06 358.061C1442.65 357.475 1442.65 356.525 1442.06 355.939L1432.51 346.393C1431.93 345.808 1430.98 345.808 1430.39 346.393C1429.81 346.979 1429.81 347.929 1430.39 348.515L1438.88 357L1430.39 365.485C1429.81 366.071 1429.81 367.021 1430.39 367.607C1430.98 368.192 1431.93 368.192 1432.51 367.607L1442.06 358.061ZM1441 133V131.5H1343V133V134.5H1441V133ZM1319 157H1317.5V333H1319H1320.5V157H1319ZM1343 357V358.5H1441V357V355.5H1343V357ZM1319 333H1317.5C1317.5 347.083 1328.92 358.5 1343 358.5V357V355.5C1330.57 355.5 1320.5 345.426 1320.5 333H1319ZM1343 133V131.5C1328.92 131.5 1317.5 142.917 1317.5 157H1319H1320.5C1320.5 144.574 1330.57 134.5 1343 134.5V133Z" fill="#F39C12"/>
<rect y="195" width="200" height="100" rx="20" fill="#F2F2F2"/>
<path d="M76.1486 241.273V250H74.3588L70.8858 244.963H70.8304V250H68.7211V241.273H70.5364L73.9711 246.301H74.0435V241.273H76.1486ZM77.475 250V241.273H83.5602V242.986H79.5843V244.776H83.2491V246.493H79.5843V248.287H83.5602V250H77.475ZM86.9735 250L84.4338 241.273H86.7647L88.0815 246.991H88.1539L89.6582 241.273H91.5588L93.063 247.004H93.1355L94.4565 241.273H96.7832L94.2477 250H92.215L90.6426 244.707H90.5744L89.002 250H86.9735ZM99.9473 242.986V241.273H107.324V242.986H104.677V250H102.598V242.986H99.9473ZM109.152 250H106.885L109.829 241.273H112.638L115.582 250H113.315L111.265 243.472H111.197L109.152 250ZM108.849 246.565H113.588V248.168H108.849V246.565ZM120.97 243.889C120.941 243.577 120.815 243.334 120.59 243.161C120.369 242.984 120.052 242.896 119.64 242.896C119.367 242.896 119.14 242.932 118.958 243.003C118.776 243.074 118.64 243.172 118.549 243.297C118.458 243.419 118.411 243.56 118.409 243.719C118.403 243.849 118.428 243.964 118.485 244.064C118.545 244.163 118.63 244.251 118.741 244.328C118.855 244.402 118.991 244.467 119.15 244.524C119.309 244.581 119.488 244.631 119.687 244.673L120.437 244.844C120.869 244.938 121.249 245.062 121.579 245.219C121.911 245.375 122.19 245.561 122.414 245.777C122.642 245.993 122.813 246.241 122.93 246.523C123.046 246.804 123.106 247.119 123.109 247.469C123.106 248.02 122.967 248.493 122.691 248.888C122.416 249.283 122.019 249.585 121.502 249.795C120.988 250.006 120.367 250.111 119.64 250.111C118.91 250.111 118.274 250.001 117.731 249.783C117.188 249.564 116.767 249.232 116.465 248.786C116.164 248.339 116.009 247.776 116.001 247.094H118.021C118.038 247.375 118.113 247.609 118.247 247.797C118.38 247.984 118.563 248.126 118.796 248.223C119.032 248.32 119.305 248.368 119.615 248.368C119.899 248.368 120.14 248.33 120.339 248.253C120.541 248.176 120.695 248.07 120.803 247.933C120.911 247.797 120.967 247.641 120.97 247.464C120.967 247.3 120.916 247.159 120.816 247.043C120.717 246.923 120.563 246.821 120.356 246.736C120.151 246.648 119.89 246.567 119.572 246.493L118.66 246.28C117.904 246.107 117.309 245.827 116.874 245.44C116.44 245.051 116.224 244.526 116.227 243.864C116.224 243.324 116.369 242.851 116.661 242.445C116.954 242.038 117.359 241.722 117.876 241.494C118.393 241.267 118.982 241.153 119.644 241.153C120.32 241.153 120.907 241.268 121.404 241.499C121.904 241.726 122.292 242.045 122.568 242.457C122.843 242.869 122.984 243.347 122.99 243.889H120.97ZM124.174 250V241.273H126.284V244.963H126.399L129.284 241.273H131.768L128.674 245.168L131.823 250H129.301L127.127 246.57L126.284 247.635V250H124.174Z" fill="black"/>
<path d="M204 243.5C203.172 243.5 202.5 244.172 202.5 245C202.5 245.828 203.172 246.5 204 246.5V245V243.5ZM335.061 246.061C335.646 245.475 335.646 244.525 335.061 243.939L325.515 234.393C324.929 233.808 323.979 233.808 323.393 234.393C322.808 234.979 322.808 235.929 323.393 236.515L331.879 245L323.393 253.485C322.808 254.071 322.808 255.021 323.393 255.607C323.979 256.192 324.929 256.192 325.515 255.607L335.061 246.061ZM204 245V246.5H207V245V243.5H204V245ZM211 245V246.5H217V245V243.5H211V245ZM221 245V246.5H227V245V243.5H221V245ZM231 245V246.5H237V245V243.5H231V245ZM241 245V246.5H247V245V243.5H241V245ZM251 245V246.5H257V245V243.5H251V245ZM261 245V246.5H267V245V243.5H261V245ZM271 245V246.5H277V245V243.5H271V245ZM281 245V246.5H287V245V243.5H281V245ZM291 245V246.5H297V245V243.5H291V245ZM301 245V246.5H307V245V243.5H301V245ZM311 245V246.5H317V245V243.5H311V245ZM321 245V246.5H327V245V243.5H321V245ZM331 245V246.5H334V245V243.5H331V245Z" fill="#CECCCC"/>
<rect x="1217" y="415" width="200" height="100" rx="20" fill="#F2F2F2"/>
<path d="M1293.15 461.273V470H1291.36L1287.89 464.963H1287.83V470H1285.72V461.273H1287.54L1290.97 466.301H1291.04V461.273H1293.15ZM1294.47 470V461.273H1300.56V462.986H1296.58V464.776H1300.25V466.493H1296.58V468.287H1300.56V470H1294.47ZM1303.97 470L1301.43 461.273H1303.76L1305.08 466.991H1305.15L1306.66 461.273H1308.56L1310.06 467.004H1310.14L1311.46 461.273H1313.78L1311.25 470H1309.22L1307.64 464.707H1307.57L1306 470H1303.97ZM1316.95 462.986V461.273H1324.32V462.986H1321.68V470H1319.6V462.986H1316.95ZM1326.15 470H1323.88L1326.83 461.273H1329.64L1332.58 470H1330.32L1328.27 463.472H1328.2L1326.15 470ZM1325.85 466.565H1330.59V468.168H1325.85V466.565ZM1337.97 463.889C1337.94 463.577 1337.81 463.334 1337.59 463.161C1337.37 462.984 1337.05 462.896 1336.64 462.896C1336.37 462.896 1336.14 462.932 1335.96 463.003C1335.78 463.074 1335.64 463.172 1335.55 463.297C1335.46 463.419 1335.41 463.56 1335.41 463.719C1335.4 463.849 1335.43 463.964 1335.49 464.064C1335.54 464.163 1335.63 464.251 1335.74 464.328C1335.85 464.402 1335.99 464.467 1336.15 464.524C1336.31 464.581 1336.49 464.631 1336.69 464.673L1337.44 464.844C1337.87 464.938 1338.25 465.062 1338.58 465.219C1338.91 465.375 1339.19 465.561 1339.41 465.777C1339.64 465.993 1339.81 466.241 1339.93 466.523C1340.05 466.804 1340.11 467.119 1340.11 467.469C1340.11 468.02 1339.97 468.493 1339.69 468.888C1339.42 469.283 1339.02 469.585 1338.5 469.795C1337.99 470.006 1337.37 470.111 1336.64 470.111C1335.91 470.111 1335.27 470.001 1334.73 469.783C1334.19 469.564 1333.77 469.232 1333.47 468.786C1333.16 468.339 1333.01 467.776 1333 467.094H1335.02C1335.04 467.375 1335.11 467.609 1335.25 467.797C1335.38 467.984 1335.56 468.126 1335.8 468.223C1336.03 468.32 1336.3 468.368 1336.61 468.368C1336.9 468.368 1337.14 468.33 1337.34 468.253C1337.54 468.176 1337.7 468.07 1337.8 467.933C1337.91 467.797 1337.97 467.641 1337.97 467.464C1337.97 467.3 1337.92 467.159 1337.82 467.043C1337.72 466.923 1337.56 466.821 1337.36 466.736C1337.15 466.648 1336.89 466.567 1336.57 466.493L1335.66 466.28C1334.9 466.107 1334.31 465.827 1333.87 465.44C1333.44 465.051 1333.22 464.526 1333.23 463.864C1333.22 463.324 1333.37 462.851 1333.66 462.445C1333.95 462.038 1334.36 461.722 1334.88 461.494C1335.39 461.267 1335.98 461.153 1336.64 461.153C1337.32 461.153 1337.91 461.268 1338.4 461.499C1338.9 461.726 1339.29 462.045 1339.57 462.457C1339.84 462.869 1339.98 463.347 1339.99 463.889H1337.97ZM1341.17 470V461.273H1343.28V464.963H1343.4L1346.28 461.273H1348.77L1345.67 465.168L1348.82 470H1346.3L1344.13 466.57L1343.28 467.635V470H1341.17Z" fill="black"/>
<path d="M1421 463.5C1420.17 463.5 1419.5 464.172 1419.5 465C1419.5 465.828 1420.17 466.5 1421 466.5V465V463.5ZM1812.06 466.061C1812.65 465.475 1812.65 464.525 1812.06 463.939L1802.51 454.393C1801.93 453.808 1800.98 453.808 1800.39 454.393C1799.81 454.979 1799.81 455.929 1800.39 456.515L1808.88 465L1800.39 473.485C1799.81 474.071 1799.81 475.021 1800.39 475.607C1800.98 476.192 1801.93 476.192 1802.51 475.607L1812.06 466.061ZM1421 465V466.5H1424V465V463.5H1421V465ZM1428 465V466.5H1434V465V463.5H1428V465ZM1438 465V466.5H1444V465V463.5H1438V465ZM1448 465V466.5H1454V465V463.5H1448V465ZM1458 465V466.5H1464V465V463.5H1458V465ZM1468 465V466.5H1474V465V463.5H1468V465ZM1478 465V466.5H1484V465V463.5H1478V465ZM1488 465V466.5H1494V465V463.5H1488V465ZM1498 465V466.5H1504V465V463.5H1498V465ZM1508 465V466.5H1514V465V463.5H1508V465ZM1518 465V466.5H1524V465V463.5H1518V465ZM1528 465V466.5H1534V465V463.5H1528V465ZM1538 465V466.5H1544V465V463.5H1538V465ZM1548 465V466.5H1554V465V463.5H1548V465ZM1558 465V466.5H1564V465V463.5H1558V465ZM1568 465V466.5H1574V465V463.5H1568V465ZM1578 465V466.5H1584V465V463.5H1578V465ZM1588 465V466.5H1594V465V463.5H1588V465ZM1598 465V466.5H1604V465V463.5H1598V465ZM1608 465V466.5H1614V465V463.5H1608V465ZM1618 465V466.5H1624V465V463.5H1618V465ZM1628 465V466.5H1634V465V463.5H1628V465ZM1638 465V466.5H1644V465V463.5H1638V465ZM1648 465V466.5H1654V465V463.5H1648V465ZM1658 465V466.5H1664V465V463.5H1658V465ZM1668 465V466.5H1674V465V463.5H1668V465ZM1678 465V466.5H1684V465V463.5H1678V465ZM1688 465V466.5H1694V465V463.5H1688V465ZM1698 465V466.5H1704V465V463.5H1698V465ZM1708 465V466.5H1714V465V463.5H1708V465ZM1718 465V466.5H1724V465V463.5H1718V465ZM1728 465V466.5H1734V465V463.5H1728V465ZM1738 465V466.5H1744V465V463.5H1738V465ZM1748 465V466.5H1754V465V463.5H1748V465ZM1758 465V466.5H1764V465V463.5H1758V465ZM1768 465V466.5H1774V465V463.5H1768V465ZM1778 465V466.5H1784V465V463.5H1778V465ZM1788 465V466.5H1794V465V463.5H1788V465ZM1798 465V466.5H1804V465V463.5H1798V465ZM1808 465V466.5H1811V465V463.5H1808V465Z" fill="#CECCCC"/>
<path d="M1116 355.5C1115.17 355.5 1114.5 356.172 1114.5 357C1114.5 357.828 1115.17 358.5 1116 358.5V357V355.5ZM1442.06 358.061C1442.65 357.475 1442.65 356.525 1442.06 355.939L1432.51 346.393C1431.93 345.808 1430.98 345.808 1430.39 346.393C1429.81 346.979 1429.81 347.929 1430.39 348.515L1438.88 357L1430.39 365.485C1429.81 366.071 1429.81 367.021 1430.39 367.607C1430.98 368.192 1431.93 368.192 1432.51 367.607L1442.06 358.061ZM1116 357V358.5H1441V357V355.5H1116V357Z" fill="#A2D9CE"/>
<path d="M1546.5 386C1546.5 385.172 1545.83 384.5 1545 384.5C1544.17 384.5 1543.5 385.172 1543.5 386H1545H1546.5ZM1812.06 466.061C1812.65 465.475 1812.65 464.525 1812.06 463.939L1802.51 454.393C1801.93 453.808 1800.98 453.808 1800.39 454.393C1799.81 454.979 1799.81 455.929 1800.39 456.515L1808.88 465L1800.39 473.485C1799.81 474.071 1799.81 475.021 1800.39 475.607C1800.98 476.192 1801.93 476.192 1802.51 475.607L1812.06 466.061ZM1545 386H1543.5V441H1545H1546.5V386H1545ZM1569 465V466.5H1811V465V463.5H1569V465ZM1545 441H1543.5C1543.5 455.083 1554.92 466.5 1569 466.5V465V463.5C1556.57 463.5 1546.5 453.426 1546.5 441H1545Z" fill="#2ECC71"/>
</svg>
