<svg width="1192" height="387" viewBox="0 0 1192 387" fill="none" xmlns="http://www.w3.org/2000/svg">
<rect x="360.5" y="25.5" width="199" height="49" stroke="#2980B9"/>
<rect x="360" y="25" width="200" height="50" rx="25" fill="#3498DB"/>
<path d="M423.983 56H421.527L424.717 46.5455H427.759L430.949 56H428.493L426.273 48.9276H426.199L423.983 56ZM423.655 52.2791H428.789V54.0149H423.655V52.2791ZM436.785 49.38C436.755 49.0414 436.618 48.7783 436.375 48.5906C436.135 48.3997 435.791 48.3043 435.345 48.3043C435.05 48.3043 434.803 48.3428 434.606 48.4197C434.41 48.4967 434.262 48.6029 434.163 48.7383C434.065 48.8706 434.014 49.023 434.011 49.1953C434.005 49.3369 434.033 49.4615 434.094 49.5692C434.159 49.677 434.251 49.7724 434.371 49.8555C434.494 49.9355 434.642 50.0063 434.814 50.0678C434.987 50.1294 435.18 50.1832 435.396 50.2294L436.208 50.4141C436.676 50.5156 437.089 50.651 437.446 50.8203C437.806 50.9896 438.107 51.1912 438.35 51.4251C438.597 51.659 438.783 51.9283 438.909 52.233C439.035 52.5376 439.1 52.8793 439.103 53.2578C439.1 53.8549 438.949 54.3673 438.651 54.7951C438.352 55.2229 437.923 55.5507 437.363 55.7784C436.805 56.0062 436.133 56.12 435.345 56.12C434.554 56.12 433.865 56.0015 433.277 55.7646C432.689 55.5276 432.232 55.1675 431.906 54.6843C431.58 54.2011 431.412 53.5902 431.403 52.8516H433.591C433.609 53.1562 433.691 53.4102 433.836 53.6133C433.98 53.8164 434.179 53.9703 434.431 54.0749C434.687 54.1796 434.982 54.2319 435.317 54.2319C435.625 54.2319 435.887 54.1903 436.102 54.1072C436.321 54.0241 436.488 53.9087 436.605 53.761C436.722 53.6133 436.782 53.444 436.785 53.2532C436.782 53.0747 436.727 52.9223 436.619 52.7962C436.512 52.6669 436.345 52.5561 436.121 52.4638C435.899 52.3684 435.616 52.2807 435.271 52.2006L434.283 51.9698C433.465 51.7821 432.82 51.4789 432.349 51.0604C431.878 50.6387 431.644 50.0694 431.647 49.3523C431.644 48.7675 431.801 48.2551 432.118 47.815C432.435 47.3749 432.874 47.0317 433.434 46.7855C433.994 46.5393 434.633 46.4162 435.35 46.4162C436.082 46.4162 436.718 46.5408 437.256 46.7901C437.798 47.0363 438.218 47.3826 438.517 47.8288C438.815 48.2751 438.968 48.7921 438.974 49.38H436.785ZM440.257 56V46.5455H442.542V50.5433H442.667L445.792 46.5455H448.484L445.132 50.7649L448.544 56H445.811L443.456 52.2837L442.542 53.4379V56H440.257ZM460.76 49.9709H458.452C458.421 49.7339 458.358 49.52 458.262 49.3292C458.167 49.1384 458.041 48.9753 457.884 48.8398C457.727 48.7044 457.541 48.6013 457.325 48.5305C457.113 48.4567 456.878 48.4197 456.619 48.4197C456.16 48.4197 455.765 48.5321 455.433 48.7567C455.103 48.9814 454.849 49.3061 454.671 49.7308C454.495 50.1555 454.408 50.6695 454.408 51.2727C454.408 51.9006 454.497 52.4268 454.675 52.8516C454.857 53.2732 455.111 53.5917 455.437 53.8072C455.766 54.0195 456.156 54.1257 456.605 54.1257C456.858 54.1257 457.087 54.0934 457.293 54.0288C457.502 53.9641 457.685 53.8703 457.842 53.7472C458.002 53.621 458.133 53.4686 458.235 53.2901C458.339 53.1085 458.412 52.9039 458.452 52.6761L460.76 52.69C460.72 53.1085 460.598 53.521 460.395 53.9272C460.195 54.3335 459.92 54.7043 459.569 55.0398C459.218 55.3722 458.79 55.6368 458.286 55.8338C457.784 56.0308 457.208 56.1293 456.559 56.1293C455.703 56.1293 454.937 55.9415 454.26 55.5661C453.586 55.1875 453.054 54.6366 452.663 53.9134C452.272 53.1901 452.076 52.3099 452.076 51.2727C452.076 50.2325 452.275 49.3507 452.672 48.6275C453.069 47.9042 453.606 47.3549 454.283 46.9794C454.96 46.6039 455.719 46.4162 456.559 46.4162C457.131 46.4162 457.661 46.4962 458.147 46.6562C458.633 46.8132 459.061 47.044 459.43 47.3487C459.8 47.6503 460.1 48.0212 460.331 48.4613C460.561 48.9014 460.705 49.4046 460.76 49.9709ZM462.068 56V46.5455H464.353V54.1442H468.286V56H462.068ZM471.754 46.5455V56H469.469V46.5455H471.754ZM473.189 56V46.5455H479.781V48.4013H475.474V50.3402H479.444V52.2006H475.474V54.1442H479.781V56H473.189ZM489.259 46.5455V56H487.32L483.557 50.5433H483.497V56H481.212V46.5455H483.179L486.9 51.9929H486.978V46.5455H489.259ZM490.386 48.4013V46.5455H498.377V48.4013H495.511V56H493.258V48.4013H490.386Z" fill="white"/>
<rect x="992" y="25" width="200" height="50" rx="25" fill="#00D563"/>
<path d="M1067.91 56H1065.45L1068.64 46.5455H1071.69L1074.88 56H1072.42L1070.2 48.9276H1070.13L1067.91 56ZM1067.58 52.2791H1072.72V54.0149H1067.58V52.2791ZM1081.65 49.6339C1081.6 49.44 1081.53 49.2692 1081.42 49.1214C1081.32 48.9706 1081.2 48.8429 1081.05 48.7383C1080.9 48.6336 1080.73 48.5552 1080.54 48.5028C1080.35 48.4474 1080.14 48.4197 1079.91 48.4197C1079.46 48.4197 1079.06 48.5305 1078.72 48.7521C1078.39 48.9737 1078.13 49.2969 1077.95 49.7216C1077.77 50.1432 1077.68 50.6557 1077.68 51.2589C1077.68 51.8652 1077.77 52.3822 1077.94 52.81C1078.12 53.2378 1078.37 53.564 1078.7 53.7887C1079.04 54.0134 1079.44 54.1257 1079.91 54.1257C1080.33 54.1257 1080.69 54.058 1080.98 53.9226C1081.27 53.7841 1081.49 53.5887 1081.64 53.3363C1081.79 53.0839 1081.87 52.7869 1081.87 52.4453L1082.29 52.4961H1079.99V50.8295H1084.07V52.0806C1084.07 52.927 1083.89 53.6518 1083.53 54.255C1083.17 54.8582 1082.68 55.3214 1082.05 55.6445C1081.43 55.9677 1080.71 56.1293 1079.9 56.1293C1078.99 56.1293 1078.2 55.9338 1077.52 55.543C1076.83 55.1521 1076.3 54.5951 1075.92 53.8718C1075.54 53.1455 1075.35 52.2837 1075.35 51.2866C1075.35 50.511 1075.46 49.8232 1075.69 49.223C1075.93 48.6198 1076.25 48.1089 1076.66 47.6903C1077.07 47.2718 1077.56 46.9548 1078.1 46.7393C1078.65 46.5239 1079.24 46.4162 1079.87 46.4162C1080.42 46.4162 1080.93 46.4947 1081.4 46.6516C1081.87 46.8086 1082.29 47.0302 1082.65 47.3164C1083.02 47.6026 1083.31 47.9427 1083.54 48.3366C1083.77 48.7306 1083.91 49.163 1083.97 49.6339H1081.65ZM1085.42 56V46.5455H1089.32C1090.03 46.5455 1090.64 46.6732 1091.15 46.9286C1091.67 47.181 1092.07 47.5442 1092.35 48.0181C1092.63 48.489 1092.77 49.0476 1092.77 49.6939C1092.77 50.3494 1092.63 50.9065 1092.34 51.3651C1092.05 51.8205 1091.65 52.1683 1091.12 52.4084C1090.6 52.6454 1089.97 52.7638 1089.25 52.7638H1086.78V50.9634H1088.83C1089.17 50.9634 1089.46 50.9188 1089.69 50.8295C1089.92 50.7372 1090.1 50.5987 1090.22 50.4141C1090.34 50.2263 1090.4 49.9863 1090.4 49.6939C1090.4 49.4015 1090.34 49.1599 1090.22 48.9691C1090.1 48.7752 1089.92 48.6306 1089.69 48.5352C1089.46 48.4367 1089.17 48.3874 1088.83 48.3874H1087.7V56H1085.42ZM1090.74 51.679L1093.09 56H1090.6L1088.29 51.679H1090.74ZM1094.02 56V46.5455H1100.62V48.4013H1096.31V50.3402H1100.28V52.2006H1096.31V54.1442H1100.62V56H1094.02ZM1102.05 56V46.5455H1108.64V48.4013H1104.33V50.3402H1108.3V52.2006H1104.33V54.1442H1108.64V56H1102.05ZM1113.56 56H1110.07V46.5455H1113.56C1114.52 46.5455 1115.35 46.7347 1116.05 47.1133C1116.75 47.4888 1117.29 48.0304 1117.66 48.7383C1118.04 49.4431 1118.23 50.2863 1118.23 51.2681C1118.23 52.253 1118.04 53.0993 1117.66 53.8072C1117.29 54.515 1116.75 55.0582 1116.05 55.4368C1115.35 55.8123 1114.52 56 1113.56 56ZM1112.36 54.0518H1113.48C1114.01 54.0518 1114.45 53.9626 1114.82 53.7841C1115.19 53.6025 1115.47 53.3086 1115.66 52.9023C1115.85 52.493 1115.94 51.9483 1115.94 51.2681C1115.94 50.5879 1115.85 50.0463 1115.66 49.6431C1115.47 49.2369 1115.18 48.9445 1114.81 48.766C1114.44 48.5844 1113.99 48.4936 1113.44 48.4936H1112.36V54.0518Z" fill="white"/>
<rect x="682" y="242" width="200" height="50" rx="25" fill="#C0392B"/>
<path d="M752.831 273V263.545H756.736C757.444 263.545 758.055 263.673 758.569 263.929C759.086 264.181 759.485 264.544 759.765 265.018C760.045 265.489 760.185 266.048 760.185 266.694C760.185 267.349 760.042 267.906 759.756 268.365C759.469 268.821 759.063 269.168 758.537 269.408C758.01 269.645 757.387 269.764 756.667 269.764H754.197V267.963H756.242C756.587 267.963 756.875 267.919 757.106 267.83C757.34 267.737 757.517 267.599 757.637 267.414C757.757 267.226 757.817 266.986 757.817 266.694C757.817 266.402 757.757 266.16 757.637 265.969C757.517 265.775 757.34 265.631 757.106 265.535C756.872 265.437 756.584 265.387 756.242 265.387H755.116V273H752.831ZM758.154 268.679L760.508 273H758.015L755.707 268.679H758.154ZM761.438 273V263.545H768.031V265.401H763.723V267.34H767.694V269.201H763.723V271.144H768.031V273H761.438ZM769.462 273V263.545H775.915V265.401H771.747V267.34H775.505V269.201H771.747V273H769.462ZM782.786 263.545H785.066V269.644C785.066 270.349 784.899 270.963 784.563 271.486C784.228 272.006 783.76 272.409 783.16 272.695C782.56 272.978 781.863 273.12 781.069 273.12C780.265 273.12 779.564 272.978 778.964 272.695C778.363 272.409 777.897 272.006 777.565 271.486C777.232 270.963 777.066 270.349 777.066 269.644V263.545H779.351V269.445C779.351 269.772 779.422 270.062 779.564 270.318C779.708 270.573 779.91 270.773 780.168 270.918C780.427 271.063 780.727 271.135 781.069 271.135C781.41 271.135 781.709 271.063 781.964 270.918C782.223 270.773 782.424 270.573 782.569 270.318C782.714 270.062 782.786 269.772 782.786 269.445V263.545ZM791.609 266.38C791.578 266.041 791.441 265.778 791.198 265.591C790.958 265.4 790.615 265.304 790.169 265.304C789.873 265.304 789.627 265.343 789.43 265.42C789.233 265.497 789.086 265.603 788.987 265.738C788.889 265.871 788.838 266.023 788.835 266.195C788.829 266.337 788.856 266.462 788.918 266.569C788.982 266.677 789.075 266.772 789.195 266.855C789.318 266.935 789.466 267.006 789.638 267.068C789.81 267.129 790.004 267.183 790.22 267.229L791.032 267.414C791.5 267.516 791.912 267.651 792.269 267.82C792.629 267.99 792.931 268.191 793.174 268.425C793.42 268.659 793.607 268.928 793.733 269.233C793.859 269.538 793.924 269.879 793.927 270.258C793.924 270.855 793.773 271.367 793.474 271.795C793.176 272.223 792.746 272.551 792.186 272.778C791.629 273.006 790.957 273.12 790.169 273.12C789.378 273.12 788.689 273.002 788.101 272.765C787.513 272.528 787.056 272.167 786.73 271.684C786.403 271.201 786.236 270.59 786.226 269.852H788.415C788.433 270.156 788.515 270.41 788.659 270.613C788.804 270.816 789.002 270.97 789.255 271.075C789.51 271.18 789.806 271.232 790.141 271.232C790.449 271.232 790.711 271.19 790.926 271.107C791.144 271.024 791.312 270.909 791.429 270.761C791.546 270.613 791.606 270.444 791.609 270.253C791.606 270.075 791.551 269.922 791.443 269.796C791.335 269.667 791.169 269.556 790.944 269.464C790.723 269.368 790.44 269.281 790.095 269.201L789.107 268.97C788.288 268.782 787.644 268.479 787.173 268.06C786.702 267.639 786.468 267.069 786.471 266.352C786.468 265.768 786.625 265.255 786.942 264.815C787.259 264.375 787.698 264.032 788.258 263.786C788.818 263.539 789.456 263.416 790.173 263.416C790.906 263.416 791.541 263.541 792.08 263.79C792.622 264.036 793.042 264.383 793.34 264.829C793.639 265.275 793.791 265.792 793.797 266.38H791.609ZM795.081 273V263.545H801.673V265.401H797.366V267.34H801.336V269.201H797.366V271.144H801.673V273H795.081ZM806.599 273H803.104V263.545H806.594C807.558 263.545 808.387 263.735 809.083 264.113C809.781 264.489 810.32 265.03 810.698 265.738C811.077 266.443 811.266 267.286 811.266 268.268C811.266 269.253 811.077 270.099 810.698 270.807C810.323 271.515 809.786 272.058 809.087 272.437C808.389 272.812 807.559 273 806.599 273ZM805.389 271.052H806.511C807.041 271.052 807.488 270.963 807.855 270.784C808.224 270.603 808.502 270.309 808.69 269.902C808.881 269.493 808.976 268.948 808.976 268.268C808.976 267.588 808.881 267.046 808.69 266.643C808.499 266.237 808.218 265.944 807.845 265.766C807.476 265.584 807.021 265.494 806.479 265.494H805.389V271.052Z" fill="white"/>
<rect x="682" y="147" width="200" height="50" rx="25" fill="#FF8C00"/>
<path d="M723.779 170.401V168.545H731.77V170.401H728.904V178H726.651V170.401H723.779ZM733.751 178H731.295L734.485 168.545H737.527L740.717 178H738.261L736.041 170.928H735.967L733.751 178ZM733.423 174.279H738.557V176.015H733.423V174.279ZM746.554 171.38C746.523 171.041 746.386 170.778 746.143 170.591C745.903 170.4 745.559 170.304 745.113 170.304C744.818 170.304 744.572 170.343 744.375 170.42C744.178 170.497 744.03 170.603 743.931 170.738C743.833 170.871 743.782 171.023 743.779 171.195C743.773 171.337 743.801 171.462 743.862 171.569C743.927 171.677 744.019 171.772 744.139 171.855C744.262 171.935 744.41 172.006 744.582 172.068C744.755 172.129 744.949 172.183 745.164 172.229L745.976 172.414C746.444 172.516 746.857 172.651 747.214 172.82C747.574 172.99 747.875 173.191 748.119 173.425C748.365 173.659 748.551 173.928 748.677 174.233C748.803 174.538 748.868 174.879 748.871 175.258C748.868 175.855 748.717 176.367 748.419 176.795C748.12 177.223 747.691 177.551 747.131 177.778C746.574 178.006 745.901 178.12 745.113 178.12C744.322 178.12 743.633 178.002 743.045 177.765C742.457 177.528 742 177.167 741.674 176.684C741.348 176.201 741.18 175.59 741.171 174.852H743.359C743.377 175.156 743.459 175.41 743.604 175.613C743.748 175.816 743.947 175.97 744.199 176.075C744.455 176.18 744.75 176.232 745.085 176.232C745.393 176.232 745.655 176.19 745.87 176.107C746.089 176.024 746.257 175.909 746.373 175.761C746.49 175.613 746.55 175.444 746.554 175.253C746.55 175.075 746.495 174.922 746.387 174.796C746.28 174.667 746.113 174.556 745.889 174.464C745.667 174.368 745.384 174.281 745.039 174.201L744.051 173.97C743.233 173.782 742.588 173.479 742.117 173.06C741.646 172.639 741.412 172.069 741.415 171.352C741.412 170.768 741.569 170.255 741.886 169.815C742.203 169.375 742.642 169.032 743.202 168.786C743.762 168.539 744.401 168.416 745.118 168.416C745.85 168.416 746.486 168.541 747.024 168.79C747.566 169.036 747.986 169.383 748.285 169.829C748.583 170.275 748.736 170.792 748.742 171.38H746.554ZM750.025 178V168.545H752.31V172.543H752.435L755.56 168.545H758.252L754.9 172.765L758.312 178H755.579L753.224 174.284L752.31 175.438V178H750.025ZM770.528 171.971H768.22C768.189 171.734 768.126 171.52 768.031 171.329C767.935 171.138 767.809 170.975 767.652 170.84C767.495 170.704 767.309 170.601 767.093 170.531C766.881 170.457 766.646 170.42 766.387 170.42C765.929 170.42 765.533 170.532 765.201 170.757C764.871 170.981 764.617 171.306 764.439 171.731C764.263 172.156 764.176 172.67 764.176 173.273C764.176 173.901 764.265 174.427 764.444 174.852C764.625 175.273 764.879 175.592 765.205 175.807C765.535 176.02 765.924 176.126 766.373 176.126C766.626 176.126 766.855 176.093 767.061 176.029C767.27 175.964 767.453 175.87 767.61 175.747C767.77 175.621 767.901 175.469 768.003 175.29C768.107 175.109 768.18 174.904 768.22 174.676L770.528 174.69C770.488 175.109 770.366 175.521 770.163 175.927C769.963 176.333 769.688 176.704 769.337 177.04C768.986 177.372 768.558 177.637 768.054 177.834C767.552 178.031 766.976 178.129 766.327 178.129C765.471 178.129 764.705 177.942 764.028 177.566C763.354 177.187 762.822 176.637 762.431 175.913C762.04 175.19 761.844 174.31 761.844 173.273C761.844 172.232 762.043 171.351 762.44 170.627C762.837 169.904 763.374 169.355 764.051 168.979C764.728 168.604 765.487 168.416 766.327 168.416C766.9 168.416 767.429 168.496 767.915 168.656C768.401 168.813 768.829 169.044 769.199 169.349C769.568 169.65 769.868 170.021 770.099 170.461C770.33 170.901 770.473 171.405 770.528 171.971ZM773.64 178H771.184L774.374 168.545H777.416L780.606 178H778.15L775.929 170.928H775.855L773.64 178ZM773.312 174.279H778.445V176.015H773.312V174.279ZM789.67 168.545V178H787.731L783.969 172.543H783.909V178H781.624V168.545H783.59L787.311 173.993H787.39V168.545H789.67ZM799.689 171.971H797.381C797.35 171.734 797.287 171.52 797.192 171.329C797.096 171.138 796.97 170.975 796.813 170.84C796.656 170.704 796.47 170.601 796.255 170.531C796.042 170.457 795.807 170.42 795.548 170.42C795.09 170.42 794.694 170.532 794.362 170.757C794.032 170.981 793.779 171.306 793.6 171.731C793.425 172.156 793.337 172.67 793.337 173.273C793.337 173.901 793.426 174.427 793.605 174.852C793.786 175.273 794.04 175.592 794.366 175.807C794.696 176.02 795.085 176.126 795.534 176.126C795.787 176.126 796.016 176.093 796.222 176.029C796.431 175.964 796.615 175.87 796.772 175.747C796.932 175.621 797.062 175.469 797.164 175.29C797.269 175.109 797.341 174.904 797.381 174.676L799.689 174.69C799.649 175.109 799.528 175.521 799.324 175.927C799.124 176.333 798.849 176.704 798.498 177.04C798.147 177.372 797.719 177.637 797.215 177.834C796.713 178.031 796.138 178.129 795.488 178.129C794.633 178.129 793.866 177.942 793.189 177.566C792.515 177.187 791.983 176.637 791.592 175.913C791.201 175.19 791.006 174.31 791.006 173.273C791.006 172.232 791.204 171.351 791.601 170.627C791.998 169.904 792.535 169.355 793.212 168.979C793.889 168.604 794.648 168.416 795.488 168.416C796.061 168.416 796.59 168.496 797.076 168.656C797.563 168.813 797.99 169.044 798.36 169.349C798.729 169.65 799.029 170.021 799.26 170.461C799.491 170.901 799.634 171.405 799.689 171.971ZM800.997 178V168.545H807.589V170.401H803.282V172.34H807.252V174.201H803.282V176.144H807.589V178H800.997ZM809.02 178V168.545H811.305V176.144H815.239V178H809.02ZM816.422 178V168.545H818.707V176.144H822.64V178H816.422ZM823.823 178V168.545H830.415V170.401H826.108V172.34H830.078V174.201H826.108V176.144H830.415V178H823.823ZM835.341 178H831.846V168.545H835.336C836.3 168.545 837.129 168.735 837.825 169.113C838.523 169.489 839.062 170.03 839.441 170.738C839.819 171.443 840.008 172.286 840.008 173.268C840.008 174.253 839.819 175.099 839.441 175.807C839.065 176.515 838.528 177.058 837.829 177.437C837.131 177.812 836.301 178 835.341 178ZM834.132 176.052H835.253C835.783 176.052 836.231 175.963 836.597 175.784C836.966 175.603 837.245 175.309 837.432 174.902C837.623 174.493 837.719 173.948 837.719 173.268C837.719 172.588 837.623 172.046 837.432 171.643C837.242 171.237 836.96 170.944 836.588 170.766C836.218 170.584 835.763 170.494 835.221 170.494H834.132V176.052Z" fill="white"/>
<rect x="682" y="337" width="200" height="50" rx="25" fill="#9A0000"/>
<path d="M733.236 350.545H736.065L738.466 356.399H738.577L740.977 350.545H743.807V360H741.582V354.192H741.504L739.232 359.94H737.811L735.539 354.16H735.461V360H733.236V350.545ZM747.278 360H744.822L748.012 350.545H751.054L754.244 360H751.788L749.568 352.928H749.494L747.278 360ZM746.95 356.279H752.083V358.015H746.95V356.279ZM757.547 350.545V360H755.262V350.545H757.547ZM767.028 350.545V360H765.089L761.327 354.543H761.267V360H758.982V350.545H760.948L764.669 355.993H764.748V350.545H767.028ZM768.156 352.401V350.545H776.147V352.401H773.28V360H771.027V352.401H768.156ZM777.263 360V350.545H783.855V352.401H779.548V354.34H783.518V356.201H779.548V358.144H783.855V360H777.263ZM793.333 350.545V360H791.394L787.632 354.543H787.572V360H785.286V350.545H787.253L790.974 355.993H791.052V350.545H793.333ZM796.815 360H794.359L797.549 350.545H800.591L803.781 360H801.325L799.105 352.928H799.031L796.815 360ZM796.487 356.279H801.621V358.015H796.487V356.279ZM812.846 350.545V360H810.907L807.144 354.543H807.084V360H804.799V350.545H806.766L810.487 355.993H810.565V350.545H812.846ZM822.864 353.971H820.556C820.525 353.734 820.462 353.52 820.367 353.329C820.272 353.138 820.145 352.975 819.988 352.84C819.831 352.704 819.645 352.601 819.43 352.531C819.217 352.457 818.982 352.42 818.723 352.42C818.265 352.42 817.869 352.532 817.537 352.757C817.208 352.981 816.954 353.306 816.775 353.731C816.6 354.156 816.512 354.67 816.512 355.273C816.512 355.901 816.601 356.427 816.78 356.852C816.962 357.273 817.215 357.592 817.542 357.807C817.871 358.02 818.26 358.126 818.71 358.126C818.962 358.126 819.191 358.093 819.398 358.029C819.607 357.964 819.79 357.87 819.947 357.747C820.107 357.621 820.238 357.469 820.339 357.29C820.444 357.109 820.516 356.904 820.556 356.676L822.864 356.69C822.824 357.109 822.703 357.521 822.5 357.927C822.3 358.333 822.024 358.704 821.673 359.04C821.323 359.372 820.895 359.637 820.39 359.834C819.888 360.031 819.313 360.129 818.663 360.129C817.808 360.129 817.042 359.942 816.364 359.566C815.69 359.187 815.158 358.637 814.767 357.913C814.376 357.19 814.181 356.31 814.181 355.273C814.181 354.232 814.379 353.351 814.776 352.627C815.173 351.904 815.71 351.355 816.388 350.979C817.065 350.604 817.823 350.416 818.663 350.416C819.236 350.416 819.765 350.496 820.252 350.656C820.738 350.813 821.166 351.044 821.535 351.349C821.904 351.65 822.204 352.021 822.435 352.461C822.666 352.901 822.809 353.405 822.864 353.971ZM824.172 360V350.545H830.764V352.401H826.457V354.34H830.427V356.201H826.457V358.144H830.764V360H824.172ZM751.599 369.971H749.291C749.26 369.734 749.197 369.52 749.102 369.329C749.006 369.138 748.88 368.975 748.723 368.84C748.566 368.704 748.38 368.601 748.165 368.531C747.952 368.457 747.717 368.42 747.458 368.42C747 368.42 746.604 368.532 746.272 368.757C745.943 368.981 745.689 369.306 745.51 369.731C745.335 370.156 745.247 370.67 745.247 371.273C745.247 371.901 745.336 372.427 745.515 372.852C745.696 373.273 745.95 373.592 746.277 373.807C746.606 374.02 746.995 374.126 747.445 374.126C747.697 374.126 747.926 374.093 748.132 374.029C748.342 373.964 748.525 373.87 748.682 373.747C748.842 373.621 748.973 373.469 749.074 373.29C749.179 373.109 749.251 372.904 749.291 372.676L751.599 372.69C751.559 373.109 751.438 373.521 751.235 373.927C751.035 374.333 750.759 374.704 750.408 375.04C750.057 375.372 749.63 375.637 749.125 375.834C748.623 376.031 748.048 376.129 747.398 376.129C746.543 376.129 745.776 375.942 745.099 375.566C744.425 375.187 743.893 374.637 743.502 373.913C743.111 373.19 742.916 372.31 742.916 371.273C742.916 370.232 743.114 369.351 743.511 368.627C743.908 367.904 744.445 367.355 745.122 366.979C745.8 366.604 746.558 366.416 747.398 366.416C747.971 366.416 748.5 366.496 748.986 366.656C749.473 366.813 749.9 367.044 750.27 367.349C750.639 367.65 750.939 368.021 751.17 368.461C751.401 368.901 751.544 369.405 751.599 369.971ZM754.711 376H752.255L755.445 366.545H758.487L761.677 376H759.221L757.001 368.928H756.927L754.711 376ZM754.383 372.279H759.517V374.015H754.383V372.279ZM770.742 366.545V376H768.803L765.04 370.543H764.98V376H762.695V366.545H764.662L768.383 371.993H768.461V366.545H770.742ZM780.76 369.971H778.452C778.421 369.734 778.358 369.52 778.263 369.329C778.168 369.138 778.041 368.975 777.884 368.84C777.727 368.704 777.541 368.601 777.326 368.531C777.113 368.457 776.878 368.42 776.619 368.42C776.161 368.42 775.765 368.532 775.433 368.757C775.104 368.981 774.85 369.306 774.671 369.731C774.496 370.156 774.408 370.67 774.408 371.273C774.408 371.901 774.497 372.427 774.676 372.852C774.858 373.273 775.111 373.592 775.438 373.807C775.767 374.02 776.156 374.126 776.606 374.126C776.858 374.126 777.087 374.093 777.294 374.029C777.503 373.964 777.686 373.87 777.843 373.747C778.003 373.621 778.134 373.469 778.235 373.29C778.34 373.109 778.412 372.904 778.452 372.676L780.76 372.69C780.72 373.109 780.599 373.521 780.396 373.927C780.196 374.333 779.92 374.704 779.569 375.04C779.219 375.372 778.791 375.637 778.286 375.834C777.784 376.031 777.209 376.129 776.559 376.129C775.704 376.129 774.938 375.942 774.26 375.566C773.586 375.187 773.054 374.637 772.663 373.913C772.272 373.19 772.077 372.31 772.077 371.273C772.077 370.232 772.275 369.351 772.672 368.627C773.069 367.904 773.606 367.355 774.284 366.979C774.961 366.604 775.719 366.416 776.559 366.416C777.132 366.416 777.661 366.496 778.148 366.656C778.634 366.813 779.062 367.044 779.431 367.349C779.8 367.65 780.1 368.021 780.331 368.461C780.562 368.901 780.705 369.405 780.76 369.971ZM782.068 376V366.545H788.66V368.401H784.353V370.34H788.323V372.201H784.353V374.144H788.66V376H782.068ZM790.092 376V366.545H792.377V374.144H796.31V376H790.092ZM797.493 376V366.545H799.778V374.144H803.711V376H797.493ZM804.894 376V366.545H811.487V368.401H807.179V370.34H811.15V372.201H807.179V374.144H811.487V376H804.894ZM816.412 376H812.918V366.545H816.408C817.371 366.545 818.2 366.735 818.896 367.113C819.595 367.489 820.133 368.03 820.512 368.738C820.89 369.443 821.08 370.286 821.08 371.268C821.08 372.253 820.89 373.099 820.512 373.807C820.136 374.515 819.599 375.058 818.901 375.437C818.202 375.812 817.373 376 816.412 376ZM815.203 374.052H816.325C816.854 374.052 817.302 373.963 817.668 373.784C818.037 373.603 818.316 373.309 818.504 372.902C818.694 372.493 818.79 371.948 818.79 371.268C818.79 370.588 818.694 370.046 818.504 369.643C818.313 369.237 818.031 368.944 817.659 368.766C817.29 368.584 816.834 368.494 816.292 368.494H815.203V374.052Z" fill="white"/>
<path d="M564 48.5C563.172 48.5 562.5 49.1716 562.5 50C562.5 50.8284 563.172 51.5 564 51.5V50V48.5ZM989.061 51.0607C989.646 50.4749 989.646 49.5251 989.061 48.9393L979.515 39.3934C978.929 38.8076 977.979 38.8076 977.393 39.3934C976.808 39.9792 976.808 40.9289 977.393 41.5147L985.879 50L977.393 58.4853C976.808 59.0711 976.808 60.0208 977.393 60.6066C977.979 61.1924 978.929 61.1924 979.515 60.6066L989.061 51.0607ZM564 50V51.5H988V50V48.5H564V50Z" fill="#2980B9"/>
<path d="M461.5 79C461.5 78.1716 460.828 77.5 460 77.5C459.172 77.5 458.5 78.1716 458.5 79H460H461.5ZM679.061 268.061C679.646 267.475 679.646 266.525 679.061 265.939L669.515 256.393C668.929 255.808 667.979 255.808 667.393 256.393C666.808 256.979 666.808 257.929 667.393 258.515L675.879 267L667.393 275.485C666.808 276.071 666.808 277.021 667.393 277.607C667.979 278.192 668.929 278.192 669.515 277.607L679.061 268.061ZM460 79H458.5V100H460H461.5V79H460ZM484 124V125.5H575V124V122.5H484V124ZM599 148H597.5V243H599H600.5V148H599ZM623 267V268.5H678V267V265.5H623V267ZM599 243H597.5C597.5 257.083 608.917 268.5 623 268.5V267V265.5C610.574 265.5 600.5 255.426 600.5 243H599ZM575 124V125.5C587.426 125.5 597.5 135.574 597.5 148H599H600.5C600.5 133.917 589.083 122.5 575 122.5V124ZM460 100H458.5C458.5 114.083 469.917 125.5 484 125.5V124V122.5C471.574 122.5 461.5 112.426 461.5 100H460Z" fill="#2980B9"/>
<path d="M461.5 79C461.5 78.1716 460.828 77.5 460 77.5C459.172 77.5 458.5 78.1716 458.5 79H460H461.5ZM679.061 173.061C679.646 172.475 679.646 171.525 679.061 170.939L669.515 161.393C668.929 160.808 667.979 160.808 667.393 161.393C666.808 161.979 666.808 162.929 667.393 163.515L675.879 172L667.393 180.485C666.808 181.071 666.808 182.021 667.393 182.607C667.979 183.192 668.929 183.192 669.515 182.607L679.061 173.061ZM460 79H458.5V99H460H461.5V79H460ZM484 123V124.5H575V123V121.5H484V123ZM599 147H597.5V148H599H600.5V147H599ZM623 172V173.5H678V172V170.5H623V172ZM599 148H597.5C597.5 162.083 608.917 173.5 623 173.5V172V170.5C610.574 170.5 600.5 160.426 600.5 148H599ZM575 123V124.5C587.426 124.5 597.5 134.574 597.5 147H599H600.5C600.5 132.917 589.083 121.5 575 121.5V123ZM460 99H458.5C458.5 113.083 469.917 124.5 484 124.5V123V121.5C471.574 121.5 461.5 111.426 461.5 99H460Z" fill="#2980B9"/>
<path d="M461.5 79C461.5 78.1716 460.828 77.5 460 77.5C459.172 77.5 458.5 78.1716 458.5 79H460H461.5ZM679.061 363.061C679.646 362.475 679.646 361.525 679.061 360.939L669.515 351.393C668.929 350.808 667.979 350.808 667.393 351.393C666.808 351.979 666.808 352.929 667.393 353.515L675.879 362L667.393 370.485C666.808 371.071 666.808 372.021 667.393 372.607C667.979 373.192 668.929 373.192 669.515 372.607L679.061 363.061ZM460 79H458.5V99H460H461.5V79H460ZM484 123V124.5H575V123V121.5H484V123ZM599 147H597.5V338H599H600.5V147H599ZM623 362V363.5H678V362V360.5H623V362ZM599 338H597.5C597.5 352.083 608.917 363.5 623 363.5V362V360.5C610.574 360.5 600.5 350.426 600.5 338H599ZM575 123V124.5C587.426 124.5 597.5 134.574 597.5 147H599H600.5C600.5 132.917 589.083 121.5 575 121.5V123ZM460 99H458.5C458.5 113.083 469.917 124.5 484 124.5V123V121.5C471.574 121.5 461.5 111.426 461.5 99H460Z" fill="#2980B9"/>
<rect width="200" height="100" rx="20" fill="#F2F2F2"/>
<path d="M53.6976 31.2727H56.3098L58.5257 36.6761H58.628L60.8439 31.2727H63.4561V40H61.4022V34.6392H61.3297L59.2331 39.9446H57.9206L55.824 34.6094H55.7516V40H53.6976V31.2727ZM66.6596 40H64.3926L67.3372 31.2727H70.1454L73.09 40H70.823L68.7733 33.4716H68.7051L66.6596 40ZM66.3571 36.5653H71.0957V38.1676H66.3571V36.5653ZM76.139 31.2727V40H74.0297V31.2727H76.139ZM84.8908 31.2727V40H83.101L79.628 34.9631H79.5726V40H77.4632V31.2727H79.2786L82.7132 36.3011H82.7857V31.2727H84.8908ZM85.9316 32.9858V31.2727H93.3081V32.9858H90.6618V40H88.5822V32.9858H85.9316ZM94.3382 40V31.2727H100.423V32.9858H96.4476V34.7756H100.112V36.4929H96.4476V38.2869H100.423V40H94.3382ZM109.172 31.2727V40H107.382L103.909 34.9631H103.854V40H101.744V31.2727H103.56L106.994 36.3011H107.067V31.2727H109.172ZM112.386 40H110.119L113.064 31.2727H115.872L118.817 40H116.55L114.5 33.4716H114.432L112.386 40ZM112.084 36.5653H116.822V38.1676H112.084V36.5653ZM127.184 31.2727V40H125.394L121.921 34.9631H121.866V40H119.756V31.2727H121.572L125.006 36.3011H125.079V31.2727H127.184ZM136.432 34.4347H134.301C134.273 34.2159 134.215 34.0185 134.127 33.8423C134.039 33.6662 133.922 33.5156 133.777 33.3906C133.632 33.2656 133.46 33.1705 133.262 33.1051C133.066 33.0369 132.848 33.0028 132.61 33.0028C132.186 33.0028 131.821 33.1065 131.514 33.3139C131.21 33.5213 130.976 33.821 130.811 34.2131C130.649 34.6051 130.568 35.0795 130.568 35.6364C130.568 36.2159 130.651 36.7017 130.816 37.0938C130.983 37.483 131.218 37.777 131.519 37.9759C131.823 38.1719 132.182 38.2699 132.597 38.2699C132.83 38.2699 133.041 38.2401 133.232 38.1804C133.425 38.1207 133.594 38.0341 133.739 37.9205C133.887 37.804 134.007 37.6634 134.101 37.4986C134.198 37.331 134.264 37.142 134.301 36.9318L136.432 36.9446C136.395 37.331 136.283 37.7116 136.095 38.0866C135.911 38.4616 135.656 38.804 135.333 39.1136C135.009 39.4205 134.614 39.6648 134.148 39.8466C133.685 40.0284 133.154 40.1193 132.554 40.1193C131.764 40.1193 131.057 39.946 130.432 39.5994C129.81 39.25 129.318 38.7415 128.958 38.0739C128.597 37.4062 128.416 36.5937 128.416 35.6364C128.416 34.6761 128.6 33.8622 128.966 33.1946C129.333 32.527 129.828 32.0199 130.453 31.6733C131.078 31.3267 131.779 31.1534 132.554 31.1534C133.083 31.1534 133.571 31.2273 134.02 31.375C134.469 31.5199 134.864 31.733 135.205 32.0142C135.546 32.2926 135.823 32.6349 136.036 33.0412C136.249 33.4474 136.381 33.9119 136.432 34.4347ZM137.639 40V31.2727H143.724V32.9858H139.748V34.7756H143.413V36.4929H139.748V38.2869H143.724V40H137.639ZM80.932 49.4347H78.8013C78.7729 49.2159 78.7147 49.0185 78.6266 48.8423C78.5385 48.6662 78.4221 48.5156 78.2772 48.3906C78.1323 48.2656 77.9604 48.1705 77.7615 48.1051C77.5655 48.0369 77.3482 48.0028 77.1096 48.0028C76.6863 48.0028 76.3212 48.1065 76.0144 48.3139C75.7104 48.5213 75.476 48.821 75.3113 49.2131C75.1493 49.6051 75.0684 50.0795 75.0684 50.6364C75.0684 51.2159 75.1507 51.7017 75.3155 52.0938C75.4831 52.483 75.7175 52.777 76.0186 52.9759C76.3226 53.1719 76.682 53.2699 77.0968 53.2699C77.3297 53.2699 77.5414 53.2401 77.7317 53.1804C77.9249 53.1207 78.0939 53.0341 78.2388 52.9205C78.3865 52.804 78.5073 52.6634 78.601 52.4986C78.6976 52.331 78.7644 52.142 78.8013 51.9318L80.932 51.9446C80.8951 52.331 80.7828 52.7116 80.5953 53.0866C80.4107 53.4616 80.1564 53.804 79.8326 54.1136C79.5087 54.4205 79.1138 54.6648 78.6479 54.8466C78.1848 55.0284 77.6536 55.1193 77.0542 55.1193C76.2644 55.1193 75.557 54.946 74.932 54.5994C74.3098 54.25 73.8184 53.7415 73.4576 53.0739C73.0968 52.4062 72.9164 51.5937 72.9164 50.6364C72.9164 49.6761 73.0996 48.8622 73.4661 48.1946C73.8326 47.527 74.3283 47.0199 74.9533 46.6733C75.5783 46.3267 76.2786 46.1534 77.0542 46.1534C77.5826 46.1534 78.0712 46.2273 78.5201 46.375C78.9689 46.5199 79.3638 46.733 79.7047 47.0142C80.0456 47.2926 80.3226 47.6349 80.5357 48.0412C80.7488 48.4474 80.8809 48.9119 80.932 49.4347ZM82.139 55V46.2727H84.2484V49.7756H87.6873V46.2727H89.7924V55H87.6873V51.4929H84.2484V55H82.139ZM93.0034 55H90.7363L93.6809 46.2727H96.4892L99.4338 55H97.1667L95.117 48.4716H95.0488L93.0034 55ZM92.7008 51.5653H97.4395V53.1676H92.7008V51.5653ZM107.801 46.2727V55H106.011L102.538 49.9631H102.483V55H100.373V46.2727H102.189L105.623 51.3011H105.696V46.2727H107.801ZM114.855 49.1236C114.806 48.9446 114.735 48.7869 114.642 48.6506C114.548 48.5114 114.433 48.3935 114.296 48.2969C114.16 48.2003 114.004 48.1278 113.828 48.0795C113.651 48.0284 113.458 48.0028 113.248 48.0028C112.825 48.0028 112.458 48.1051 112.149 48.3097C111.842 48.5142 111.605 48.8125 111.437 49.2045C111.269 49.5937 111.186 50.0668 111.186 50.6236C111.186 51.1832 111.267 51.6605 111.428 52.0554C111.59 52.4503 111.825 52.7514 112.132 52.9588C112.438 53.1662 112.811 53.2699 113.248 53.2699C113.634 53.2699 113.961 53.2074 114.228 53.0824C114.498 52.9545 114.703 52.7741 114.842 52.5412C114.981 52.3082 115.051 52.0341 115.051 51.7188L115.443 51.7656H113.32V50.2273H117.083V51.3821C117.083 52.1634 116.917 52.8324 116.585 53.3892C116.255 53.946 115.801 54.3736 115.221 54.6719C114.644 54.9702 113.981 55.1193 113.231 55.1193C112.399 55.1193 111.667 54.9389 111.036 54.5781C110.406 54.2173 109.914 53.7031 109.562 53.0355C109.21 52.3651 109.034 51.5696 109.034 50.6491C109.034 49.9332 109.14 49.2983 109.353 48.7443C109.566 48.1875 109.863 47.7159 110.244 47.3295C110.627 46.9432 111.07 46.6506 111.573 46.4517C112.079 46.2528 112.623 46.1534 113.205 46.1534C113.711 46.1534 114.181 46.2259 114.616 46.3707C115.053 46.5156 115.44 46.7202 115.775 46.9844C116.113 47.2486 116.387 47.5625 116.597 47.9261C116.808 48.2898 116.938 48.6889 116.99 49.1236H114.855ZM118.327 55V46.2727H124.412V47.9858H120.436V49.7756H124.101V51.4929H120.436V53.2869H124.412V55H118.327ZM72.1664 70V61.2727H75.7715C76.4249 61.2727 76.9888 61.3906 77.4632 61.6264C77.9405 61.8594 78.3084 62.1946 78.5669 62.6321C78.8255 63.0668 78.9547 63.5824 78.9547 64.179C78.9547 64.7841 78.8226 65.2983 78.5584 65.7216C78.2942 66.142 77.9192 66.4631 77.4334 66.6847C76.9476 66.9034 76.3723 67.0128 75.7076 67.0128H73.4277V65.3509H75.3155C75.6337 65.3509 75.8993 65.3097 76.1124 65.2273C76.3283 65.142 76.4917 65.0142 76.6025 64.8438C76.7132 64.6705 76.7686 64.4489 76.7686 64.179C76.7686 63.9091 76.7132 63.6861 76.6025 63.5099C76.4917 63.331 76.3283 63.1974 76.1124 63.1094C75.8965 63.0185 75.6309 62.973 75.3155 62.973H74.2757V70H72.1664ZM77.0797 66.0114L79.253 70H76.9519L74.8212 66.0114H77.0797ZM80.1117 70V61.2727H86.1969V62.9858H82.2211V64.7756H85.8858V66.4929H82.2211V68.2869H86.1969V70H80.1117ZM90.8546 66.8636H92.5591L93.2836 67.7884L94.2338 68.8793L95.6955 70.6818H93.7864L92.7637 69.4588L92.1586 68.5895L90.8546 66.8636ZM95.7551 65.6364C95.7551 66.5966 95.5705 67.4105 95.2012 68.0781C94.8319 68.7457 94.3319 69.2528 93.7012 69.5994C93.0733 69.946 92.3688 70.1193 91.5875 70.1193C90.8034 70.1193 90.0975 69.9446 89.4696 69.5952C88.8418 69.2457 88.3432 68.7386 87.9739 68.0739C87.6074 67.4062 87.4242 66.5937 87.4242 65.6364C87.4242 64.6761 87.6074 63.8622 87.9739 63.1946C88.3432 62.527 88.8418 62.0199 89.4696 61.6733C90.0975 61.3267 90.8034 61.1534 91.5875 61.1534C92.3688 61.1534 93.0733 61.3267 93.7012 61.6733C94.3319 62.0199 94.8319 62.527 95.2012 63.1946C95.5705 63.8622 95.7551 64.6761 95.7551 65.6364ZM93.5989 65.6364C93.5989 65.0682 93.5179 64.5881 93.356 64.196C93.1969 63.804 92.9668 63.5071 92.6657 63.3054C92.3674 63.1037 92.008 63.0028 91.5875 63.0028C91.1699 63.0028 90.8105 63.1037 90.5094 63.3054C90.2083 63.5071 89.9767 63.804 89.8148 64.196C89.6557 64.5881 89.5762 65.0682 89.5762 65.6364C89.5762 66.2045 89.6557 66.6847 89.8148 67.0767C89.9767 67.4687 90.2083 67.7656 90.5094 67.9673C90.8105 68.169 91.1699 68.2699 91.5875 68.2699C92.008 68.2699 92.3674 68.169 92.6657 67.9673C92.9668 67.7656 93.1969 67.4687 93.356 67.0767C93.5179 66.6847 93.5989 66.2045 93.5989 65.6364ZM102.278 61.2727H104.383V66.902C104.383 67.5526 104.229 68.1193 103.919 68.6023C103.609 69.0824 103.177 69.4545 102.623 69.7188C102.069 69.9801 101.426 70.1108 100.693 70.1108C99.9515 70.1108 99.3038 69.9801 98.7498 69.7188C98.1958 69.4545 97.7654 69.0824 97.4586 68.6023C97.1518 68.1193 96.9984 67.5526 96.9984 66.902V61.2727H99.1078V66.7188C99.1078 67.0199 99.1731 67.2884 99.3038 67.5241C99.4373 67.7599 99.6234 67.9446 99.862 68.0781C100.101 68.2116 100.378 68.2784 100.693 68.2784C101.008 68.2784 101.284 68.2116 101.52 68.0781C101.758 67.9446 101.944 67.7599 102.078 67.5241C102.211 67.2884 102.278 67.0199 102.278 66.7188V61.2727ZM105.705 70V61.2727H111.791V62.9858H107.815V64.7756H111.48V66.4929H107.815V68.2869H111.791V70H105.705ZM117.829 63.8892C117.801 63.5767 117.674 63.3338 117.45 63.1605C117.228 62.9844 116.911 62.8963 116.499 62.8963C116.227 62.8963 115.999 62.9318 115.818 63.0028C115.636 63.0739 115.499 63.1719 115.409 63.2969C115.318 63.419 115.271 63.5597 115.268 63.7188C115.262 63.8494 115.288 63.9645 115.345 64.0639C115.404 64.1634 115.49 64.2514 115.6 64.3281C115.714 64.402 115.85 64.4673 116.009 64.5241C116.169 64.581 116.347 64.6307 116.546 64.6733L117.296 64.8438C117.728 64.9375 118.109 65.0625 118.438 65.2188C118.771 65.375 119.049 65.5611 119.274 65.777C119.501 65.9929 119.673 66.2415 119.789 66.5227C119.906 66.804 119.965 67.1193 119.968 67.4688C119.965 68.0199 119.826 68.4929 119.551 68.8878C119.275 69.2827 118.879 69.5852 118.362 69.7955C117.847 70.0057 117.227 70.1108 116.499 70.1108C115.769 70.1108 115.133 70.0014 114.59 69.7827C114.048 69.5639 113.626 69.2315 113.325 68.7855C113.024 68.3395 112.869 67.7756 112.86 67.0938H114.88C114.897 67.375 114.972 67.6094 115.106 67.7969C115.24 67.9844 115.423 68.1264 115.656 68.223C115.892 68.3196 116.164 68.3679 116.474 68.3679C116.758 68.3679 116.999 68.3295 117.198 68.2528C117.4 68.1761 117.555 68.0696 117.663 67.9332C117.771 67.7969 117.826 67.6406 117.829 67.4645C117.826 67.2997 117.775 67.1591 117.676 67.0426C117.576 66.9233 117.423 66.821 117.215 66.7358C117.011 66.6477 116.749 66.5668 116.431 66.4929L115.519 66.2798C114.764 66.1065 114.169 65.8267 113.734 65.4403C113.299 65.0511 113.083 64.5256 113.086 63.8636C113.083 63.3239 113.228 62.8509 113.521 62.4446C113.813 62.0384 114.218 61.7216 114.735 61.4943C115.252 61.267 115.842 61.1534 116.504 61.1534C117.18 61.1534 117.767 61.2685 118.264 61.4986C118.764 61.7259 119.151 62.0455 119.427 62.4574C119.703 62.8693 119.843 63.3466 119.849 63.8892H117.829ZM120.748 62.9858V61.2727H128.124V62.9858H125.478V70H123.399V62.9858H120.748Z" fill="black"/>
<path d="M184 48.5C183.172 48.5 182.5 49.1716 182.5 50C182.5 50.8284 183.172 51.5 184 51.5V50V48.5ZM357.061 51.0607C357.646 50.4749 357.646 49.5251 357.061 48.9393L347.515 39.3934C346.929 38.8076 345.979 38.8076 345.393 39.3934C344.808 39.9792 344.808 40.9289 345.393 41.5147L353.879 50L345.393 58.4853C344.808 59.0711 344.808 60.0208 345.393 60.6066C345.979 61.1924 346.929 61.1924 347.515 60.6066L357.061 51.0607ZM184 50V51.5H187.035V50V48.5H184V50ZM191.082 50V51.5H197.153V50V48.5H191.082V50ZM201.2 50V51.5H207.271V50V48.5H201.2V50ZM211.318 50V51.5H217.388V50V48.5H211.318V50ZM221.435 50V51.5H227.506V50V48.5H221.435V50ZM231.553 50V51.5H237.624V50V48.5H231.553V50ZM241.671 50V51.5H247.741V50V48.5H241.671V50ZM251.788 50V51.5H257.859V50V48.5H251.788V50ZM261.906 50V51.5H267.976V50V48.5H261.906V50ZM272.024 50V51.5H278.094V50V48.5H272.024V50ZM282.141 50V51.5H288.212V50V48.5H282.141V50ZM292.259 50V51.5H298.329V50V48.5H292.259V50ZM302.376 50V51.5H308.447V50V48.5H302.376V50ZM312.494 50V51.5H318.565V50V48.5H312.494V50ZM322.612 50V51.5H328.682V50V48.5H322.612V50ZM332.729 50V51.5H338.8V50V48.5H332.729V50ZM342.847 50V51.5H348.918V50V48.5H342.847V50ZM352.965 50V51.5H356V50V48.5H352.965V50Z" fill="#CECCCC"/>
</svg>
